Monoto-CondensedLight.ufo
<glyph name="exclam" format="2">
  <advance width="300"/>
  <unicode hex="0021"/>
  <outline>
    <contour>
      <point x="126" y="174" type="line"/>
      <point x="146" y="174" type="line"/>
      <point x="148" y="714" type="line"/>
      <point x="122" y="714" type="line"/>
    </contour>
    <contour>
      <point x="135" y="-12" type="curve" smooth="yes"/>
      <point x="150" y="-12"/>
      <point x="155" y="4"/>
      <point x="155" y="23" type="curve" smooth="yes"/>
      <point x="155" y="41"/>
      <point x="150" y="58"/>
      <point x="135" y="58" type="curve" smooth="yes"/>
      <point x="121" y="58"/>
      <point x="116" y="41"/>
      <point x="116" y="23" type="curve" smooth="yes"/>
      <point x="116" y="4"/>
      <point x="122" y="-12"/>
    </contour>
  </outline>
</glyph>
<glyph name="quotedbl" format="2">
  <advance width="300"/>
  <unicode hex="0022"/>
  <outline>
    <contour>
      <point x="167" y="456" type="line"/>
      <point x="184" y="456" type="line"/>
      <point x="187" y="714" type="line"/>
      <point x="163" y="714" type="line"/>
    </contour>
    <contour>
      <point x="86" y="456" type="line"/>
      <point x="104" y="456" type="line"/>
      <point x="107" y="714" type="line"/>
      <point x="82" y="714" type="line"/>
    </contour>
  </outline>
</glyph>
<glyph name="numbersign" format="2">
  <advance width="300"/>
  <unicode hex="0023"/>
  <outline>
    <contour>
      <point x="56" y="0" type="line"/>
      <point x="74" y="0" type="line"/>
      <point x="92" y="231" type="line"/>
      <point x="157" y="231" type="line"/>
      <point x="139" y="0" type="line"/>
      <point x="159" y="0" type="line"/>
      <point x="177" y="231" type="line"/>
      <point x="238" y="231" type="line"/>
      <point x="238" y="255" type="line"/>
      <point x="179" y="255" type="line"/>
      <point x="194" y="471" type="line"/>
      <point x="252" y="471" type="line"/>
      <point x="252" y="495" type="line"/>
      <point x="197" y="495" type="line"/>
      <point x="212" y="714" type="line"/>
      <point x="194" y="714" type="line"/>
      <point x="177" y="495" type="line"/>
      <point x="113" y="495" type="line"/>
      <point x="130" y="714" type="line"/>
      <point x="111" y="714" type="line"/>
      <point x="94" y="495" type="line"/>
      <point x="33" y="495" type="line"/>
      <point x="33" y="471" type="line"/>
      <point x="92" y="471" type="line"/>
      <point x="76" y="255" type="line"/>
      <point x="17" y="255" type="line"/>
      <point x="17" y="231" type="line"/>
      <point x="73" y="231" type="line"/>
    </contour>
    <contour>
      <point x="95" y="255" type="line"/>
      <point x="110" y="471" type="line"/>
      <point x="175" y="471" type="line"/>
      <point x="160" y="255" type="line"/>
    </contour>
  </outline>
</glyph>
<glyph name="dollar" format="2">
  <advance width="300"/>
  <unicode hex="0024"/>
  <outline>
    <contour>
      <point x="132" y="-58" type="line"/>
      <point x="148" y="-58" type="line"/>
      <point x="148" y="26" type="line"/>
      <point x="205" y="34"/>
      <point x="239" y="91"/>
      <point x="239" y="187" type="curve" smooth="yes"/>
      <point x="239" y="283"/>
      <point x="207" y="325"/>
      <point x="148" y="371" type="curve"/>
      <point x="148" y="670" type="line"/>
      <point x="172" y="670"/>
      <point x="193" y="659"/>
      <point x="216" y="636" type="curve"/>
      <point x="225" y="660" type="line"/>
      <point x="200" y="683"/>
      <point x="175" y="695"/>
      <point x="148" y="696" type="curve"/>
      <point x="148" y="760" type="line"/>
      <point x="132" y="760" type="line"/>
      <point x="132" y="695" type="line"/>
      <point x="82" y="689"/>
      <point x="47" y="633"/>
      <point x="47" y="537" type="curve" smooth="yes"/>
      <point x="47" y="436"/>
      <point x="81" y="395"/>
      <point x="132" y="354" type="curve"/>
      <point x="132" y="51" type="line"/>
      <point x="102" y="52"/>
      <point x="70" y="68"/>
      <point x="49" y="86" type="curve"/>
      <point x="49" y="57" type="line"/>
      <point x="69" y="42"/>
      <point x="98" y="27"/>
      <point x="132" y="26" type="curve"/>
    </contour>
    <contour>
      <point x="148" y="52" type="curve"/>
      <point x="148" y="343" type="line"/>
      <point x="194" y="300"/>
      <point x="218" y="266"/>
      <point x="218" y="187" type="curve" smooth="yes"/>
      <point x="218" y="101"/>
      <point x="190" y="57"/>
    </contour>
    <contour>
      <point x="132" y="381" type="line"/>
      <point x="94" y="416"/>
      <point x="68" y="451"/>
      <point x="68" y="538" type="curve" smooth="yes"/>
      <point x="68" y="621"/>
      <point x="95" y="665"/>
      <point x="132" y="670" type="curve"/>
    </contour>
  </outline>
</glyph>
<glyph name="percent" format="2">
  <advance width="300"/>
  <unicode hex="0025"/>
  <outline>
    <contour>
      <point x="21" y="168" type="line"/>
      <point x="46" y="168" type="line"/>
      <point x="247" y="545" type="line"/>
      <point x="221" y="545" type="line"/>
    </contour>
    <contour>
      <point x="193" y="-9" type="curve" smooth="yes"/>
      <point x="240" y="-9"/>
      <point x="264" y="63"/>
      <point x="264" y="163" type="curve" smooth="yes"/>
      <point x="264" y="258"/>
      <point x="240" y="330"/>
      <point x="193" y="330" type="curve" smooth="yes"/>
      <point x="145" y="330"/>
      <point x="121" y="258"/>
      <point x="121" y="163" type="curve" smooth="yes"/>
      <point x="121" y="63"/>
      <point x="146" y="-9"/>
    </contour>
    <contour>
      <point x="193" y="15" type="curve" smooth="yes"/>
      <point x="158" y="15"/>
      <point x="141" y="78"/>
      <point x="141" y="163" type="curve" smooth="yes"/>
      <point x="141" y="246"/>
      <point x="158" y="306"/>
      <point x="193" y="306" type="curve" smooth="yes"/>
      <point x="228" y="306"/>
      <point x="243" y="244"/>
      <point x="243" y="163" type="curve" smooth="yes"/>
      <point x="243" y="77"/>
      <point x="228" y="15"/>
    </contour>
    <contour>
      <point x="77" y="383" type="curve" smooth="yes"/>
      <point x="124" y="383"/>
      <point x="148" y="455"/>
      <point x="148" y="555" type="curve" smooth="yes"/>
      <point x="148" y="650"/>
      <point x="124" y="722"/>
      <point x="77" y="722" type="curve" smooth="yes"/>
      <point x="29" y="722"/>
      <point x="5" y="650"/>
      <point x="5" y="555" type="curve" smooth="yes"/>
      <point x="5" y="455"/>
      <point x="29" y="383"/>
    </contour>
    <contour>
      <point x="77" y="407" type="curve" smooth="yes"/>
      <point x="42" y="407"/>
      <point x="26" y="470"/>
      <point x="26" y="555" type="curve" smooth="yes"/>
      <point x="26" y="638"/>
      <point x="42" y="698"/>
      <point x="77" y="698" type="curve" smooth="yes"/>
      <point x="111" y="698"/>
      <point x="127" y="636"/>
      <point x="127" y="555" type="curve" smooth="yes"/>
      <point x="127" y="469"/>
      <point x="111" y="407"/>
    </contour>
  </outline>
</glyph>
<glyph name="ampersand" format="2">
  <advance width="300"/>
  <unicode hex="0026"/>
  <outline>
    <contour>
      <point x="108" y="-10" type="curve" smooth="yes"/>
      <point x="190" y="-10"/>
      <point x="232" y="149"/>
      <point x="241" y="317" type="curve"/>
      <point x="220" y="317" type="line"/>
      <point x="214" y="175"/>
      <point x="175" y="15"/>
      <point x="110" y="15" type="curve" smooth="yes"/>
      <point x="74" y="15"/>
      <point x="47" y="75"/>
      <point x="47" y="176" type="curve" smooth="yes"/>
      <point x="47" y="265"/>
      <point x="72" y="327"/>
      <point x="110" y="379" type="curve" smooth="yes"/>
      <point x="148" y="432"/>
      <point x="180" y="489"/>
      <point x="180" y="581" type="curve" smooth="yes"/>
      <point x="180" y="675"/>
      <point x="155" y="725"/>
      <point x="116" y="725" type="curve" smooth="yes"/>
      <point x="76" y="725"/>
      <point x="49" y="670"/>
      <point x="49" y="582" type="curve" smooth="yes"/>
      <point x="49" y="512"/>
      <point x="69" y="453"/>
      <point x="94" y="382" type="curve" smooth="yes"/>
      <point x="229" y="0" type="line"/>
      <point x="253" y="0" type="line"/>
      <point x="111" y="394" type="line" smooth="yes"/>
      <point x="89" y="457"/>
      <point x="70" y="516"/>
      <point x="70" y="582" type="curve" smooth="yes"/>
      <point x="70" y="654"/>
      <point x="87" y="700"/>
      <point x="116" y="700" type="curve" smooth="yes"/>
      <point x="144" y="700"/>
      <point x="159" y="655"/>
      <point x="159" y="581" type="curve" smooth="yes"/>
      <point x="159" y="505"/>
      <point x="132" y="447"/>
      <point x="96" y="399" type="curve" smooth="yes"/>
      <point x="53" y="341"/>
      <point x="25" y="277"/>
      <point x="25" y="176" type="curve" smooth="yes"/>
      <point x="25" y="60"/>
      <point x="57" y="-10"/>
    </contour>
  </outline>
</glyph>
<glyph name="quotesingle" format="2">
  <advance width="300"/>
  <unicode hex="0027"/>
  <outline>
    <contour>
      <point x="126" y="456" type="line"/>
      <point x="143" y="456" type="line"/>
      <point x="147" y="714" type="line"/>
      <point x="122" y="714" type="line"/>
    </contour>
  </outline>
</glyph>
<glyph name="parenleft" format="2">
  <advance width="300"/>
  <unicode hex="0028"/>
  <outline>
    <contour>
      <point x="171" y="-158" type="curve"/>
      <point x="193" y="-158" type="line"/>
      <point x="143" y="-39"/>
      <point x="119" y="109"/>
      <point x="119" y="275" type="curve" smooth="yes"/>
      <point x="119" y="443"/>
      <point x="143" y="596"/>
      <point x="193" y="714" type="curve"/>
      <point x="171" y="714" type="line"/>
      <point x="125" y="606"/>
      <point x="97" y="451"/>
      <point x="97" y="274" type="curve" smooth="yes"/>
      <point x="97" y="99"/>
      <point x="124" y="-46"/>
    </contour>
  </outline>
</glyph>
<glyph name="asterisk" format="2">
  <advance width="300"/>
  <unicode hex="002A"/>
  <outline>
    <contour>
      <point x="179" y="431" type="line"/>
      <point x="195" y="446" type="line"/>
      <point x="145" y="578" type="line"/>
      <point x="219" y="627" type="line"/>
      <point x="215" y="650" type="line"/>
      <point x="140" y="594" type="line"/>
      <point x="144" y="759" type="line"/>
      <point x="122" y="759" type="line"/>
      <point x="125" y="594" type="line"/>
      <point x="50" y="649" type="line"/>
      <point x="45" y="627" type="line"/>
      <point x="121" y="578" type="line"/>
      <point x="69" y="445" type="line"/>
      <point x="86" y="431" type="line"/>
      <point x="133" y="568" type="line"/>
    </contour>
  </outline>
</glyph>
<glyph name="comma" format="2">
  <advance width="300"/>
  <unicode hex="002C"/>
  <outline>
    <contour>
      <point x="106" y="-129" type="curve"/>
      <point x="125" y="-129" type="line"/>
      <point x="140" y="-60"/>
      <point x="152" y="30"/>
      <point x="160" y="104" type="curve"/>
      <point x="158" y="116" type="line"/>
      <point x="134" y="116" type="line"/>
      <point x="128" y="40"/>
      <point x="120" y="-32"/>
    </contour>
  </outline>
</glyph>
<glyph name="period" format="2">
  <advance width="300"/>
  <unicode hex="002E"/>
  <outline>
    <contour>
      <point x="135" y="-12" type="curve" smooth="yes"/>
      <point x="148" y="-12"/>
      <point x="154" y="4"/>
      <point x="154" y="23" type="curve" smooth="yes"/>
      <point x="154" y="41"/>
      <point x="148" y="58"/>
      <point x="135" y="58" type="curve" smooth="yes"/>
      <point x="120" y="58"/>
      <point x="115" y="41"/>
      <point x="115" y="23" type="curve" smooth="yes"/>
      <point x="115" y="4"/>
      <point x="121" y="-12"/>
    </contour>
  </outline>
</glyph>
<glyph name="zero" format="2">
  <advance width="300"/>
  <unicode hex="0030"/>
  <outline>
    <contour>
      <point x="135" y="-8" type="curve" smooth="yes"/>
      <point x="207" y="-8"/>
      <point x="236" y="130"/>
      <point x="236" y="359" type="curve" smooth="yes"/>
      <point x="236" y="571"/>
      <point x="209" y="725"/>
      <point x="136" y="725" type="curve" smooth="yes"/>
      <point x="60" y="725"/>
      <point x="34" y="572"/>
      <point x="34" y="358" type="curve" smooth="yes"/>
      <point x="34" y="126"/>
      <point x="67" y="-8"/>
    </contour>
    <contour>
      <point x="69" y="84" type="line"/>
      <point x="217" y="579" type="line"/>
      <point x="201" y="599" type="line"/>
      <point x="57" y="118" type="line"/>
    </contour>
    <contour>
      <point x="136" y="17" type="curve" smooth="yes"/>
      <point x="82" y="17"/>
      <point x="57" y="141"/>
      <point x="57" y="359" type="curve" smooth="yes"/>
      <point x="57" y="558"/>
      <point x="78" y="700"/>
      <point x="136" y="700" type="curve" smooth="yes"/>
      <point x="195" y="700"/>
      <point x="212" y="559"/>
      <point x="212" y="359" type="curve" smooth="yes"/>
      <point x="212" y="144"/>
      <point x="191" y="17"/>
    </contour>
  </outline>
</glyph>
<glyph name="one" format="2">
  <advance width="300"/>
  <unicode hex="0031"/>
  <outline>
    <contour>
      <point x="132" y="0" type="line"/>
      <point x="156" y="0" type="line"/>
      <point x="156" y="714" type="line"/>
      <point x="135" y="714" type="line"/>
      <point x="46" y="580" type="line"/>
      <point x="59" y="560" type="line"/>
      <point x="107" y="641" type="line" smooth="yes"/>
      <point x="117" y="658"/>
      <point x="124" y="668"/>
      <point x="132" y="683" type="curve"/>
      <point x="132" y="648"/>
      <point x="132" y="614"/>
      <point x="132" y="565" type="curve" smooth="yes"/>
    </contour>
    <contour>
      <point x="67" y="0" type="line"/>
      <point x="220" y="0" type="line"/>
      <point x="220" y="20" type="line"/>
      <point x="156" y="23" type="line"/>
      <point x="132" y="23" type="line"/>
      <point x="67" y="20" type="line"/>
    </contour>
  </outline>
</glyph>
<glyph name="two" format="2">
  <advance width="300"/>
  <unicode hex="0032"/>
  <outline>
    <contour>
      <point x="38" y="0" type="line"/>
      <point x="233" y="0" type="line"/>
      <point x="233" y="25" type="line"/>
      <point x="70" y="25" type="line"/>
      <point x="70" y="27" type="line"/>
      <point x="150" y="234" type="line" smooth="yes"/>
      <point x="190" y="336"/>
      <point x="221" y="418"/>
      <point x="221" y="539" type="curve" smooth="yes"/>
      <point x="221" y="657"/>
      <point x="186" y="724"/>
      <point x="132" y="724" type="curve" smooth="yes"/>
      <point x="99" y="724"/>
      <point x="70" y="705"/>
      <point x="45" y="668" type="curve"/>
      <point x="58" y="648" type="line"/>
      <point x="79" y="680"/>
      <point x="104" y="699"/>
      <point x="130" y="699" type="curve" smooth="yes"/>
      <point x="171" y="699"/>
      <point x="198" y="646"/>
      <point x="198" y="539" type="curve" smooth="yes"/>
      <point x="198" y="427"/>
      <point x="171" y="356"/>
      <point x="130" y="254" type="curve" smooth="yes"/>
      <point x="38" y="21" type="line"/>
    </contour>
  </outline>
</glyph>
<glyph name="three" format="2">
  <advance width="300"/>
  <unicode hex="0033"/>
  <outline>
    <contour>
      <point x="121" y="-10" type="curve" smooth="yes"/>
      <point x="196" y="-10"/>
      <point x="234" y="71"/>
      <point x="234" y="189" type="curve" smooth="yes"/>
      <point x="234" y="296"/>
      <point x="206" y="355"/>
      <point x="157" y="372" type="curve"/>
      <point x="157" y="374" type="line"/>
      <point x="196" y="392"/>
      <point x="226" y="455"/>
      <point x="226" y="553" type="curve" smooth="yes"/>
      <point x="226" y="660"/>
      <point x="188" y="724"/>
      <point x="131" y="724" type="curve" smooth="yes"/>
      <point x="93" y="724"/>
      <point x="63" y="697"/>
      <point x="39" y="658" type="curve"/>
      <point x="50" y="638" type="line"/>
      <point x="74" y="677"/>
      <point x="100" y="700"/>
      <point x="130" y="700" type="curve" smooth="yes"/>
      <point x="173" y="700"/>
      <point x="201" y="649"/>
      <point x="201" y="553" type="curve" smooth="yes"/>
      <point x="201" y="441"/>
      <point x="163" y="384"/>
      <point x="114" y="384" type="curve" smooth="yes"/>
      <point x="85" y="384" type="line"/>
      <point x="85" y="359" type="line"/>
      <point x="114" y="359" type="line" smooth="yes"/>
      <point x="170" y="359"/>
      <point x="208" y="314"/>
      <point x="208" y="189" type="curve" smooth="yes"/>
      <point x="208" y="81"/>
      <point x="179" y="15"/>
      <point x="121" y="15" type="curve" smooth="yes"/>
      <point x="90" y="15"/>
      <point x="59" y="33"/>
      <point x="37" y="53" type="curve"/>
      <point x="37" y="26" type="line"/>
      <point x="61" y="5"/>
      <point x="91" y="-10"/>
    </contour>
  </outline>
</glyph>
<glyph name="four" format="2">
  <advance width="300"/>
  <unicode hex="0034"/>
  <outline>
    <contour>
      <point x="172" y="0" type="line"/>
      <point x="195" y="0" type="line"/>
      <point x="195" y="185" type="line"/>
      <point x="240" y="185" type="line"/>
      <point x="240" y="210" type="line"/>
      <point x="195" y="210" type="line"/>
      <point x="195" y="718" type="line"/>
      <point x="168" y="718" type="line"/>
      <point x="29" y="207" type="line"/>
      <point x="29" y="185" type="line"/>
      <point x="172" y="185" type="line"/>
    </contour>
    <contour>
      <point x="54" y="210" type="line"/>
      <point x="147" y="582" type="line" smooth="yes"/>
      <point x="156" y="619"/>
      <point x="163" y="646"/>
      <point x="172" y="682" type="curve"/>
      <point x="172" y="682" type="line"/>
      <point x="172" y="645"/>
      <point x="172" y="626"/>
      <point x="172" y="571" type="curve" smooth="yes"/>
      <point x="172" y="210" type="line"/>
    </contour>
  </outline>
</glyph>
<glyph name="five" format="2">
  <advance width="300"/>
  <unicode hex="0035"/>
  <outline>
    <contour>
      <point x="118" y="-10" type="curve" smooth="yes"/>
      <point x="191" y="-10"/>
      <point x="232" y="84"/>
      <point x="232" y="220" type="curve" smooth="yes"/>
      <point x="232" y="348"/>
      <point x="195" y="426"/>
      <point x="130" y="426" type="curve" smooth="yes"/>
      <point x="105" y="426"/>
      <point x="87" y="415"/>
      <point x="72" y="408" type="curve"/>
      <point x="83" y="689" type="line"/>
      <point x="211" y="689" type="line"/>
      <point x="211" y="714" type="line"/>
      <point x="62" y="714" type="line"/>
      <point x="48" y="393" type="line"/>
      <point x="60" y="378" type="line"/>
      <point x="78" y="391"/>
      <point x="100" y="401"/>
      <point x="124" y="401" type="curve" smooth="yes"/>
      <point x="182" y="401"/>
      <point x="208" y="331"/>
      <point x="208" y="220" type="curve" smooth="yes"/>
      <point x="208" y="99"/>
      <point x="175" y="15"/>
      <point x="117" y="15" type="curve" smooth="yes"/>
      <point x="87" y="15"/>
      <point x="60" y="33"/>
      <point x="41" y="55" type="curve"/>
      <point x="41" y="26" type="line"/>
      <point x="59" y="6"/>
      <point x="85" y="-10"/>
    </contour>
  </outline>
</glyph>
<glyph name="six" format="2">
  <advance width="300"/>
  <unicode hex="0036"/>
  <outline>
    <contour>
      <point x="136" y="-12" type="curve" smooth="yes"/>
      <point x="197" y="-12"/>
      <point x="232" y="80"/>
      <point x="232" y="221" type="curve" smooth="yes"/>
      <point x="232" y="350"/>
      <point x="199" y="438"/>
      <point x="143" y="438" type="curve" smooth="yes"/>
      <point x="95" y="438"/>
      <point x="69" y="374"/>
      <point x="60" y="328" type="curve"/>
      <point x="59" y="328" type="line"/>
      <point x="60" y="586"/>
      <point x="101" y="698"/>
      <point x="169" y="698" type="curve" smooth="yes"/>
      <point x="185" y="698"/>
      <point x="199" y="692"/>
      <point x="211" y="684" type="curve"/>
      <point x="211" y="710" type="line"/>
      <point x="199" y="718"/>
      <point x="184" y="723"/>
      <point x="169" y="723" type="curve" smooth="yes"/>
      <point x="87" y="723"/>
      <point x="35" y="617"/>
      <point x="35" y="305" type="curve" smooth="yes"/>
      <point x="35" y="119"/>
      <point x="67" y="-12"/>
    </contour>
    <contour>
      <point x="137" y="13" type="curve" smooth="yes"/>
      <point x="76" y="13"/>
      <point x="61" y="169"/>
      <point x="61" y="248" type="curve" smooth="yes"/>
      <point x="61" y="335"/>
      <point x="91" y="413"/>
      <point x="139" y="413" type="curve" smooth="yes"/>
      <point x="186" y="413"/>
      <point x="208" y="337"/>
      <point x="208" y="222" type="curve" smooth="yes"/>
      <point x="208" y="90"/>
      <point x="182" y="13"/>
    </contour>
  </outline>
</glyph>
<glyph name="seven" format="2">
  <advance width="300"/>
  <unicode hex="0037"/>
  <outline>
    <contour>
      <point x="77" y="0" type="line"/>
      <point x="103" y="0" type="line"/>
      <point x="231" y="695" type="line"/>
      <point x="231" y="714" type="line"/>
      <point x="32" y="714" type="line"/>
      <point x="32" y="689" type="line"/>
      <point x="205" y="689" type="line"/>
    </contour>
  </outline>
</glyph>
<glyph name="eight" format="2">
  <advance width="300"/>
  <unicode hex="0038"/>
  <outline>
    <contour>
      <point x="134" y="-10" type="curve" smooth="yes"/>
      <point x="194" y="-10"/>
      <point x="235" y="65"/>
      <point x="235" y="177" type="curve" smooth="yes"/>
      <point x="235" y="276"/>
      <point x="205" y="330"/>
      <point x="155" y="380" type="curve"/>
      <point x="197" y="422"/>
      <point x="225" y="470"/>
      <point x="225" y="563" type="curve" smooth="yes"/>
      <point x="225" y="661"/>
      <point x="190" y="724"/>
      <point x="135" y="724" type="curve" smooth="yes"/>
      <point x="83" y="724"/>
      <point x="47" y="659"/>
      <point x="47" y="563" type="curve" smooth="yes"/>
      <point x="47" y="471"/>
      <point x="74" y="421"/>
      <point x="114" y="380" type="curve"/>
      <point x="68" y="339"/>
      <point x="36" y="280"/>
      <point x="36" y="173" type="curve" smooth="yes"/>
      <point x="36" y="66"/>
      <point x="76" y="-10"/>
    </contour>
    <contour>
      <point x="135" y="15" type="curve" smooth="yes"/>
      <point x="90" y="15"/>
      <point x="60" y="75"/>
      <point x="60" y="172" type="curve" smooth="yes"/>
      <point x="60" y="275"/>
      <point x="91" y="327"/>
      <point x="134" y="367" type="curve"/>
      <point x="191" y="311"/>
      <point x="211" y="262"/>
      <point x="211" y="176" type="curve" smooth="yes"/>
      <point x="211" y="78"/>
      <point x="181" y="15"/>
    </contour>
    <contour>
      <point x="135" y="393" type="curve"/>
      <point x="94" y="436"/>
      <point x="70" y="482"/>
      <point x="70" y="563" type="curve" smooth="yes"/>
      <point x="70" y="647"/>
      <point x="97" y="698"/>
      <point x="135" y="698" type="curve" smooth="yes"/>
      <point x="177" y="698"/>
      <point x="201" y="650"/>
      <point x="201" y="563" type="curve" smooth="yes"/>
      <point x="201" y="477"/>
      <point x="175" y="433"/>
    </contour>
  </outline>
</glyph>
<glyph name="nine" format="2">
  <advance width="300"/>
  <unicode hex="0039"/>
  <outline>
    <contour>
      <point x="100" y="-10" type="curve" smooth="yes"/>
      <point x="182" y="-10"/>
      <point x="234" y="96"/>
      <point x="234" y="408" type="curve" smooth="yes"/>
      <point x="234" y="594"/>
      <point x="203" y="725"/>
      <point x="132" y="725" type="curve" smooth="yes"/>
      <point x="71" y="725"/>
      <point x="37" y="636"/>
      <point x="37" y="492" type="curve" smooth="yes"/>
      <point x="37" y="363"/>
      <point x="69" y="276"/>
      <point x="126" y="276" type="curve" smooth="yes"/>
      <point x="174" y="276"/>
      <point x="199" y="336"/>
      <point x="209" y="380" type="curve"/>
      <point x="211" y="380" type="line"/>
      <point x="208" y="131"/>
      <point x="166" y="16"/>
      <point x="100" y="16" type="curve" smooth="yes"/>
      <point x="84" y="16"/>
      <point x="67" y="22"/>
      <point x="56" y="30" type="curve"/>
      <point x="56" y="3" type="line"/>
      <point x="67" y="-5"/>
      <point x="84" y="-10"/>
    </contour>
    <contour>
      <point x="130" y="301" type="curve" smooth="yes"/>
      <point x="84" y="301"/>
      <point x="61" y="376"/>
      <point x="61" y="491" type="curve" smooth="yes"/>
      <point x="61" y="623"/>
      <point x="87" y="700"/>
      <point x="133" y="700" type="curve" smooth="yes"/>
      <point x="194" y="700"/>
      <point x="208" y="545"/>
      <point x="208" y="466" type="curve" smooth="yes"/>
      <point x="208" y="379"/>
      <point x="178" y="301"/>
    </contour>
  </outline>
</glyph>
<glyph name="colon" format="2">
  <advance width="300"/>
  <unicode hex="003A"/>
  <outline>
    <contour>
      <point x="135" y="463" type="curve" smooth="yes"/>
      <point x="148" y="463"/>
      <point x="154" y="479"/>
      <point x="154" y="498" type="curve" smooth="yes"/>
      <point x="154" y="516"/>
      <point x="149" y="533"/>
      <point x="135" y="533" type="curve" smooth="yes"/>
      <point x="120" y="533"/>
      <point x="115" y="516"/>
      <point x="115" y="498" type="curve" smooth="yes"/>
      <point x="115" y="479"/>
      <point x="121" y="463"/>
    </contour>
    <contour>
      <point x="135" y="-12" type="curve" smooth="yes"/>
      <point x="148" y="-12"/>
      <point x="154" y="4"/>
      <point x="154" y="23" type="curve" smooth="yes"/>
      <point x="154" y="41"/>
      <point x="148" y="58"/>
      <point x="135" y="58" type="curve" smooth="yes"/>
      <point x="120" y="58"/>
      <point x="115" y="41"/>
      <point x="115" y="23" type="curve" smooth="yes"/>
      <point x="115" y="4"/>
      <point x="121" y="-12"/>
    </contour>
  </outline>
</glyph>
<glyph name="semicolon" format="2">
  <advance width="300"/>
  <unicode hex="003B"/>
  <outline>
    <contour>
      <point x="98" y="-129" type="curve"/>
      <point x="116" y="-129" type="line"/>
      <point x="132" y="-59"/>
      <point x="143" y="28"/>
      <point x="151" y="96" type="curve"/>
      <point x="149" y="109" type="line"/>
      <point x="125" y="109" type="line"/>
      <point x="119" y="31"/>
      <point x="112" y="-23"/>
    </contour>
    <contour>
      <point x="135" y="466" type="curve" smooth="yes"/>
      <point x="148" y="466"/>
      <point x="153" y="479"/>
      <point x="153" y="499" type="curve" smooth="yes"/>
      <point x="153" y="519"/>
      <point x="148" y="532"/>
      <point x="135" y="532" type="curve" smooth="yes"/>
      <point x="122" y="532"/>
      <point x="117" y="517"/>
      <point x="117" y="499" type="curve" smooth="yes"/>
      <point x="117" y="480"/>
      <point x="122" y="466"/>
    </contour>
  </outline>
</glyph>
<glyph name="greater" format="2">
  <advance width="300"/>
  <unicode hex="003E"/>
  <outline>
    <contour>
      <point x="32" y="143" type="line"/>
      <point x="236" y="354" type="line"/>
      <point x="236" y="374" type="line"/>
      <point x="32" y="572" type="line"/>
      <point x="32" y="545" type="line"/>
      <point x="210" y="364" type="line"/>
      <point x="32" y="170" type="line"/>
    </contour>
  </outline>
</glyph>
<glyph name="question" format="2">
  <advance width="300"/>
  <unicode hex="003F"/>
  <outline>
    <contour>
      <point x="106" y="174" type="line"/>
      <point x="126" y="174" type="line"/>
      <point x="126" y="189" type="line" smooth="yes"/>
      <point x="126" y="268"/>
      <point x="133" y="304"/>
      <point x="158" y="357" type="curve"/>
      <point x="189" y="413"/>
      <point x="212" y="461"/>
      <point x="212" y="560" type="curve" smooth="yes"/>
      <point x="212" y="671"/>
      <point x="180" y="724"/>
      <point x="129" y="724" type="curve" smooth="yes"/>
      <point x="102" y="724"/>
      <point x="81" y="713"/>
      <point x="58" y="692" type="curve"/>
      <point x="67" y="669" type="line"/>
      <point x="86" y="689"/>
      <point x="105" y="699"/>
      <point x="127" y="699" type="curve" smooth="yes"/>
      <point x="165" y="699"/>
      <point x="189" y="656"/>
      <point x="189" y="561" type="curve" smooth="yes"/>
      <point x="189" y="473"/>
      <point x="170" y="430"/>
      <point x="142" y="372" type="curve" smooth="yes"/>
      <point x="114" y="316"/>
      <point x="106" y="280"/>
      <point x="106" y="190" type="curve" smooth="yes"/>
    </contour>
    <contour>
      <point x="116" y="-12" type="curve" smooth="yes"/>
      <point x="129" y="-12"/>
      <point x="135" y="2"/>
      <point x="135" y="23" type="curve" smooth="yes"/>
      <point x="135" y="43"/>
      <point x="130" y="58"/>
      <point x="116" y="58" type="curve" smooth="yes"/>
      <point x="102" y="58"/>
      <point x="97" y="41"/>
      <point x="97" y="22" type="curve" smooth="yes"/>
      <point x="97" y="3"/>
      <point x="102" y="-12"/>
    </contour>
  </outline>
</glyph>
<glyph name="at" format="2">
  <advance width="300"/>
  <unicode hex="0040"/>
  <outline>
    <contour>
      <point x="145" y="-89" type="curve" smooth="yes"/>
      <point x="173" y="-89"/>
      <point x="200" y="-74"/>
      <point x="223" y="-49" type="curve"/>
      <point x="223" y="-21" type="line"/>
      <point x="198" y="-49"/>
      <point x="171" y="-64"/>
      <point x="145" y="-64" type="curve" smooth="yes"/>
      <point x="68" y="-64"/>
      <point x="25" y="72"/>
      <point x="25" y="292" type="curve" smooth="yes"/>
      <point x="25" y="545"/>
      <point x="73" y="688"/>
      <point x="144" y="688" type="curve" smooth="yes"/>
      <point x="211" y="688"/>
      <point x="245" y="559"/>
      <point x="245" y="353" type="curve" smooth="yes"/>
      <point x="245" y="232"/>
      <point x="235" y="139"/>
      <point x="211" y="139" type="curve" smooth="yes"/>
      <point x="193" y="139"/>
      <point x="187" y="180"/>
      <point x="187" y="257" type="curve" smooth="yes"/>
      <point x="187" y="285"/>
      <point x="188" y="324"/>
      <point x="189" y="348" type="curve" smooth="yes"/>
      <point x="193" y="493" type="line"/>
      <point x="179" y="506"/>
      <point x="162" y="513"/>
      <point x="148" y="513" type="curve" smooth="yes"/>
      <point x="100" y="513"/>
      <point x="72" y="419"/>
      <point x="72" y="287" type="curve" smooth="yes"/>
      <point x="72" y="179"/>
      <point x="91" y="114"/>
      <point x="125" y="114" type="curve" smooth="yes"/>
      <point x="146" y="114"/>
      <point x="165" y="144"/>
      <point x="173" y="197" type="curve"/>
      <point x="175" y="197" type="line"/>
      <point x="177" y="146"/>
      <point x="191" y="114"/>
      <point x="212" y="114" type="curve" smooth="yes"/>
      <point x="247" y="114"/>
      <point x="264" y="221"/>
      <point x="264" y="356" type="curve" smooth="yes"/>
      <point x="264" y="576"/>
      <point x="219" y="713"/>
      <point x="143" y="713" type="curve" smooth="yes"/>
      <point x="62" y="713"/>
      <point x="5" y="562"/>
      <point x="5" y="294" type="curve" smooth="yes"/>
      <point x="5" y="59"/>
      <point x="55" y="-89"/>
    </contour>
    <contour>
      <point x="128" y="139" type="curve" smooth="yes"/>
      <point x="105" y="139"/>
      <point x="92" y="195"/>
      <point x="92" y="288" type="curve" smooth="yes"/>
      <point x="92" y="412"/>
      <point x="113" y="488"/>
      <point x="147" y="488" type="curve" smooth="yes"/>
      <point x="156" y="488"/>
      <point x="165" y="483"/>
      <point x="172" y="473" type="curve"/>
      <point x="169" y="323" type="line" smooth="yes"/>
      <point x="166" y="195"/>
      <point x="152" y="139"/>
    </contour>
  </outline>
</glyph>
<glyph name="A" format="2">
  <advance width="300"/>
  <unicode hex="0041"/>
  <anchor x="135" y="0" name="bottom"/>
  <anchor x="237" y="10" name="ogonek"/>
  <anchor x="132" y="736" name="top"/>
  <anchor x="254" y="714" name="topright"/>
  <outline>
    <contour>
      <point x="15" y="0" type="line"/>
      <point x="39" y="0" type="line"/>
      <point x="122" y="603" type="line" smooth="yes"/>
      <point x="126" y="633"/>
      <point x="130" y="659"/>
      <point x="134" y="689" type="curve"/>
      <point x="139" y="656"/>
      <point x="143" y="631"/>
      <point x="147" y="603" type="curve" smooth="yes"/>
      <point x="231" y="0" type="line"/>
      <point x="255" y="0" type="line"/>
      <point x="149" y="715" type="line"/>
      <point x="119" y="715" type="line"/>
    </contour>
    <contour>
      <point x="68" y="276" type="line"/>
      <point x="202" y="276" type="line"/>
      <point x="199" y="301" type="line"/>
      <point x="72" y="301" type="line"/>
    </contour>
  </outline>
</glyph>
<glyph name="B" format="2">
  <advance width="300"/>
  <unicode hex="0042"/>
  <anchor x="135" y="0" name="bottom"/>
  <anchor x="135" y="714" name="top"/>
  <anchor x="255" y="714" name="topright"/>
  <outline>
    <contour>
      <point x="51" y="0" type="line"/>
      <point x="134" y="0" type="line" smooth="yes"/>
      <point x="200" y="0"/>
      <point x="243" y="66"/>
      <point x="243" y="200" type="curve" smooth="yes"/>
      <point x="243" y="293"/>
      <point x="222" y="357"/>
      <point x="173" y="376" type="curve"/>
      <point x="173" y="377" type="line"/>
      <point x="212" y="392"/>
      <point x="234" y="460"/>
      <point x="234" y="546" type="curve" smooth="yes"/>
      <point x="234" y="658"/>
      <point x="200" y="714"/>
      <point x="127" y="714" type="curve" smooth="yes"/>
      <point x="51" y="714" type="line"/>
    </contour>
    <contour>
      <point x="73" y="25" type="line"/>
      <point x="73" y="363" type="line"/>
      <point x="127" y="363" type="line" smooth="yes"/>
      <point x="185" y="363"/>
      <point x="219" y="324"/>
      <point x="219" y="200" type="curve" smooth="yes"/>
      <point x="219" y="80"/>
      <point x="187" y="25"/>
      <point x="131" y="25" type="curve" smooth="yes"/>
    </contour>
    <contour>
      <point x="73" y="388" type="line"/>
      <point x="73" y="689" type="line"/>
      <point x="123" y="689" type="line" smooth="yes"/>
      <point x="186" y="689"/>
      <point x="211" y="645"/>
      <point x="211" y="546" type="curve" smooth="yes"/>
      <point x="211" y="441"/>
      <point x="183" y="388"/>
      <point x="127" y="388" type="curve" smooth="yes"/>
    </contour>
  </outline>
</glyph>
<glyph name="C" format="2">
  <advance width="300"/>
  <unicode hex="0043"/>
  <anchor x="161" y="0" name="bottom"/>
  <anchor x="166" y="714" name="top"/>
  <anchor x="255" y="714" name="topright"/>
  <outline>
    <contour>
      <point x="169" y="-10" type="curve" smooth="yes"/>
      <point x="199" y="-10"/>
      <point x="224" y="2"/>
      <point x="243" y="17" type="curve"/>
      <point x="243" y="44" type="line"/>
      <point x="224" y="29"/>
      <point x="201" y="15"/>
      <point x="170" y="15" type="curve" smooth="yes"/>
      <point x="97" y="15"/>
      <point x="57" y="154"/>
      <point x="57" y="359" type="curve" smooth="yes"/>
      <point x="57" y="542"/>
      <point x="96" y="699"/>
      <point x="174" y="699" type="curve" smooth="yes"/>
      <point x="196" y="699"/>
      <point x="218" y="694"/>
      <point x="240" y="669" type="curve"/>
      <point x="250" y="692" type="line"/>
      <point x="225" y="714"/>
      <point x="202" y="724"/>
      <point x="172" y="724" type="curve" smooth="yes"/>
      <point x="80" y="724"/>
      <point x="34" y="558"/>
      <point x="34" y="359" type="curve" smooth="yes"/>
      <point x="34" y="135"/>
      <point x="83" y="-10"/>
    </contour>
  </outline>
</glyph>
<glyph name="D" format="2">
  <advance width="300"/>
  <unicode hex="0044"/>
  <anchor x="108" y="0" name="bottom"/>
  <anchor x="136" y="357" name="center"/>
  <anchor x="127" y="714" name="top"/>
  <anchor x="265" y="714" name="topright"/>
  <outline>
    <contour>
      <point x="36" y="0" type="line"/>
      <point x="108" y="0" type="line" smooth="yes"/>
      <point x="200" y="0"/>
      <point x="242" y="123"/>
      <point x="242" y="362" type="curve" smooth="yes"/>
      <point x="242" y="595"/>
      <point x="200" y="714"/>
      <point x="110" y="714" type="curve" smooth="yes"/>
      <point x="36" y="714" type="line"/>
    </contour>
    <contour>
      <point x="60" y="25" type="line"/>
      <point x="60" y="689" type="line"/>
      <point x="106" y="689" type="line" smooth="yes"/>
      <point x="189" y="689"/>
      <point x="218" y="569"/>
      <point x="218" y="360" type="curve" smooth="yes"/>
      <point x="218" y="140"/>
      <point x="185" y="25"/>
      <point x="105" y="25" type="curve" smooth="yes"/>
    </contour>
  </outline>
</glyph>
<glyph name="E" format="2">
  <advance width="300"/>
  <unicode hex="0045"/>
  <anchor x="138" y="0" name="bottom"/>
  <anchor x="194" y="10" name="ogonek"/>
  <anchor x="135" y="714" name="top"/>
  <anchor x="17" y="714" name="topleft"/>
  <anchor x="255" y="714" name="topright"/>
  <outline>
    <contour>
      <point x="51" y="0" type="line"/>
      <point x="222" y="0" type="line"/>
      <point x="222" y="25" type="line"/>
      <point x="74" y="25" type="line"/>
      <point x="74" y="364" type="line"/>
      <point x="213" y="364" type="line"/>
      <point x="213" y="389" type="line"/>
      <point x="74" y="389" type="line"/>
      <point x="74" y="689" type="line"/>
      <point x="222" y="689" type="line"/>
      <point x="222" y="714" type="line"/>
      <point x="51" y="714" type="line"/>
    </contour>
  </outline>
</glyph>
<glyph name="F" format="2">
  <advance width="300"/>
  <unicode hex="0046"/>
  <anchor x="139" y="0" name="bottom"/>
  <anchor x="137" y="714" name="top"/>
  <anchor x="255" y="714" name="topright"/>
  <outline>
    <contour>
      <point x="51" y="0" type="line"/>
      <point x="74" y="0" type="line"/>
      <point x="74" y="329" type="line"/>
      <point x="214" y="329" type="line"/>
      <point x="214" y="354" type="line"/>
      <point x="74" y="354" type="line"/>
      <point x="74" y="689" type="line"/>
      <point x="222" y="689" type="line"/>
      <point x="222" y="714" type="line"/>
      <point x="51" y="714" type="line"/>
    </contour>
  </outline>
</glyph>
<glyph name="G" format="2">
  <advance width="300"/>
  <unicode hex="0047"/>
  <anchor x="151" y="0" name="bottom"/>
  <anchor x="144" y="714" name="top"/>
  <anchor x="254" y="714" name="topright"/>
  <outline>
    <contour>
      <point x="157" y="-10" type="curve" smooth="yes"/>
      <point x="185" y="-10"/>
      <point x="214" y="2"/>
      <point x="233" y="24" type="curve"/>
      <point x="233" y="351" type="line"/>
      <point x="146" y="351" type="line"/>
      <point x="146" y="326" type="line"/>
      <point x="212" y="326" type="line"/>
      <point x="212" y="40" type="line"/>
      <point x="200" y="27"/>
      <point x="180" y="15"/>
      <point x="158" y="15" type="curve" smooth="yes"/>
      <point x="82" y="15"/>
      <point x="51" y="156"/>
      <point x="51" y="362" type="curve" smooth="yes"/>
      <point x="51" y="556"/>
      <point x="80" y="699"/>
      <point x="157" y="699" type="curve" smooth="yes"/>
      <point x="177" y="699"/>
      <point x="198" y="691"/>
      <point x="218" y="661" type="curve"/>
      <point x="227" y="681" type="line"/>
      <point x="207" y="715"/>
      <point x="179" y="724"/>
      <point x="155" y="724" type="curve" smooth="yes"/>
      <point x="66" y="724"/>
      <point x="28" y="574"/>
      <point x="28" y="358" type="curve" smooth="yes"/>
      <point x="28" y="141"/>
      <point x="65" y="-10"/>
    </contour>
  </outline>
</glyph>
<glyph name="H" format="2">
  <advance width="300"/>
  <unicode hex="0048"/>
  <anchor x="135" y="0" name="bottom"/>
  <anchor x="135" y="375" name="center"/>
  <anchor x="135" y="714" name="top"/>
  <anchor x="17" y="714" name="topleft"/>
  <anchor x="265" y="714" name="topright"/>
  <outline>
    <contour>
      <point x="36" y="0" type="line"/>
      <point x="60" y="0" type="line"/>
      <point x="60" y="363" type="line"/>
      <point x="212" y="363" type="line"/>
      <point x="212" y="0" type="line"/>
      <point x="234" y="0" type="line"/>
      <point x="234" y="714" type="line"/>
      <point x="212" y="714" type="line"/>
      <point x="212" y="388" type="line"/>
      <point x="60" y="388" type="line"/>
      <point x="60" y="714" type="line"/>
      <point x="36" y="714" type="line"/>
    </contour>
  </outline>
</glyph>
<glyph name="I" format="2">
  <advance width="300"/>
  <unicode hex="0049"/>
  <anchor x="135" y="0" name="bottom"/>
  <anchor x="157" y="10" name="ogonek"/>
  <anchor x="135" y="714" name="top"/>
  <anchor x="15" y="714" name="topleft"/>
  <anchor x="254" y="714" name="topright"/>
  <outline>
    <contour>
      <point x="61" y="0" type="line"/>
      <point x="208" y="0" type="line"/>
      <point x="208" y="20" type="line"/>
      <point x="146" y="23" type="line"/>
      <point x="146" y="690" type="line"/>
      <point x="208" y="694" type="line"/>
      <point x="208" y="714" type="line"/>
      <point x="61" y="714" type="line"/>
      <point x="61" y="694" type="line"/>
      <point x="122" y="690" type="line"/>
      <point x="122" y="23" type="line"/>
      <point x="61" y="20" type="line"/>
    </contour>
  </outline>
</glyph>
<glyph name="J" format="2">
  <advance width="300"/>
  <unicode hex="004A"/>
  <anchor x="135" y="0" name="bottom"/>
  <anchor x="186" y="714" name="top"/>
  <anchor x="255" y="714" name="topright"/>
  <outline>
    <contour>
      <point x="106" y="-15" type="curve" smooth="yes"/>
      <point x="172" y="-15"/>
      <point x="198" y="58"/>
      <point x="198" y="196" type="curve" smooth="yes"/>
      <point x="198" y="714" type="line"/>
      <point x="174" y="714" type="line"/>
      <point x="174" y="204" type="line" smooth="yes"/>
      <point x="174" y="71"/>
      <point x="155" y="10"/>
      <point x="105" y="10" type="curve" smooth="yes"/>
      <point x="78" y="10"/>
      <point x="55" y="27"/>
      <point x="35" y="48" type="curve"/>
      <point x="35" y="19" type="line"/>
      <point x="56" y="-1"/>
      <point x="80" y="-15"/>
    </contour>
  </outline>
</glyph>
<glyph name="K" format="2">
  <advance width="300"/>
  <unicode hex="004B"/>
  <anchor x="136" y="0" name="bottom"/>
  <anchor x="135" y="714" name="top"/>
  <anchor x="255" y="714" name="topright"/>
  <outline>
    <contour>
      <point x="36" y="0" type="line"/>
      <point x="59" y="0" type="line"/>
      <point x="59" y="283" type="line"/>
      <point x="103" y="389" type="line"/>
      <point x="211" y="0" type="line"/>
      <point x="239" y="0" type="line"/>
      <point x="120" y="410" type="line"/>
      <point x="238" y="714" type="line"/>
      <point x="210" y="714" type="line"/>
      <point x="92" y="395" type="line" smooth="yes"/>
      <point x="80" y="362"/>
      <point x="71" y="346"/>
      <point x="59" y="321" type="curve"/>
      <point x="59" y="714" type="line"/>
      <point x="36" y="714" type="line"/>
    </contour>
  </outline>
</glyph>
<glyph name="L" format="2">
  <advance width="300"/>
  <unicode hex="004C"/>
  <anchor x="141" y="0" name="bottom"/>
  <anchor x="134" y="357" name="center"/>
  <anchor x="61" y="714" name="top"/>
  <anchor x="194" y="714" name="topright"/>
  <outline>
    <contour>
      <point x="50" y="0" type="line"/>
      <point x="220" y="0" type="line"/>
      <point x="220" y="25" type="line"/>
      <point x="73" y="25" type="line"/>
      <point x="73" y="714" type="line"/>
      <point x="50" y="714" type="line"/>
    </contour>
  </outline>
</glyph>
<glyph name="M" format="2">
  <advance width="300"/>
  <unicode hex="004D"/>
  <anchor x="135" y="0" name="bottom"/>
  <anchor x="138" y="714" name="top"/>
  <anchor x="265" y="714" name="topright"/>
  <outline>
    <contour>
      <point x="25" y="0" type="line"/>
      <point x="47" y="0" type="line"/>
      <point x="47" y="581" type="line" smooth="yes"/>
      <point x="47" y="611"/>
      <point x="45" y="622"/>
      <point x="44" y="670" type="curve"/>
      <point x="45" y="670" type="line"/>
      <point x="122" y="187" type="line"/>
      <point x="147" y="187" type="line"/>
      <point x="225" y="669" type="line"/>
      <point x="226" y="669" type="line"/>
      <point x="225" y="638"/>
      <point x="225" y="608"/>
      <point x="225" y="577" type="curve" smooth="yes"/>
      <point x="225" y="0" type="line"/>
      <point x="246" y="0" type="line"/>
      <point x="246" y="714" type="line"/>
      <point x="212" y="714" type="line"/>
      <point x="135" y="219" type="line"/>
      <point x="134" y="219" type="line"/>
      <point x="58" y="714" type="line"/>
      <point x="25" y="714" type="line"/>
    </contour>
  </outline>
</glyph>
<glyph name="N" format="2">
  <advance width="300"/>
  <unicode hex="004E"/>
  <anchor x="135" y="0" name="bottom"/>
  <anchor x="138" y="714" name="top"/>
  <anchor x="265" y="714" name="topright"/>
  <outline>
    <contour>
      <point x="36" y="0" type="line"/>
      <point x="58" y="0" type="line"/>
      <point x="58" y="548" type="line" smooth="yes"/>
      <point x="58" y="604"/>
      <point x="58" y="637"/>
      <point x="57" y="664" type="curve"/>
      <point x="58" y="664" type="line"/>
      <point x="206" y="0" type="line"/>
      <point x="234" y="0" type="line"/>
      <point x="234" y="714" type="line"/>
      <point x="212" y="714" type="line"/>
      <point x="212" y="181" type="line" smooth="yes"/>
      <point x="212" y="152"/>
      <point x="214" y="99"/>
      <point x="215" y="54" type="curve"/>
      <point x="213" y="54" type="line"/>
      <point x="66" y="714" type="line"/>
      <point x="36" y="714" type="line"/>
    </contour>
  </outline>
</glyph>
<glyph name="O" format="2">
  <advance width="300"/>
  <unicode hex="004F"/>
  <anchor x="135" y="0" name="bottom"/>
  <anchor x="135" y="357" name="center"/>
  <anchor x="135" y="10" name="ogonek"/>
  <anchor x="135" y="714" name="top"/>
  <anchor x="16" y="714" name="topleft"/>
  <anchor x="264" y="714" name="topright"/>
  <outline>
    <contour>
      <point x="135" y="-10" type="curve" smooth="yes"/>
      <point x="218" y="-10"/>
      <point x="242" y="165"/>
      <point x="242" y="358" type="curve" smooth="yes"/>
      <point x="242" y="570"/>
      <point x="213" y="724"/>
      <point x="135" y="724" type="curve" smooth="yes"/>
      <point x="65" y="724"/>
      <point x="28" y="602"/>
      <point x="28" y="358" type="curve" smooth="yes"/>
      <point x="28" y="173"/>
      <point x="52" y="-10"/>
    </contour>
    <contour>
      <point x="135" y="15" type="curve" smooth="yes"/>
      <point x="80" y="15"/>
      <point x="51" y="141"/>
      <point x="51" y="358" type="curve" smooth="yes"/>
      <point x="51" y="574"/>
      <point x="78" y="699"/>
      <point x="135" y="699" type="curve" smooth="yes"/>
      <point x="192" y="699"/>
      <point x="218" y="577"/>
      <point x="218" y="358" type="curve" smooth="yes"/>
      <point x="218" y="135"/>
      <point x="192" y="15"/>
    </contour>
  </outline>
</glyph>
<glyph name="P" format="2">
  <advance width="300"/>
  <unicode hex="0050"/>
  <anchor x="135" y="0" name="bottom"/>
  <anchor x="135" y="714" name="top"/>
  <anchor x="265" y="714" name="topright"/>
  <outline>
    <contour>
      <point x="51" y="0" type="line"/>
      <point x="74" y="0" type="line"/>
      <point x="74" y="306" type="line"/>
      <point x="134" y="306" type="line" smooth="yes"/>
      <point x="207" y="306"/>
      <point x="243" y="372"/>
      <point x="243" y="515" type="curve" smooth="yes"/>
      <point x="243" y="663"/>
      <point x="204" y="714"/>
      <point x="133" y="714" type="curve" smooth="yes"/>
      <point x="51" y="714" type="line"/>
    </contour>
    <contour>
      <point x="74" y="331" type="line"/>
      <point x="74" y="689" type="line"/>
      <point x="129" y="689" type="line" smooth="yes"/>
      <point x="190" y="689"/>
      <point x="219" y="645"/>
      <point x="219" y="516" type="curve" smooth="yes"/>
      <point x="219" y="385"/>
      <point x="190" y="331"/>
      <point x="130" y="331" type="curve" smooth="yes"/>
    </contour>
  </outline>
</glyph>
<glyph name="Q" format="2">
  <advance width="300"/>
  <unicode hex="0051"/>
  <anchor x="131" y="-210" name="bottom"/>
  <anchor x="131" y="714" name="top"/>
  <anchor x="259" y="714" name="topright"/>
  <anchor x="17" y="714" name="topleft"/>
  <anchor x="136" y="10" name="ogonek"/>
  <anchor x="136" y="357" name="center"/>
  <outline>
    <contour>
      <point x="203" y="-170" type="line"/>
      <point x="228" y="-170" type="line"/>
      <point x="178" y="16" type="line"/>
      <point x="158" y="12" type="line"/>
    </contour>
    <component base="O" xOffset="1"/>
  </outline>
</glyph>
<glyph name="R" format="2">
  <advance width="300"/>
  <unicode hex="0052"/>
  <anchor x="147" y="0" name="bottom"/>
  <anchor x="135" y="714" name="top"/>
  <anchor x="255" y="714" name="topright"/>
  <outline>
    <contour>
      <point x="51" y="0" type="line"/>
      <point x="74" y="0" type="line"/>
      <point x="74" y="321" type="line"/>
      <point x="142" y="321" type="line"/>
      <point x="224" y="0" type="line"/>
      <point x="251" y="0" type="line"/>
      <point x="164" y="328" type="line"/>
      <point x="209" y="352"/>
      <point x="235" y="416"/>
      <point x="235" y="525" type="curve" smooth="yes"/>
      <point x="235" y="671"/>
      <point x="193" y="714"/>
      <point x="119" y="714" type="curve" smooth="yes"/>
      <point x="51" y="714" type="line"/>
    </contour>
    <contour>
      <point x="74" y="347" type="line"/>
      <point x="74" y="689" type="line"/>
      <point x="117" y="689" type="line" smooth="yes"/>
      <point x="181" y="689"/>
      <point x="211" y="647"/>
      <point x="211" y="526" type="curve" smooth="yes"/>
      <point x="211" y="404"/>
      <point x="176" y="347"/>
      <point x="124" y="347" type="curve" smooth="yes"/>
    </contour>
  </outline>
</glyph>
<glyph name="S" format="2">
  <advance width="300"/>
  <unicode hex="0053"/>
  <anchor x="134" y="0" name="bottom"/>
  <anchor x="138" y="714" name="top"/>
  <anchor x="254" y="714" name="topright"/>
  <outline>
    <contour>
      <point x="123" y="-10" type="curve" smooth="yes"/>
      <point x="185" y="-10"/>
      <point x="225" y="55"/>
      <point x="225" y="183" type="curve" smooth="yes"/>
      <point x="225" y="298"/>
      <point x="194" y="328"/>
      <point x="141" y="376" type="curve" smooth="yes"/>
      <point x="101" y="412"/>
      <point x="70" y="441"/>
      <point x="70" y="546" type="curve" smooth="yes"/>
      <point x="70" y="647"/>
      <point x="96" y="699"/>
      <point x="142" y="699" type="curve" smooth="yes"/>
      <point x="159" y="699"/>
      <point x="183" y="693"/>
      <point x="207" y="669" type="curve"/>
      <point x="216" y="692" type="line"/>
      <point x="193" y="712"/>
      <point x="166" y="724"/>
      <point x="142" y="724" type="curve" smooth="yes"/>
      <point x="85" y="724"/>
      <point x="46" y="664"/>
      <point x="46" y="543" type="curve" smooth="yes"/>
      <point x="46" y="427"/>
      <point x="81" y="394"/>
      <point x="126" y="353" type="curve" smooth="yes"/>
      <point x="176" y="307"/>
      <point x="201" y="282"/>
      <point x="201" y="182" type="curve" smooth="yes"/>
      <point x="201" y="74"/>
      <point x="174" y="16"/>
      <point x="123" y="16" type="curve" smooth="yes"/>
      <point x="96" y="16"/>
      <point x="67" y="30"/>
      <point x="45" y="46" type="curve"/>
      <point x="45" y="17" type="line"/>
      <point x="68" y="1"/>
      <point x="96" y="-10"/>
    </contour>
  </outline>
</glyph>
<glyph name="T" format="2">
  <advance width="300"/>
  <unicode hex="0054"/>
  <anchor x="135" y="0" name="bottom"/>
  <anchor x="135" y="357" name="center"/>
  <anchor x="135" y="714" name="top"/>
  <anchor x="255" y="714" name="topright"/>
  <outline>
    <contour>
      <point x="124" y="0" type="line"/>
      <point x="146" y="0" type="line"/>
      <point x="146" y="689" type="line"/>
      <point x="244" y="689" type="line"/>
      <point x="244" y="714" type="line"/>
      <point x="27" y="714" type="line"/>
      <point x="27" y="689" type="line"/>
      <point x="124" y="689" type="line"/>
    </contour>
  </outline>
</glyph>
<glyph name="U" format="2">
  <advance width="300"/>
  <unicode hex="0055"/>
  <anchor x="135" y="0" name="bottom"/>
  <anchor x="239" y="10" name="ogonek"/>
  <anchor x="135" y="714" name="top"/>
  <anchor x="255" y="714" name="topright"/>
  <outline>
    <contour>
      <point x="135" y="-10" type="curve" smooth="yes"/>
      <point x="196" y="-10"/>
      <point x="234" y="58"/>
      <point x="234" y="230" type="curve" smooth="yes"/>
      <point x="234" y="714" type="line"/>
      <point x="212" y="714" type="line"/>
      <point x="212" y="233" type="line" smooth="yes"/>
      <point x="212" y="78"/>
      <point x="183" y="15"/>
      <point x="135" y="15" type="curve" smooth="yes"/>
      <point x="87" y="15"/>
      <point x="60" y="84"/>
      <point x="60" y="239" type="curve" smooth="yes"/>
      <point x="60" y="714" type="line"/>
      <point x="36" y="714" type="line"/>
      <point x="36" y="236" type="line" smooth="yes"/>
      <point x="36" y="70"/>
      <point x="71" y="-10"/>
    </contour>
  </outline>
</glyph>
<glyph name="V" format="2">
  <advance width="300"/>
  <unicode hex="0056"/>
  <anchor x="135" y="0" name="bottom"/>
  <anchor x="135" y="714" name="top"/>
  <anchor x="254" y="714" name="topright"/>
  <outline>
    <contour>
      <point x="122" y="0" type="line"/>
      <point x="147" y="0" type="line"/>
      <point x="253" y="714" type="line"/>
      <point x="231" y="714" type="line"/>
      <point x="150" y="140" type="line" smooth="yes"/>
      <point x="144" y="100"/>
      <point x="139" y="67"/>
      <point x="134" y="34" type="curve"/>
      <point x="134" y="34" type="line"/>
      <point x="131" y="68"/>
      <point x="124" y="102"/>
      <point x="119" y="140" type="curve" smooth="yes"/>
      <point x="40" y="714" type="line"/>
      <point x="17" y="714" type="line"/>
    </contour>
  </outline>
</glyph>
<glyph name="W" format="2">
  <advance width="300"/>
  <unicode hex="0057"/>
  <anchor x="135" y="0" name="bottom"/>
  <anchor x="135" y="714" name="top"/>
  <anchor x="254" y="714" name="topright"/>
  <outline>
    <contour>
      <point x="63" y="0" type="line"/>
      <point x="93" y="0" type="line"/>
      <point x="126" y="375" type="line" smooth="yes"/>
      <point x="129" y="411"/>
      <point x="132" y="433"/>
      <point x="134" y="475" type="curve"/>
      <point x="136" y="475" type="line"/>
      <point x="138" y="433"/>
      <point x="141" y="410"/>
      <point x="144" y="375" type="curve" smooth="yes"/>
      <point x="178" y="0" type="line"/>
      <point x="207" y="0" type="line"/>
      <point x="253" y="714" type="line"/>
      <point x="230" y="714" type="line"/>
      <point x="220" y="526"/>
      <point x="209" y="339"/>
      <point x="199" y="151" type="curve" smooth="yes"/>
      <point x="197" y="109"/>
      <point x="194" y="73"/>
      <point x="192" y="26" type="curve"/>
      <point x="190" y="26" type="line"/>
      <point x="188" y="68"/>
      <point x="183" y="109"/>
      <point x="179" y="151" type="curve" smooth="yes"/>
      <point x="146" y="528" type="line"/>
      <point x="124" y="528" type="line"/>
      <point x="91" y="151" type="line" smooth="yes"/>
      <point x="87" y="110"/>
      <point x="84" y="70"/>
      <point x="80" y="29" type="curve"/>
      <point x="79" y="29" type="line"/>
      <point x="77" y="75"/>
      <point x="73" y="110"/>
      <point x="71" y="151" type="curve" smooth="yes"/>
      <point x="62" y="340"/>
      <point x="48" y="526"/>
      <point x="38" y="714" type="curve"/>
      <point x="17" y="714" type="line"/>
    </contour>
  </outline>
</glyph>
<glyph name="X" format="2">
  <advance width="300"/>
  <unicode hex="0058"/>
  <anchor x="139" y="0" name="bottom"/>
  <anchor x="139" y="714" name="top"/>
  <anchor x="254" y="714" name="topright"/>
  <outline>
    <contour>
      <point x="21" y="0" type="line"/>
      <point x="46" y="0" type="line"/>
      <point x="136" y="348" type="line"/>
      <point x="224" y="0" type="line"/>
      <point x="249" y="0" type="line"/>
      <point x="150" y="372" type="line"/>
      <point x="245" y="714" type="line"/>
      <point x="219" y="714" type="line"/>
      <point x="136" y="396" type="line"/>
      <point x="57" y="714" type="line"/>
      <point x="32" y="714" type="line"/>
      <point x="123" y="372" type="line"/>
    </contour>
  </outline>
</glyph>
<glyph name="Y" format="2">
  <advance width="300"/>
  <unicode hex="0059"/>
  <anchor x="135" y="0" name="bottom"/>
  <anchor x="135" y="714" name="top"/>
  <anchor x="16" y="714" name="topleft"/>
  <anchor x="254" y="714" name="topright"/>
  <outline>
    <contour>
      <point x="124" y="0" type="line"/>
      <point x="147" y="0" type="line"/>
      <point x="147" y="277" type="line"/>
      <point x="249" y="714" type="line"/>
      <point x="224" y="714" type="line"/>
      <point x="135" y="305" type="line"/>
      <point x="46" y="714" type="line"/>
      <point x="21" y="714" type="line"/>
      <point x="124" y="275" type="line"/>
    </contour>
  </outline>
</glyph>
<glyph name="Z" format="2">
  <advance width="300"/>
  <unicode hex="005A"/>
  <anchor x="149" y="0" name="bottom"/>
  <anchor x="142" y="714" name="top"/>
  <anchor x="255" y="714" name="topright"/>
  <outline>
    <contour>
      <point x="51" y="0" type="line"/>
      <point x="232" y="0" type="line"/>
      <point x="232" y="25" type="line"/>
      <point x="77" y="25" type="line"/>
      <point x="227" y="693" type="line"/>
      <point x="227" y="714" type="line"/>
      <point x="60" y="714" type="line"/>
      <point x="60" y="689" type="line"/>
      <point x="202" y="689" type="line"/>
      <point x="51" y="21" type="line"/>
    </contour>
  </outline>
</glyph>
<glyph name="bracketleft" format="2">
  <advance width="300"/>
  <unicode hex="005B"/>
  <outline>
    <contour>
      <point x="109" y="-158" type="line"/>
      <point x="212" y="-158" type="line"/>
      <point x="212" y="-134" type="line"/>
      <point x="130" y="-134" type="line"/>
      <point x="130" y="690" type="line"/>
      <point x="212" y="690" type="line"/>
      <point x="212" y="714" type="line"/>
      <point x="109" y="714" type="line"/>
    </contour>
  </outline>
</glyph>
<glyph name="asciicircum" format="2">
  <advance width="300"/>
  <unicode hex="005E"/>
  <outline>
    <contour>
      <point x="26" y="325" type="line"/>
      <point x="49" y="325" type="line"/>
      <point x="138" y="684" type="line"/>
      <point x="220" y="325" type="line"/>
      <point x="243" y="325" type="line"/>
      <point x="146" y="716" type="line"/>
      <point x="130" y="716" type="line"/>
    </contour>
  </outline>
</glyph>
<glyph name="underscore" format="2">
  <advance width="300"/>
  <unicode hex="005F"/>
  <outline>
    <contour>
      <point x="5" y="-113" type="line"/>
      <point x="264" y="-113" type="line"/>
      <point x="264" y="-88" type="line"/>
      <point x="5" y="-88" type="line"/>
    </contour>
  </outline>
</glyph>
<glyph name="grave" format="2">
  <advance width="300"/>
  <unicode hex="0060"/>
  <outline>
    <contour>
      <point x="150" y="606" type="curve"/>
      <point x="166" y="606" type="line"/>
      <point x="166" y="615" type="line"/>
      <point x="147" y="658"/>
      <point x="121" y="716"/>
      <point x="106" y="765" type="curve"/>
      <point x="79" y="765" type="line"/>
      <point x="79" y="758" type="line"/>
      <point x="96" y="710"/>
      <point x="128" y="647"/>
    </contour>
  </outline>
</glyph>
<glyph name="a" format="2">
  <advance width="300"/>
  <unicode hex="0061"/>
  <anchor x="136" y="0" name="bottom"/>
  <anchor x="239" y="10" name="ogonek"/>
  <anchor x="139" y="528" name="top"/>
  <anchor x="255" y="528" name="topright"/>
  <outline>
    <contour>
      <point x="118" y="-10" type="curve" smooth="yes"/>
      <point x="162" y="-10"/>
      <point x="184" y="43"/>
      <point x="197" y="98" type="curve"/>
      <point x="197" y="98" type="line"/>
      <point x="201" y="0" type="line"/>
      <point x="220" y="0" type="line"/>
      <point x="220" y="354" type="line" smooth="yes"/>
      <point x="220" y="485"/>
      <point x="193" y="537"/>
      <point x="139" y="537" type="curve" smooth="yes"/>
      <point x="113" y="537"/>
      <point x="87" y="524"/>
      <point x="64" y="502" type="curve"/>
      <point x="73" y="478" type="line"/>
      <point x="96" y="503"/>
      <point x="117" y="512"/>
      <point x="139" y="512" type="curve" smooth="yes"/>
      <point x="177" y="512"/>
      <point x="196" y="469"/>
      <point x="196" y="349" type="curve" smooth="yes"/>
      <point x="196" y="302" type="line"/>
      <point x="152" y="295" type="line" smooth="yes"/>
      <point x="84" y="284"/>
      <point x="44" y="234"/>
      <point x="44" y="129" type="curve" smooth="yes"/>
      <point x="44" y="51"/>
      <point x="69" y="-10"/>
    </contour>
    <contour>
      <point x="122" y="14" type="curve" smooth="yes"/>
      <point x="89" y="14"/>
      <point x="68" y="56"/>
      <point x="68" y="129" type="curve" smooth="yes"/>
      <point x="68" y="220"/>
      <point x="99" y="264"/>
      <point x="155" y="272" type="curve" smooth="yes"/>
      <point x="196" y="278" type="line"/>
      <point x="196" y="220" type="line" smooth="yes"/>
      <point x="196" y="98"/>
      <point x="172" y="14"/>
    </contour>
  </outline>
</glyph>
<glyph name="b" format="2">
  <advance width="300"/>
  <unicode hex="0062"/>
  <anchor x="135" y="0" name="bottom"/>
  <anchor x="135" y="760" name="top"/>
  <anchor x="254" y="760" name="topright"/>
  <outline>
    <contour>
      <point x="141" y="-10" type="curve" smooth="yes"/>
      <point x="205" y="-10"/>
      <point x="237" y="99"/>
      <point x="237" y="268" type="curve" smooth="yes"/>
      <point x="237" y="445"/>
      <point x="205" y="538"/>
      <point x="145" y="538" type="curve" smooth="yes"/>
      <point x="105" y="538"/>
      <point x="79" y="486"/>
      <point x="68" y="412" type="curve"/>
      <point x="68" y="412" type="line"/>
      <point x="68" y="437"/>
      <point x="68" y="476"/>
      <point x="68" y="503" type="curve" smooth="yes"/>
      <point x="68" y="760" type="line"/>
      <point x="45" y="760" type="line"/>
      <point x="45" y="0" type="line"/>
      <point x="63" y="0" type="line"/>
      <point x="67" y="101" type="line"/>
      <point x="68" y="101" type="line"/>
      <point x="81" y="36"/>
      <point x="104" y="-10"/>
    </contour>
    <contour>
      <point x="137" y="16" type="curve" smooth="yes"/>
      <point x="90" y="16"/>
      <point x="68" y="98"/>
      <point x="68" y="262" type="curve" smooth="yes"/>
      <point x="68" y="426"/>
      <point x="91" y="513"/>
      <point x="140" y="513" type="curve" smooth="yes"/>
      <point x="190" y="513"/>
      <point x="213" y="430"/>
      <point x="213" y="268" type="curve" smooth="yes"/>
      <point x="213" y="101"/>
      <point x="186" y="16"/>
    </contour>
  </outline>
</glyph>
<glyph name="c" format="2">
  <advance width="300"/>
  <unicode hex="0063"/>
  <anchor x="160" y="0" name="bottom"/>
  <anchor x="155" y="528" name="top"/>
  <anchor x="255" y="528" name="topright"/>
  <outline>
    <contour>
      <point x="161" y="-10" type="curve" smooth="yes"/>
      <point x="186" y="-10"/>
      <point x="209" y="-1"/>
      <point x="225" y="11" type="curve"/>
      <point x="225" y="37" type="line"/>
      <point x="208" y="23"/>
      <point x="183" y="15"/>
      <point x="163" y="15" type="curve" smooth="yes"/>
      <point x="102" y="15"/>
      <point x="76" y="120"/>
      <point x="76" y="259" type="curve" smooth="yes"/>
      <point x="76" y="418"/>
      <point x="110" y="513"/>
      <point x="168" y="513" type="curve" smooth="yes"/>
      <point x="186" y="513"/>
      <point x="204" y="507"/>
      <point x="220" y="493" type="curve"/>
      <point x="228" y="517" type="line"/>
      <point x="210" y="531"/>
      <point x="189" y="538"/>
      <point x="167" y="538" type="curve" smooth="yes"/>
      <point x="95" y="538"/>
      <point x="51" y="431"/>
      <point x="51" y="259" type="curve" smooth="yes"/>
      <point x="51" y="100"/>
      <point x="88" y="-10"/>
    </contour>
  </outline>
</glyph>
<glyph name="e" format="2">
  <advance width="300"/>
  <unicode hex="0065"/>
  <anchor x="141" y="0" name="bottom"/>
  <anchor x="144" y="10" name="ogonek"/>
  <anchor x="141" y="528" name="top"/>
  <anchor x="256" y="528" name="topright"/>
  <outline>
    <contour>
      <point x="152" y="-10" type="curve" smooth="yes"/>
      <point x="181" y="-10"/>
      <point x="205" y="2"/>
      <point x="226" y="23" type="curve"/>
      <point x="226" y="51" type="line"/>
      <point x="201" y="25"/>
      <point x="180" y="15"/>
      <point x="152" y="15" type="curve" smooth="yes"/>
      <point x="95" y="15"/>
      <point x="64" y="102"/>
      <point x="63" y="270" type="curve"/>
      <point x="236" y="270" type="line"/>
      <point x="236" y="296" type="line" smooth="yes"/>
      <point x="236" y="426"/>
      <point x="206" y="538"/>
      <point x="141" y="538" type="curve" smooth="yes"/>
      <point x="74" y="538"/>
      <point x="40" y="419"/>
      <point x="40" y="262" type="curve" smooth="yes"/>
      <point x="40" y="99"/>
      <point x="76" y="-10"/>
    </contour>
    <contour>
      <point x="64" y="294" type="line"/>
      <point x="69" y="439"/>
      <point x="97" y="513"/>
      <point x="140" y="513" type="curve" smooth="yes"/>
      <point x="191" y="513"/>
      <point x="212" y="419"/>
      <point x="213" y="294" type="curve"/>
    </contour>
  </outline>
</glyph>
<glyph name="f" format="2">
  <advance width="300"/>
  <unicode hex="0066"/>
  <anchor x="135" y="0" name="bottom"/>
  <anchor x="181" y="763" name="top"/>
  <anchor x="255" y="765" name="topright"/>
  <outline>
    <contour>
      <point x="117" y="0" type="line"/>
      <point x="141" y="0" type="line"/>
      <point x="141" y="503" type="line"/>
      <point x="227" y="503" type="line"/>
      <point x="227" y="528" type="line"/>
      <point x="141" y="528" type="line"/>
      <point x="141" y="601" type="line" smooth="yes"/>
      <point x="141" y="701"/>
      <point x="157" y="741"/>
      <point x="199" y="741" type="curve" smooth="yes"/>
      <point x="210" y="741"/>
      <point x="223" y="737"/>
      <point x="234" y="729" type="curve"/>
      <point x="240" y="753" type="line"/>
      <point x="227" y="760"/>
      <point x="213" y="765"/>
      <point x="197" y="765" type="curve" smooth="yes"/>
      <point x="140" y="765"/>
      <point x="117" y="711"/>
      <point x="117" y="604" type="curve" smooth="yes"/>
      <point x="117" y="528" type="line"/>
      <point x="43" y="524" type="line"/>
      <point x="43" y="503" type="line"/>
      <point x="117" y="503" type="line"/>
    </contour>
  </outline>
</glyph>
<glyph name="g" format="2">
  <advance width="300"/>
  <unicode hex="0067"/>
  <anchor x="135" y="-241" name="bottom"/>
  <anchor x="135" y="528" name="top"/>
  <anchor x="255" y="528" name="topright"/>
  <outline>
    <contour>
      <point x="118" y="-241" type="curve" smooth="yes"/>
      <point x="193" y="-241"/>
      <point x="225" y="-163"/>
      <point x="225" y="-30" type="curve" smooth="yes"/>
      <point x="225" y="528" type="line"/>
      <point x="207" y="528" type="line"/>
      <point x="204" y="439" type="line"/>
      <point x="202" y="439" type="line"/>
      <point x="189" y="492"/>
      <point x="168" y="538"/>
      <point x="128" y="538" type="curve" smooth="yes"/>
      <point x="65" y="538"/>
      <point x="34" y="432"/>
      <point x="34" y="259" type="curve" smooth="yes"/>
      <point x="34" y="78"/>
      <point x="67" y="-10"/>
      <point x="125" y="-10" type="curve" smooth="yes"/>
      <point x="164" y="-10"/>
      <point x="191" y="42"/>
      <point x="202" y="114" type="curve"/>
      <point x="204" y="114" type="line"/>
      <point x="203" y="74"/>
      <point x="202" y="50"/>
      <point x="202" y="15" type="curve" smooth="yes"/>
      <point x="202" y="-30" type="line" smooth="yes"/>
      <point x="202" y="-151"/>
      <point x="177" y="-216"/>
      <point x="119" y="-216" type="curve" smooth="yes"/>
      <point x="91" y="-216"/>
      <point x="66" y="-201"/>
      <point x="44" y="-179" type="curve"/>
      <point x="44" y="-208" type="line"/>
      <point x="65" y="-228"/>
      <point x="89" y="-241"/>
    </contour>
    <contour>
      <point x="130" y="15" type="curve" smooth="yes"/>
      <point x="81" y="15"/>
      <point x="57" y="96"/>
      <point x="57" y="258" type="curve" smooth="yes"/>
      <point x="57" y="414"/>
      <point x="80" y="513"/>
      <point x="133" y="513" type="curve" smooth="yes"/>
      <point x="183" y="513"/>
      <point x="203" y="423"/>
      <point x="203" y="312" type="curve" smooth="yes"/>
      <point x="203" y="234" type="line" smooth="yes"/>
      <point x="203" y="131"/>
      <point x="185" y="15"/>
    </contour>
  </outline>
</glyph>
<glyph name="h" format="2">
  <advance width="300"/>
  <unicode hex="0068"/>
  <anchor x="135" y="0" name="bottom"/>
  <anchor x="135" y="264" name="center"/>
  <anchor x="56" y="760" name="top"/>
  <anchor x="254" y="760" name="topright"/>
  <outline>
    <contour>
      <point x="45" y="0" type="line"/>
      <point x="69" y="0" type="line"/>
      <point x="69" y="300" type="line" smooth="yes"/>
      <point x="69" y="447"/>
      <point x="100" y="513"/>
      <point x="144" y="513" type="curve" smooth="yes"/>
      <point x="182" y="513"/>
      <point x="204" y="467"/>
      <point x="204" y="353" type="curve" smooth="yes"/>
      <point x="204" y="0" type="line"/>
      <point x="227" y="0" type="line"/>
      <point x="227" y="356" type="line" smooth="yes"/>
      <point x="227" y="479"/>
      <point x="197" y="538"/>
      <point x="148" y="538" type="curve" smooth="yes"/>
      <point x="102" y="538"/>
      <point x="78" y="478"/>
      <point x="68" y="421" type="curve"/>
      <point x="67" y="421" type="line"/>
      <point x="68" y="446"/>
      <point x="69" y="464"/>
      <point x="69" y="494" type="curve" smooth="yes"/>
      <point x="69" y="760" type="line"/>
      <point x="45" y="760" type="line"/>
    </contour>
  </outline>
</glyph>
<glyph name="i" format="2">
  <advance width="300"/>
  <unicode hex="0069"/>
  <anchor x="140" y="0" name="bottom"/>
  <anchor x="139" y="734" name="top"/>
  <anchor x="219" y="734" name="topright"/>
  <outline>
    <contour>
      <point x="46" y="0" type="line"/>
      <point x="229" y="0" type="line"/>
      <point x="229" y="21" type="line"/>
      <point x="152" y="25" type="line"/>
      <point x="152" y="528" type="line"/>
      <point x="55" y="528" type="line"/>
      <point x="55" y="507" type="line"/>
      <point x="129" y="503" type="line"/>
      <point x="129" y="25" type="line"/>
      <point x="46" y="21" type="line"/>
    </contour>
    <contour>
      <point x="139" y="660" type="curve" smooth="yes"/>
      <point x="155" y="660"/>
      <point x="160" y="679"/>
      <point x="160" y="697" type="curve" smooth="yes"/>
      <point x="160" y="716"/>
      <point x="154" y="734"/>
      <point x="139" y="734" type="curve" smooth="yes"/>
      <point x="124" y="734"/>
      <point x="119" y="716"/>
      <point x="119" y="697" type="curve" smooth="yes"/>
      <point x="119" y="677"/>
      <point x="124" y="660"/>
    </contour>
  </outline>
</glyph>
<glyph name="j" format="2">
  <advance width="300"/>
  <unicode hex="006A"/>
  <anchor x="103" y="-248" name="bottom"/>
  <anchor x="156" y="724" name="top"/>
  <anchor x="254" y="724" name="topright"/>
  <outline>
    <contour>
      <point x="90" y="-248" type="curve" smooth="yes"/>
      <point x="139" y="-248"/>
      <point x="170" y="-196"/>
      <point x="170" y="-88" type="curve" smooth="yes"/>
      <point x="170" y="528" type="line"/>
      <point x="59" y="528" type="line"/>
      <point x="59" y="507" type="line"/>
      <point x="146" y="503" type="line"/>
      <point x="146" y="-81" type="line" smooth="yes"/>
      <point x="146" y="-168"/>
      <point x="127" y="-222"/>
      <point x="89" y="-222" type="curve" smooth="yes"/>
      <point x="70" y="-222"/>
      <point x="42" y="-210"/>
      <point x="30" y="-201" type="curve"/>
      <point x="30" y="-228" type="line"/>
      <point x="40" y="-234"/>
      <point x="67" y="-248"/>
    </contour>
    <contour>
      <point x="155" y="650" type="curve" smooth="yes"/>
      <point x="170" y="650"/>
      <point x="175" y="669"/>
      <point x="175" y="687" type="curve" smooth="yes"/>
      <point x="175" y="706"/>
      <point x="170" y="724"/>
      <point x="155" y="724" type="curve" smooth="yes"/>
      <point x="140" y="724"/>
      <point x="135" y="706"/>
      <point x="135" y="687" type="curve" smooth="yes"/>
      <point x="135" y="667"/>
      <point x="141" y="650"/>
    </contour>
  </outline>
</glyph>
<glyph name="k" format="2">
  <advance width="300"/>
  <unicode hex="006B"/>
  <anchor x="152" y="0" name="bottom"/>
  <anchor x="150" y="760" name="top"/>
  <anchor x="255" y="760" name="topright"/>
  <outline>
    <contour>
      <point x="60" y="0" type="line"/>
      <point x="83" y="0" type="line"/>
      <point x="83" y="185" type="line"/>
      <point x="123" y="286" type="line"/>
      <point x="220" y="0" type="line"/>
      <point x="246" y="0" type="line"/>
      <point x="139" y="305" type="line"/>
      <point x="239" y="528" type="line"/>
      <point x="210" y="528" type="line"/>
      <point x="106" y="277" type="line" smooth="yes"/>
      <point x="98" y="258"/>
      <point x="91" y="239"/>
      <point x="82" y="217" type="curve"/>
      <point x="82" y="217" type="line"/>
      <point x="83" y="272"/>
      <point x="83" y="318"/>
      <point x="83" y="373" type="curve" smooth="yes"/>
      <point x="83" y="760" type="line"/>
      <point x="60" y="760" type="line"/>
    </contour>
  </outline>
</glyph>
<glyph name="l" format="2">
  <advance width="300"/>
  <unicode hex="006C"/>
  <anchor x="137" y="0" name="bottom"/>
  <anchor x="137" y="376" name="center"/>
  <anchor x="135" y="760" name="top"/>
  <anchor x="212" y="760" name="topright"/>
  <outline>
    <contour>
      <point x="46" y="0" type="line"/>
      <point x="229" y="0" type="line"/>
      <point x="229" y="21" type="line"/>
      <point x="149" y="25" type="line"/>
      <point x="149" y="760" type="line"/>
      <point x="51" y="760" type="line"/>
      <point x="51" y="739" type="line"/>
      <point x="127" y="735" type="line"/>
      <point x="127" y="25" type="line"/>
      <point x="46" y="21" type="line"/>
    </contour>
  </outline>
</glyph>
<glyph name="m" format="2">
  <advance width="300"/>
  <unicode hex="006D"/>
  <anchor x="136" y="0" name="bottom"/>
  <anchor x="139" y="528" name="top"/>
  <anchor x="256" y="528" name="topright"/>
  <outline>
    <contour>
      <point x="31" y="0" type="line"/>
      <point x="52" y="0" type="line"/>
      <point x="52" y="366" type="line" smooth="yes"/>
      <point x="52" y="440"/>
      <point x="65" y="513"/>
      <point x="94" y="513" type="curve" smooth="yes"/>
      <point x="112" y="513"/>
      <point x="125" y="497"/>
      <point x="125" y="384" type="curve" smooth="yes"/>
      <point x="125" y="0" type="line"/>
      <point x="146" y="0" type="line"/>
      <point x="146" y="366" type="line" smooth="yes"/>
      <point x="146" y="458"/>
      <point x="160" y="513"/>
      <point x="187" y="513" type="curve" smooth="yes"/>
      <point x="206" y="513"/>
      <point x="219" y="493"/>
      <point x="219" y="401" type="curve" smooth="yes"/>
      <point x="219" y="0" type="line"/>
      <point x="241" y="0" type="line"/>
      <point x="241" y="403" type="line" smooth="yes"/>
      <point x="241" y="505"/>
      <point x="224" y="537"/>
      <point x="193" y="537" type="curve" smooth="yes"/>
      <point x="166" y="537"/>
      <point x="151" y="501"/>
      <point x="143" y="460" type="curve"/>
      <point x="142" y="460" type="line"/>
      <point x="138" y="496"/>
      <point x="127" y="537"/>
      <point x="100" y="537" type="curve" smooth="yes"/>
      <point x="70" y="537"/>
      <point x="58" y="492"/>
      <point x="51" y="457" type="curve"/>
      <point x="50" y="457" type="line"/>
      <point x="47" y="528" type="line"/>
      <point x="31" y="528" type="line"/>
    </contour>
  </outline>
</glyph>
<glyph name="n" format="2">
  <advance width="300"/>
  <unicode hex="006E"/>
  <anchor x="138" y="0" name="bottom"/>
  <anchor x="138" y="528" name="top"/>
  <anchor x="255" y="528" name="topright"/>
  <outline>
    <contour>
      <point x="45" y="0" type="line"/>
      <point x="69" y="0" type="line"/>
      <point x="69" y="307" type="line" smooth="yes"/>
      <point x="69" y="446"/>
      <point x="100" y="512"/>
      <point x="145" y="512" type="curve" smooth="yes"/>
      <point x="183" y="512"/>
      <point x="204" y="467"/>
      <point x="204" y="355" type="curve" smooth="yes"/>
      <point x="204" y="0" type="line"/>
      <point x="227" y="0" type="line"/>
      <point x="227" y="361" type="line" smooth="yes"/>
      <point x="227" y="483"/>
      <point x="198" y="537"/>
      <point x="148" y="537" type="curve" smooth="yes"/>
      <point x="103" y="537"/>
      <point x="78" y="476"/>
      <point x="68" y="416" type="curve"/>
      <point x="66" y="416" type="line"/>
      <point x="63" y="528" type="line"/>
      <point x="45" y="528" type="line"/>
    </contour>
  </outline>
</glyph>
<glyph name="o" format="2">
  <advance width="300"/>
  <unicode hex="006F"/>
  <anchor x="135" y="0" name="bottom"/>
  <anchor x="135" y="264" name="center"/>
  <anchor x="135" y="15" name="ogonek"/>
  <anchor x="135" y="528" name="top"/>
  <anchor x="255" y="528" name="topright"/>
  <outline>
    <contour>
      <point x="135" y="-10" type="curve" smooth="yes"/>
      <point x="205" y="-10"/>
      <point x="238" y="93"/>
      <point x="238" y="264" type="curve" smooth="yes"/>
      <point x="238" y="425"/>
      <point x="206" y="537"/>
      <point x="137" y="537" type="curve" smooth="yes"/>
      <point x="69" y="537"/>
      <point x="34" y="438"/>
      <point x="34" y="265" type="curve" smooth="yes"/>
      <point x="34" y="94"/>
      <point x="67" y="-10"/>
    </contour>
    <contour>
      <point x="135" y="15" type="curve" smooth="yes"/>
      <point x="82" y="15"/>
      <point x="57" y="110"/>
      <point x="57" y="265" type="curve" smooth="yes"/>
      <point x="57" y="422"/>
      <point x="84" y="512"/>
      <point x="137" y="512" type="curve" smooth="yes"/>
      <point x="192" y="512"/>
      <point x="213" y="410"/>
      <point x="213" y="265" type="curve" smooth="yes"/>
      <point x="213" y="107"/>
      <point x="190" y="15"/>
    </contour>
  </outline>
</glyph>
<glyph name="p" format="2">
  <advance width="300"/>
  <unicode hex="0070"/>
  <anchor x="150" y="-240" name="bottom"/>
  <anchor x="150" y="528" name="top"/>
  <anchor x="254" y="528" name="topright"/>
  <outline>
    <contour>
      <point x="45" y="-240" type="line"/>
      <point x="68" y="-240" type="line"/>
      <point x="68" y="11" type="line" smooth="yes"/>
      <point x="68" y="48"/>
      <point x="68" y="83"/>
      <point x="67" y="112" type="curve"/>
      <point x="68" y="112" type="line"/>
      <point x="79" y="50"/>
      <point x="101" y="-10"/>
      <point x="143" y="-10" type="curve" smooth="yes"/>
      <point x="200" y="-10"/>
      <point x="237" y="83"/>
      <point x="237" y="270" type="curve" smooth="yes"/>
      <point x="237" y="448"/>
      <point x="205" y="537"/>
      <point x="145" y="537" type="curve" smooth="yes"/>
      <point x="102" y="537"/>
      <point x="79" y="472"/>
      <point x="67" y="403" type="curve"/>
      <point x="66" y="403" type="line"/>
      <point x="64" y="528" type="line"/>
      <point x="45" y="528" type="line"/>
    </contour>
    <contour>
      <point x="139" y="15" type="curve" smooth="yes"/>
      <point x="96" y="15"/>
      <point x="68" y="95"/>
      <point x="68" y="241" type="curve" smooth="yes"/>
      <point x="68" y="279" type="line" smooth="yes"/>
      <point x="68" y="419"/>
      <point x="94" y="512"/>
      <point x="141" y="512" type="curve" smooth="yes"/>
      <point x="189" y="512"/>
      <point x="213" y="429"/>
      <point x="213" y="270" type="curve" smooth="yes"/>
      <point x="213" y="90"/>
      <point x="184" y="15"/>
    </contour>
  </outline>
</glyph>
<glyph name="q" format="2">
  <advance width="300"/>
  <unicode hex="0071"/>
  <anchor x="130" y="-232" name="bottom"/>
  <anchor x="130" y="528" name="top"/>
  <anchor x="255" y="528" name="topright"/>
  <outline>
    <contour>
      <point x="203" y="-232" type="line"/>
      <point x="225" y="-232" type="line"/>
      <point x="225" y="528" type="line"/>
      <point x="207" y="528" type="line"/>
      <point x="204" y="426" type="line"/>
      <point x="202" y="426" type="line"/>
      <point x="192" y="488"/>
      <point x="168" y="537"/>
      <point x="129" y="537" type="curve" smooth="yes"/>
      <point x="66" y="537"/>
      <point x="34" y="425"/>
      <point x="34" y="261" type="curve" smooth="yes"/>
      <point x="34" y="83"/>
      <point x="66" y="-11"/>
      <point x="125" y="-11" type="curve" smooth="yes"/>
      <point x="165" y="-11"/>
      <point x="190" y="43"/>
      <point x="203" y="116" type="curve"/>
      <point x="204" y="116" type="line"/>
      <point x="203" y="85"/>
      <point x="203" y="40"/>
      <point x="203" y="17" type="curve" smooth="yes"/>
    </contour>
    <contour>
      <point x="128" y="15" type="curve" smooth="yes"/>
      <point x="85" y="15"/>
      <point x="58" y="95"/>
      <point x="58" y="261" type="curve" smooth="yes"/>
      <point x="58" y="420"/>
      <point x="84" y="511"/>
      <point x="133" y="511" type="curve" smooth="yes"/>
      <point x="179" y="511"/>
      <point x="203" y="434"/>
      <point x="203" y="299" type="curve" smooth="yes"/>
      <point x="203" y="239" type="line" smooth="yes"/>
      <point x="203" y="104"/>
      <point x="177" y="15"/>
    </contour>
  </outline>
</glyph>
<glyph name="r" format="2">
  <advance width="300"/>
  <unicode hex="0072"/>
  <anchor x="120" y="0" name="bottom"/>
  <anchor x="148" y="528" name="top"/>
  <anchor x="254" y="528" name="topright"/>
  <outline>
    <contour>
      <point x="35" y="0" type="line"/>
      <point x="207" y="0" type="line"/>
      <point x="207" y="21" type="line"/>
      <point x="130" y="25" type="line"/>
      <point x="130" y="303" type="line" smooth="yes"/>
      <point x="130" y="434"/>
      <point x="156" y="510"/>
      <point x="202" y="510" type="curve" smooth="yes"/>
      <point x="214" y="510"/>
      <point x="229" y="505"/>
      <point x="241" y="497" type="curve"/>
      <point x="246" y="523" type="line"/>
      <point x="235" y="530"/>
      <point x="218" y="536"/>
      <point x="204" y="536" type="curve" smooth="yes"/>
      <point x="163" y="536"/>
      <point x="140" y="484"/>
      <point x="129" y="427" type="curve"/>
      <point x="128" y="427" type="line"/>
      <point x="126" y="528" type="line"/>
      <point x="42" y="528" type="line"/>
      <point x="42" y="507" type="line"/>
      <point x="107" y="503" type="line"/>
      <point x="107" y="25" type="line"/>
      <point x="35" y="21" type="line"/>
    </contour>
  </outline>
</glyph>
<glyph name="s" format="2">
  <advance width="300"/>
  <unicode hex="0073"/>
  <anchor x="140" y="0" name="bottom"/>
  <anchor x="140" y="528" name="top"/>
  <anchor x="255" y="528" name="topright"/>
  <outline>
    <contour>
      <point x="130" y="-10" type="curve" smooth="yes"/>
      <point x="190" y="-10"/>
      <point x="219" y="44"/>
      <point x="219" y="129" type="curve" smooth="yes"/>
      <point x="219" y="223"/>
      <point x="186" y="247"/>
      <point x="146" y="283" type="curve" smooth="yes"/>
      <point x="108" y="318"/>
      <point x="85" y="337"/>
      <point x="85" y="407" type="curve" smooth="yes"/>
      <point x="85" y="477"/>
      <point x="109" y="512"/>
      <point x="146" y="512" type="curve" smooth="yes"/>
      <point x="167" y="512"/>
      <point x="188" y="502"/>
      <point x="206" y="485" type="curve"/>
      <point x="215" y="509" type="line"/>
      <point x="195" y="526"/>
      <point x="172" y="537"/>
      <point x="147" y="537" type="curve" smooth="yes"/>
      <point x="91" y="537"/>
      <point x="61" y="484"/>
      <point x="61" y="408" type="curve" smooth="yes"/>
      <point x="61" y="320"/>
      <point x="91" y="294"/>
      <point x="133" y="258" type="curve" smooth="yes"/>
      <point x="172" y="224"/>
      <point x="196" y="204"/>
      <point x="196" y="130" type="curve" smooth="yes"/>
      <point x="196" y="58"/>
      <point x="178" y="16"/>
      <point x="132" y="16" type="curve" smooth="yes"/>
      <point x="104" y="16"/>
      <point x="79" y="30"/>
      <point x="57" y="53" type="curve"/>
      <point x="57" y="23" type="line"/>
      <point x="74" y="7"/>
      <point x="100" y="-10"/>
    </contour>
  </outline>
</glyph>
<glyph name="t" format="2">
  <advance width="300"/>
  <unicode hex="0074"/>
  <anchor x="172" y="0" name="bottom"/>
  <anchor x="124" y="290" name="center"/>
  <anchor x="127" y="659" name="top"/>
  <anchor x="254" y="659" name="topright"/>
  <outline>
    <contour>
      <point x="186" y="-10" type="curve" smooth="yes"/>
      <point x="204" y="-10"/>
      <point x="218" y="-4"/>
      <point x="232" y="3" type="curve"/>
      <point x="232" y="28" type="line"/>
      <point x="218" y="20"/>
      <point x="204" y="15"/>
      <point x="188" y="15" type="curve" smooth="yes"/>
      <point x="148" y="15"/>
      <point x="135" y="75"/>
      <point x="135" y="183" type="curve" smooth="yes"/>
      <point x="135" y="503" type="line"/>
      <point x="227" y="503" type="line"/>
      <point x="227" y="528" type="line"/>
      <point x="135" y="528" type="line"/>
      <point x="135" y="659" type="line"/>
      <point x="118" y="659" type="line"/>
      <point x="111" y="528" type="line"/>
      <point x="43" y="524" type="line"/>
      <point x="43" y="503" type="line"/>
      <point x="111" y="503" type="line"/>
      <point x="111" y="180" type="line" smooth="yes"/>
      <point x="111" y="62"/>
      <point x="133" y="-10"/>
    </contour>
  </outline>
</glyph>
<glyph name="u" format="2">
  <advance width="300"/>
  <unicode hex="0075"/>
  <anchor x="135" y="0" name="bottom"/>
  <anchor x="238" y="10" name="ogonek"/>
  <anchor x="135" y="528" name="top"/>
  <anchor x="254" y="528" name="topright"/>
  <outline>
    <contour>
      <point x="122" y="-10" type="curve" smooth="yes"/>
      <point x="167" y="-10"/>
      <point x="191" y="52"/>
      <point x="201" y="112" type="curve"/>
      <point x="203" y="112" type="line"/>
      <point x="206" y="0" type="line"/>
      <point x="224" y="0" type="line"/>
      <point x="224" y="528" type="line"/>
      <point x="202" y="528" type="line"/>
      <point x="202" y="227" type="line" smooth="yes"/>
      <point x="202" y="82"/>
      <point x="172" y="15"/>
      <point x="128" y="15" type="curve" smooth="yes"/>
      <point x="88" y="15"/>
      <point x="66" y="64"/>
      <point x="66" y="177" type="curve" smooth="yes"/>
      <point x="66" y="528" type="line"/>
      <point x="43" y="528" type="line"/>
      <point x="43" y="171" type="line" smooth="yes"/>
      <point x="43" y="51"/>
      <point x="70" y="-10"/>
    </contour>
  </outline>
</glyph>
<glyph name="v" format="2">
  <advance width="300"/>
  <unicode hex="0076"/>
  <anchor x="135" y="0" name="bottom"/>
  <anchor x="135" y="528" name="top"/>
  <anchor x="253" y="528" name="topright"/>
  <outline>
    <contour>
      <point x="120" y="0" type="line"/>
      <point x="146" y="0" type="line"/>
      <point x="235" y="528" type="line"/>
      <point x="213" y="528" type="line"/>
      <point x="153" y="145" type="line" smooth="yes"/>
      <point x="146" y="105"/>
      <point x="140" y="73"/>
      <point x="135" y="36" type="curve"/>
      <point x="134" y="36" type="line"/>
      <point x="128" y="73"/>
      <point x="123" y="105"/>
      <point x="117" y="145" type="curve" smooth="yes"/>
      <point x="57" y="528" type="line"/>
      <point x="33" y="528" type="line"/>
    </contour>
  </outline>
</glyph>
<glyph name="w" format="2">
  <advance width="300"/>
  <unicode hex="0077"/>
  <anchor x="137" y="0" name="bottom"/>
  <anchor x="137" y="528" name="top"/>
  <anchor x="255" y="528" name="topright"/>
  <outline>
    <contour>
      <point x="65" y="-1" type="line"/>
      <point x="89" y="-1" type="line"/>
      <point x="124" y="269" type="line" smooth="yes"/>
      <point x="128" y="301"/>
      <point x="133" y="335"/>
      <point x="136" y="367" type="curve"/>
      <point x="137" y="367" type="line"/>
      <point x="141" y="335"/>
      <point x="146" y="304"/>
      <point x="150" y="270" type="curve" smooth="yes"/>
      <point x="184" y="-1" type="line"/>
      <point x="207" y="-1" type="line"/>
      <point x="258" y="528" type="line"/>
      <point x="236" y="528" type="line"/>
      <point x="205" y="155" type="line" smooth="yes"/>
      <point x="201" y="107"/>
      <point x="198" y="89"/>
      <point x="196" y="44" type="curve"/>
      <point x="195" y="44" type="line"/>
      <point x="191" y="77"/>
      <point x="186" y="113"/>
      <point x="180" y="157" type="curve" smooth="yes"/>
      <point x="148" y="407" type="line"/>
      <point x="126" y="407" type="line"/>
      <point x="93" y="160" type="line" smooth="yes"/>
      <point x="87" y="111"/>
      <point x="82" y="73"/>
      <point x="79" y="45" type="curve"/>
      <point x="78" y="45" type="line"/>
      <point x="75" y="78"/>
      <point x="72" y="107"/>
      <point x="67" y="158" type="curve" smooth="yes"/>
      <point x="34" y="528" type="line"/>
      <point x="12" y="528" type="line"/>
    </contour>
  </outline>
</glyph>
<glyph name="x" format="2">
  <advance width="300"/>
  <unicode hex="0078"/>
  <anchor x="135" y="0" name="bottom"/>
  <anchor x="135" y="528" name="top"/>
  <anchor x="253" y="528" name="topright"/>
  <outline>
    <contour>
      <point x="33" y="0" type="line"/>
      <point x="59" y="0" type="line"/>
      <point x="134" y="252" type="line"/>
      <point x="209" y="0" type="line"/>
      <point x="235" y="0" type="line"/>
      <point x="148" y="270" type="line"/>
      <point x="232" y="528" type="line"/>
      <point x="206" y="528" type="line"/>
      <point x="135" y="291" type="line"/>
      <point x="64" y="528" type="line"/>
      <point x="38" y="528" type="line"/>
      <point x="120" y="271" type="line"/>
    </contour>
  </outline>
</glyph>
<glyph name="y" format="2">
  <advance width="300"/>
  <unicode hex="0079"/>
  <anchor x="134" y="-243" name="bottom"/>
  <anchor x="134" y="528" name="top"/>
  <anchor x="252" y="528" name="topright"/>
  <outline>
    <contour>
      <point x="61" y="-243" type="curve" smooth="yes"/>
      <point x="98" y="-243"/>
      <point x="118" y="-201"/>
      <point x="132" y="-112" type="curve" smooth="yes"/>
      <point x="235" y="528" type="line"/>
      <point x="211" y="528" type="line"/>
      <point x="155" y="155" type="line" smooth="yes"/>
      <point x="149" y="112"/>
      <point x="143" y="83"/>
      <point x="139" y="48" type="curve"/>
      <point x="138" y="48" type="line"/>
      <point x="134" y="69"/>
      <point x="131" y="92"/>
      <point x="120" y="156" type="curve" smooth="yes"/>
      <point x="61" y="528" type="line"/>
      <point x="36" y="528" type="line"/>
      <point x="128" y="10" type="line"/>
      <point x="110" y="-112" type="line" smooth="yes"/>
      <point x="98" y="-193"/>
      <point x="81" y="-217"/>
      <point x="58" y="-217" type="curve" smooth="yes"/>
      <point x="50" y="-217"/>
      <point x="42" y="-213"/>
      <point x="35" y="-207" type="curve"/>
      <point x="35" y="-234" type="line"/>
      <point x="44" y="-240"/>
      <point x="51" y="-243"/>
    </contour>
  </outline>
</glyph>
<glyph name="z" format="2">
  <advance width="300"/>
  <unicode hex="007A"/>
  <anchor x="140" y="0" name="bottom"/>
  <anchor x="140" y="528" name="top"/>
  <anchor x="255" y="528" name="topright"/>
  <outline>
    <contour>
      <point x="51" y="0" type="line"/>
      <point x="221" y="0" type="line"/>
      <point x="221" y="25" type="line"/>
      <point x="79" y="25" type="line"/>
      <point x="220" y="509" type="line"/>
      <point x="220" y="528" type="line"/>
      <point x="61" y="528" type="line"/>
      <point x="61" y="503" type="line"/>
      <point x="192" y="503" type="line"/>
      <point x="51" y="21" type="line"/>
    </contour>
  </outline>
</glyph>
<glyph name="braceleft" format="2">
  <advance width="300"/>
  <unicode hex="007B"/>
  <outline>
    <contour>
      <point x="208" y="-158" type="curve"/>
      <point x="208" y="-137" type="line"/>
      <point x="163" y="-137"/>
      <point x="146" y="-108"/>
      <point x="146" y="-16" type="curve" smooth="yes"/>
      <point x="146" y="157" type="line" smooth="yes"/>
      <point x="146" y="234"/>
      <point x="135" y="267"/>
      <point x="103" y="277" type="curve"/>
      <point x="103" y="278" type="line"/>
      <point x="135" y="288"/>
      <point x="146" y="327"/>
      <point x="146" y="398" type="curve" smooth="yes"/>
      <point x="146" y="571" type="line" smooth="yes"/>
      <point x="146" y="659"/>
      <point x="166" y="693"/>
      <point x="208" y="693" type="curve"/>
      <point x="208" y="714" type="line"/>
      <point x="152" y="714"/>
      <point x="124" y="672"/>
      <point x="124" y="578" type="curve" smooth="yes"/>
      <point x="124" y="405" type="line" smooth="yes"/>
      <point x="124" y="314"/>
      <point x="108" y="289"/>
      <point x="70" y="289" type="curve"/>
      <point x="70" y="266" type="line"/>
      <point x="112" y="266"/>
      <point x="124" y="238"/>
      <point x="124" y="150" type="curve" smooth="yes"/>
      <point x="124" y="-23" type="line" smooth="yes"/>
      <point x="124" y="-125"/>
      <point x="150" y="-157"/>
    </contour>
  </outline>
</glyph>
<glyph name="asciitilde" format="2">
  <advance width="300"/>
  <unicode hex="007E"/>
  <outline>
    <contour>
      <point x="32" y="311" type="line"/>
      <point x="49" y="354"/>
      <point x="67" y="371"/>
      <point x="86" y="371" type="curve" smooth="yes"/>
      <point x="104" y="371"/>
      <point x="118" y="358"/>
      <point x="134" y="341" type="curve" smooth="yes"/>
      <point x="150" y="324"/>
      <point x="164" y="311"/>
      <point x="184" y="311" type="curve" smooth="yes"/>
      <point x="206" y="311"/>
      <point x="225" y="331"/>
      <point x="237" y="356" type="curve"/>
      <point x="237" y="387" type="line"/>
      <point x="221" y="350"/>
      <point x="202" y="336"/>
      <point x="186" y="336" type="curve" smooth="yes"/>
      <point x="168" y="336"/>
      <point x="156" y="348"/>
      <point x="140" y="365" type="curve" smooth="yes"/>
      <point x="122" y="383"/>
      <point x="108" y="396"/>
      <point x="86" y="396" type="curve" smooth="yes"/>
      <point x="64" y="396"/>
      <point x="46" y="374"/>
      <point x="32" y="343" type="curve"/>
    </contour>
  </outline>
</glyph>
<glyph name="cent" format="2">
  <advance width="300"/>
  <unicode hex="00A2"/>
  <outline>
    <contour>
      <point x="154" y="-10" type="line"/>
      <point x="172" y="-10" type="line"/>
      <point x="172" y="91" type="line"/>
      <point x="191" y="93"/>
      <point x="207" y="102"/>
      <point x="219" y="111" type="curve"/>
      <point x="219" y="137" type="line"/>
      <point x="204" y="125"/>
      <point x="184" y="117"/>
      <point x="165" y="117" type="curve" smooth="yes"/>
      <point x="104" y="117"/>
      <point x="75" y="213"/>
      <point x="75" y="360" type="curve" smooth="yes"/>
      <point x="75" y="510"/>
      <point x="107" y="613"/>
      <point x="169" y="613" type="curve" smooth="yes"/>
      <point x="183" y="613"/>
      <point x="199" y="607"/>
      <point x="213" y="593" type="curve"/>
      <point x="220" y="617" type="line"/>
      <point x="207" y="630"/>
      <point x="189" y="637"/>
      <point x="170" y="638" type="curve"/>
      <point x="170" y="724" type="line"/>
      <point x="153" y="724" type="line"/>
      <point x="153" y="637" type="line"/>
      <point x="88" y="624"/>
      <point x="53" y="521"/>
      <point x="53" y="360" type="curve" smooth="yes"/>
      <point x="53" y="202"/>
      <point x="84" y="99"/>
      <point x="154" y="91" type="curve"/>
    </contour>
  </outline>
</glyph>
<glyph name="sterling" format="2">
  <advance width="300"/>
  <unicode hex="00A3"/>
  <outline>
    <contour>
      <point x="30" y="0" type="line"/>
      <point x="232" y="0" type="line"/>
      <point x="232" y="25" type="line"/>
      <point x="65" y="25" type="line"/>
      <point x="87" y="47"/>
      <point x="101" y="96"/>
      <point x="101" y="183" type="curve" smooth="yes"/>
      <point x="101" y="338" type="line"/>
      <point x="185" y="338" type="line"/>
      <point x="185" y="363" type="line"/>
      <point x="101" y="363" type="line"/>
      <point x="101" y="527" type="line" smooth="yes"/>
      <point x="101" y="645"/>
      <point x="122" y="699"/>
      <point x="167" y="699" type="curve" smooth="yes"/>
      <point x="185" y="699"/>
      <point x="201" y="691"/>
      <point x="220" y="669" type="curve"/>
      <point x="229" y="691" type="line"/>
      <point x="211" y="711"/>
      <point x="192" y="724"/>
      <point x="166" y="724" type="curve" smooth="yes"/>
      <point x="105" y="724"/>
      <point x="79" y="651"/>
      <point x="79" y="532" type="curve" smooth="yes"/>
      <point x="79" y="363" type="line"/>
      <point x="32" y="363" type="line"/>
      <point x="32" y="338" type="line"/>
      <point x="79" y="338" type="line"/>
      <point x="79" y="185" type="line" smooth="yes"/>
      <point x="79" y="89"/>
      <point x="63" y="40"/>
      <point x="30" y="23" type="curve"/>
    </contour>
  </outline>
</glyph>
<glyph name="currency" format="2">
  <advance width="300"/>
  <unicode hex="00A4"/>
  <outline>
    <contour>
      <point x="239" y="130" type="line"/>
      <point x="251" y="145" type="line"/>
      <point x="214" y="221" type="line"/>
      <point x="230" y="260"/>
      <point x="237" y="310"/>
      <point x="237" y="354" type="curve" smooth="yes"/>
      <point x="237" y="402"/>
      <point x="229" y="448"/>
      <point x="213" y="486" type="curve"/>
      <point x="251" y="561" type="line"/>
      <point x="239" y="577" type="line"/>
      <point x="200" y="502" type="line"/>
      <point x="182" y="536"/>
      <point x="158" y="551"/>
      <point x="135" y="551" type="curve" smooth="yes"/>
      <point x="111" y="551"/>
      <point x="89" y="535"/>
      <point x="70" y="501" type="curve"/>
      <point x="31" y="578" type="line"/>
      <point x="19" y="562" type="line"/>
      <point x="57" y="485" type="line"/>
      <point x="41" y="450"/>
      <point x="34" y="402"/>
      <point x="34" y="354" type="curve" smooth="yes"/>
      <point x="34" y="307"/>
      <point x="41" y="261"/>
      <point x="57" y="222" type="curve"/>
      <point x="20" y="148" type="line"/>
      <point x="32" y="132" type="line"/>
      <point x="70" y="206" type="line"/>
      <point x="89" y="173"/>
      <point x="112" y="157"/>
      <point x="135" y="157" type="curve" smooth="yes"/>
      <point x="158" y="157"/>
      <point x="182" y="172"/>
      <point x="200" y="205" type="curve"/>
    </contour>
    <contour>
      <point x="135" y="181" type="curve" smooth="yes"/>
      <point x="90" y="181"/>
      <point x="53" y="251"/>
      <point x="53" y="354" type="curve" smooth="yes"/>
      <point x="53" y="457"/>
      <point x="90" y="528"/>
      <point x="135" y="528" type="curve" smooth="yes"/>
      <point x="182" y="528"/>
      <point x="218" y="453"/>
      <point x="218" y="353" type="curve" smooth="yes"/>
      <point x="218" y="255"/>
      <point x="182" y="181"/>
    </contour>
  </outline>
</glyph>
<glyph name="yen" format="2">
  <advance width="300"/>
  <unicode hex="00A5"/>
  <outline>
    <contour>
      <point x="124" y="0" type="line"/>
      <point x="147" y="0" type="line"/>
      <point x="147" y="159" type="line"/>
      <point x="218" y="159" type="line"/>
      <point x="218" y="183" type="line"/>
      <point x="147" y="183" type="line"/>
      <point x="147" y="295" type="line"/>
      <point x="218" y="295" type="line"/>
      <point x="218" y="319" type="line"/>
      <point x="151" y="319" type="line"/>
      <point x="240" y="714" type="line"/>
      <point x="216" y="714" type="line"/>
      <point x="135" y="338" type="line"/>
      <point x="54" y="714" type="line"/>
      <point x="30" y="714" type="line"/>
      <point x="119" y="319" type="line"/>
      <point x="52" y="319" type="line"/>
      <point x="52" y="295" type="line"/>
      <point x="124" y="295" type="line"/>
      <point x="124" y="183" type="line"/>
      <point x="52" y="183" type="line"/>
      <point x="52" y="159" type="line"/>
      <point x="124" y="159" type="line"/>
    </contour>
  </outline>
</glyph>
<glyph name="brokenbar" format="2">
  <advance width="300"/>
  <unicode hex="00A6"/>
  <outline>
    <contour>
      <point x="116" y="386" type="line"/>
      <point x="137" y="386" type="line"/>
      <point x="137" y="762" type="line"/>
      <point x="116" y="762" type="line"/>
    </contour>
    <contour>
      <point x="116" y="-248" type="line"/>
      <point x="137" y="-248" type="line"/>
      <point x="137" y="130" type="line"/>
      <point x="116" y="130" type="line"/>
    </contour>
  </outline>
</glyph>
<glyph name="section" format="2">
  <advance width="300"/>
  <unicode hex="00A7"/>
  <outline>
    <contour>
      <point x="120" y="-12" type="curve" smooth="yes"/>
      <point x="180" y="-12"/>
      <point x="212" y="49"/>
      <point x="212" y="132" type="curve" smooth="yes"/>
      <point x="212" y="186"/>
      <point x="201" y="211"/>
      <point x="177" y="237" type="curve"/>
      <point x="202" y="264"/>
      <point x="220" y="307"/>
      <point x="220" y="372" type="curve" smooth="yes"/>
      <point x="220" y="461"/>
      <point x="183" y="489"/>
      <point x="144" y="521" type="curve" smooth="yes"/>
      <point x="106" y="552"/>
      <point x="87" y="593"/>
      <point x="87" y="648" type="curve" smooth="yes"/>
      <point x="87" y="713"/>
      <point x="112" y="743"/>
      <point x="148" y="743" type="curve" smooth="yes"/>
      <point x="171" y="743"/>
      <point x="190" y="730"/>
      <point x="205" y="716" type="curve"/>
      <point x="213" y="738" type="line"/>
      <point x="195" y="754"/>
      <point x="174" y="766"/>
      <point x="149" y="766" type="curve" smooth="yes"/>
      <point x="97" y="766"/>
      <point x="66" y="720"/>
      <point x="66" y="647" type="curve" smooth="yes"/>
      <point x="66" y="586"/>
      <point x="85" y="549"/>
      <point x="111" y="520" type="curve"/>
      <point x="80" y="499"/>
      <point x="57" y="458"/>
      <point x="57" y="387" type="curve" smooth="yes"/>
      <point x="57" y="311"/>
      <point x="84" y="284"/>
      <point x="124" y="250" type="curve" smooth="yes"/>
      <point x="166" y="215"/>
      <point x="191" y="198"/>
      <point x="191" y="131" type="curve" smooth="yes"/>
      <point x="191" y="64"/>
      <point x="167" y="11"/>
      <point x="121" y="11" type="curve" smooth="yes"/>
      <point x="96" y="11"/>
      <point x="70" y="25"/>
      <point x="51" y="45" type="curve"/>
      <point x="51" y="17" type="line"/>
      <point x="66" y="2"/>
      <point x="93" y="-12"/>
    </contour>
    <contour>
      <point x="161" y="249" type="curve"/>
      <point x="134" y="272" type="line" smooth="yes"/>
      <point x="101" y="300"/>
      <point x="77" y="324"/>
      <point x="77" y="389" type="curve" smooth="yes"/>
      <point x="77" y="456"/>
      <point x="98" y="490"/>
      <point x="128" y="507" type="curve"/>
      <point x="177" y="473"/>
      <point x="200" y="437"/>
      <point x="200" y="369" type="curve" smooth="yes"/>
      <point x="200" y="308"/>
      <point x="182" y="268"/>
    </contour>
  </outline>
</glyph>
<glyph name="dieresis" format="2">
  <advance width="300"/>
  <unicode hex="00A8"/>
  <anchor x="135" y="528" name="_top"/>
  <anchor x="135" y="638" name="top"/>
  <outline>
    <contour>
      <point x="179" y="635" type="curve" smooth="yes"/>
      <point x="191" y="635"/>
      <point x="196" y="650"/>
      <point x="196" y="670" type="curve" smooth="yes"/>
      <point x="196" y="690"/>
      <point x="190" y="706"/>
      <point x="179" y="706" type="curve" smooth="yes"/>
      <point x="167" y="706"/>
      <point x="161" y="689"/>
      <point x="161" y="670" type="curve" smooth="yes"/>
      <point x="161" y="652"/>
      <point x="167" y="635"/>
    </contour>
    <contour>
      <point x="91" y="635" type="curve" smooth="yes"/>
      <point x="104" y="635"/>
      <point x="109" y="650"/>
      <point x="109" y="670" type="curve" smooth="yes"/>
      <point x="109" y="689"/>
      <point x="104" y="706"/>
      <point x="91" y="706" type="curve" smooth="yes"/>
      <point x="81" y="706"/>
      <point x="74" y="688"/>
      <point x="74" y="670" type="curve" smooth="yes"/>
      <point x="74" y="652"/>
      <point x="81" y="635"/>
    </contour>
  </outline>
</glyph>
<glyph name="copyright" format="2">
  <advance width="300"/>
  <unicode hex="00A9"/>
  <outline>
    <contour>
      <point x="133" y="147" type="curve" smooth="yes"/>
      <point x="198" y="147"/>
      <point x="248" y="233"/>
      <point x="248" y="360" type="curve" smooth="yes"/>
      <point x="248" y="483"/>
      <point x="202" y="575"/>
      <point x="135" y="575" type="curve" smooth="yes"/>
      <point x="71" y="575"/>
      <point x="21" y="489"/>
      <point x="21" y="359" type="curve" smooth="yes"/>
      <point x="21" y="234"/>
      <point x="68" y="147"/>
    </contour>
    <contour>
      <point x="137" y="222" type="curve" smooth="yes"/>
      <point x="151" y="222"/>
      <point x="163" y="227"/>
      <point x="174" y="235" type="curve"/>
      <point x="174" y="258" type="line"/>
      <point x="161" y="248"/>
      <point x="149" y="244"/>
      <point x="139" y="244" type="curve" smooth="yes"/>
      <point x="105" y="244"/>
      <point x="86" y="282"/>
      <point x="86" y="357" type="curve" smooth="yes"/>
      <point x="86" y="432"/>
      <point x="106" y="475"/>
      <point x="139" y="475" type="curve" smooth="yes"/>
      <point x="151" y="475"/>
      <point x="163" y="469"/>
      <point x="173" y="461" type="curve"/>
      <point x="179" y="483" type="line"/>
      <point x="167" y="494"/>
      <point x="154" y="498"/>
      <point x="140" y="498" type="curve" smooth="yes"/>
      <point x="94" y="498"/>
      <point x="68" y="444"/>
      <point x="68" y="357" type="curve" smooth="yes"/>
      <point x="68" y="269"/>
      <point x="94" y="222"/>
    </contour>
    <contour>
      <point x="134" y="171" type="curve" smooth="yes"/>
      <point x="77" y="171"/>
      <point x="38" y="253"/>
      <point x="38" y="361" type="curve" smooth="yes"/>
      <point x="38" y="472"/>
      <point x="80" y="550"/>
      <point x="135" y="550" type="curve" smooth="yes"/>
      <point x="191" y="550"/>
      <point x="232" y="467"/>
      <point x="232" y="360" type="curve" smooth="yes"/>
      <point x="232" y="250"/>
      <point x="190" y="171"/>
    </contour>
  </outline>
</glyph>
<glyph name="ordfeminine" format="2">
  <advance width="300"/>
  <unicode hex="00AA"/>
  <outline>
    <contour>
      <point x="125" y="396" type="curve" smooth="yes"/>
      <point x="149" y="396"/>
      <point x="166" y="417"/>
      <point x="176" y="451" type="curve"/>
      <point x="178" y="400" type="line"/>
      <point x="193" y="400" type="line"/>
      <point x="193" y="629" type="line" smooth="yes"/>
      <point x="193" y="689"/>
      <point x="175" y="724"/>
      <point x="137" y="724" type="curve" smooth="yes"/>
      <point x="116" y="724"/>
      <point x="102" y="714"/>
      <point x="87" y="700" type="curve"/>
      <point x="93" y="680" type="line"/>
      <point x="105" y="694"/>
      <point x="119" y="702"/>
      <point x="135" y="702" type="curve" smooth="yes"/>
      <point x="161" y="702"/>
      <point x="175" y="679"/>
      <point x="175" y="623" type="curve" smooth="yes"/>
      <point x="175" y="584" type="line"/>
      <point x="147" y="581" type="line" smooth="yes"/>
      <point x="98" y="576"/>
      <point x="73" y="547"/>
      <point x="73" y="483" type="curve" smooth="yes"/>
      <point x="73" y="425"/>
      <point x="94" y="396"/>
    </contour>
    <contour>
      <point x="127" y="417" type="curve" smooth="yes"/>
      <point x="106" y="417"/>
      <point x="91" y="440"/>
      <point x="91" y="482" type="curve" smooth="yes"/>
      <point x="91" y="536"/>
      <point x="112" y="558"/>
      <point x="150" y="561" type="curve" smooth="yes"/>
      <point x="175" y="563" type="line"/>
      <point x="175" y="524" type="line" smooth="yes"/>
      <point x="175" y="461"/>
      <point x="158" y="417"/>
    </contour>
  </outline>
</glyph>
<glyph name="guillemotleft" format="2">
  <advance width="300"/>
  <unicode hex="00AB"/>
  <outline>
    <contour>
      <point x="211" y="82" type="line"/>
      <point x="226" y="92" type="line"/>
      <point x="162" y="268" type="line"/>
      <point x="226" y="444" type="line"/>
      <point x="211" y="455" type="line"/>
      <point x="135" y="274" type="line"/>
      <point x="135" y="261" type="line"/>
    </contour>
    <contour>
      <point x="120" y="82" type="line"/>
      <point x="135" y="92" type="line"/>
      <point x="71" y="268" type="line"/>
      <point x="134" y="444" type="line"/>
      <point x="120" y="455" type="line"/>
      <point x="43" y="274" type="line"/>
      <point x="43" y="261" type="line"/>
    </contour>
  </outline>
</glyph>
<glyph name="logicalnot" format="2">
  <advance width="300"/>
  <unicode hex="00AC"/>
  <outline>
    <contour>
      <point x="207" y="126" type="line"/>
      <point x="228" y="126" type="line"/>
      <point x="228" y="364" type="line"/>
      <point x="30" y="364" type="line"/>
      <point x="30" y="340" type="line"/>
      <point x="207" y="340" type="line"/>
    </contour>
  </outline>
</glyph>
<glyph name="registered" format="2">
  <advance width="300"/>
  <unicode hex="00AE"/>
  <outline>
    <contour>
      <point x="133" y="147" type="curve" smooth="yes"/>
      <point x="198" y="147"/>
      <point x="247" y="233"/>
      <point x="247" y="360" type="curve" smooth="yes"/>
      <point x="247" y="483"/>
      <point x="201" y="575"/>
      <point x="135" y="575" type="curve" smooth="yes"/>
      <point x="71" y="575"/>
      <point x="21" y="489"/>
      <point x="21" y="359" type="curve" smooth="yes"/>
      <point x="21" y="234"/>
      <point x="68" y="147"/>
    </contour>
    <contour>
      <point x="134" y="171" type="curve" smooth="yes"/>
      <point x="77" y="171"/>
      <point x="38" y="253"/>
      <point x="38" y="361" type="curve" smooth="yes"/>
      <point x="38" y="472"/>
      <point x="80" y="550"/>
      <point x="135" y="550" type="curve" smooth="yes"/>
      <point x="191" y="550"/>
      <point x="231" y="467"/>
      <point x="231" y="360" type="curve" smooth="yes"/>
      <point x="231" y="250"/>
      <point x="190" y="171"/>
    </contour>
    <contour>
      <point x="94" y="224" type="line"/>
      <point x="111" y="224" type="line"/>
      <point x="111" y="339" type="line"/>
      <point x="139" y="339" type="line"/>
      <point x="171" y="224" type="line"/>
      <point x="189" y="224" type="line"/>
      <point x="155" y="343" type="line"/>
      <point x="172" y="353"/>
      <point x="183" y="373"/>
      <point x="183" y="418" type="curve" smooth="yes"/>
      <point x="183" y="472"/>
      <point x="165" y="497"/>
      <point x="135" y="497" type="curve" smooth="yes"/>
      <point x="94" y="497" type="line"/>
    </contour>
    <contour>
      <point x="111" y="361" type="line"/>
      <point x="111" y="476" type="line"/>
      <point x="135" y="476" type="line" smooth="yes"/>
      <point x="155" y="476"/>
      <point x="167" y="460"/>
      <point x="167" y="418" type="curve" smooth="yes"/>
      <point x="167" y="374"/>
      <point x="153" y="361"/>
      <point x="135" y="361" type="curve" smooth="yes"/>
    </contour>
  </outline>
</glyph>
<glyph name="degree" format="2">
  <advance width="300"/>
  <unicode hex="00B0"/>
  <outline>
    <contour>
      <point x="135" y="460" type="curve" smooth="yes"/>
      <point x="175" y="460"/>
      <point x="205" y="511"/>
      <point x="205" y="592" type="curve" smooth="yes"/>
      <point x="205" y="675"/>
      <point x="173" y="724"/>
      <point x="135" y="724" type="curve" smooth="yes"/>
      <point x="98" y="724"/>
      <point x="66" y="677"/>
      <point x="66" y="592" type="curve" smooth="yes"/>
      <point x="66" y="506"/>
      <point x="98" y="460"/>
    </contour>
    <contour>
      <point x="135" y="483" type="curve" smooth="yes"/>
      <point x="107" y="483"/>
      <point x="84" y="524"/>
      <point x="84" y="592" type="curve" smooth="yes"/>
      <point x="84" y="657"/>
      <point x="104" y="701"/>
      <point x="135" y="701" type="curve" smooth="yes"/>
      <point x="166" y="701"/>
      <point x="187" y="657"/>
      <point x="187" y="591" type="curve" smooth="yes"/>
      <point x="187" y="524"/>
      <point x="165" y="483"/>
    </contour>
  </outline>
</glyph>
<glyph name="plusminus" format="2">
  <advance width="300"/>
  <unicode hex="00B1"/>
  <outline>
    <contour>
      <point x="123" y="123" type="line"/>
      <point x="143" y="123" type="line"/>
      <point x="143" y="340" type="line"/>
      <point x="234" y="340" type="line"/>
      <point x="234" y="364" type="line"/>
      <point x="143" y="364" type="line"/>
      <point x="143" y="583" type="line"/>
      <point x="123" y="583" type="line"/>
      <point x="123" y="364" type="line"/>
      <point x="30" y="364" type="line"/>
      <point x="30" y="340" type="line"/>
      <point x="123" y="340" type="line"/>
    </contour>
    <contour>
      <point x="30" y="1" type="line"/>
      <point x="232" y="1" type="line"/>
      <point x="232" y="26" type="line"/>
      <point x="30" y="26" type="line"/>
    </contour>
  </outline>
</glyph>
<glyph name="twosuperior" format="2">
  <advance width="300"/>
  <unicode hex="00B2"/>
  <outline>
    <contour>
      <point x="67" y="415" type="line"/>
      <point x="201" y="415" type="line"/>
      <point x="201" y="439" type="line"/>
      <point x="90" y="439" type="line"/>
      <point x="134" y="543" type="line" smooth="yes"/>
      <point x="171" y="630"/>
      <point x="195" y="676"/>
      <point x="195" y="742" type="curve" smooth="yes"/>
      <point x="195" y="807"/>
      <point x="172" y="854"/>
      <point x="133" y="854" type="curve" smooth="yes"/>
      <point x="107" y="854"/>
      <point x="87" y="837"/>
      <point x="70" y="809" type="curve"/>
      <point x="81" y="790" type="line"/>
      <point x="97" y="816"/>
      <point x="113" y="830"/>
      <point x="132" y="830" type="curve" smooth="yes"/>
      <point x="160" y="830"/>
      <point x="175" y="792"/>
      <point x="175" y="742" type="curve" smooth="yes"/>
      <point x="175" y="680"/>
      <point x="152" y="630"/>
      <point x="120" y="558" type="curve" smooth="yes"/>
      <point x="67" y="437" type="line"/>
    </contour>
  </outline>
</glyph>
<glyph name="threesuperior" format="2">
  <advance width="300"/>
  <unicode hex="00B3"/>
  <outline>
    <contour>
      <point x="122" y="411" type="curve" smooth="yes"/>
      <point x="168" y="411"/>
      <point x="198" y="455"/>
      <point x="198" y="535" type="curve" smooth="yes"/>
      <point x="198" y="593"/>
      <point x="182" y="628"/>
      <point x="154" y="642" type="curve"/>
      <point x="154" y="643" type="line"/>
      <point x="176" y="655"/>
      <point x="191" y="691"/>
      <point x="191" y="748" type="curve" smooth="yes"/>
      <point x="191" y="814"/>
      <point x="167" y="851"/>
      <point x="130" y="851" type="curve" smooth="yes"/>
      <point x="106" y="851"/>
      <point x="86" y="835"/>
      <point x="69" y="811" type="curve"/>
      <point x="77" y="790" type="line"/>
      <point x="93" y="812"/>
      <point x="109" y="827"/>
      <point x="130" y="827" type="curve" smooth="yes"/>
      <point x="157" y="827"/>
      <point x="173" y="797"/>
      <point x="173" y="748" type="curve" smooth="yes"/>
      <point x="173" y="689"/>
      <point x="154" y="652"/>
      <point x="122" y="652" type="curve" smooth="yes"/>
      <point x="98" y="652" type="line"/>
      <point x="98" y="628" type="line"/>
      <point x="123" y="628" type="line" smooth="yes"/>
      <point x="159" y="628"/>
      <point x="177" y="594"/>
      <point x="177" y="535" type="curve" smooth="yes"/>
      <point x="177" y="473"/>
      <point x="158" y="435"/>
      <point x="122" y="435" type="curve" smooth="yes"/>
      <point x="102" y="435"/>
      <point x="84" y="444"/>
      <point x="67" y="460" type="curve"/>
      <point x="67" y="432" type="line"/>
      <point x="82" y="419"/>
      <point x="101" y="411"/>
    </contour>
  </outline>
</glyph>
<glyph name="acute" format="2">
  <advance width="300"/>
  <unicode hex="00B4"/>
  <outline>
    <contour>
      <point x="117" y="606" type="line"/>
      <point x="132" y="606" type="line"/>
      <point x="156" y="647"/>
      <point x="187" y="711"/>
      <point x="203" y="758" type="curve"/>
      <point x="203" y="765" type="line"/>
      <point x="177" y="765" type="line"/>
      <point x="162" y="717"/>
      <point x="139" y="662"/>
      <point x="117" y="615" type="curve"/>
    </contour>
  </outline>
</glyph>
<glyph name="micro" format="2">
  <advance width="300"/>
  <unicode hex="00B5"/>
  <anchor x="140" y="528" name="top"/>
  <anchor x="243" y="10" name="ogonek"/>
  <anchor x="259" y="528" name="topright"/>
  <anchor x="140" y="0" name="bottom"/>
  <outline>
    <contour>
      <point x="43" y="-240" type="line"/>
      <point x="65" y="-240" type="line"/>
      <point x="65" y="227" type="line"/>
      <point x="43" y="227" type="line"/>
    </contour>
    <component base="u" xOffset="5"/>
  </outline>
</glyph>
<glyph name="paragraph" format="2">
  <advance width="300"/>
  <unicode hex="00B6"/>
  <outline>
    <contour>
      <point x="126" y="-127" type="line"/>
      <point x="144" y="-127" type="line"/>
      <point x="144" y="734" type="line"/>
      <point x="196" y="734" type="line"/>
      <point x="196" y="-127" type="line"/>
      <point x="214" y="-127" type="line"/>
      <point x="214" y="760" type="line"/>
      <point x="112" y="760" type="line" smooth="yes"/>
      <point x="60" y="760"/>
      <point x="38" y="684"/>
      <point x="38" y="556" type="curve" smooth="yes"/>
      <point x="38" y="438"/>
      <point x="57" y="346"/>
      <point x="103" y="346" type="curve" smooth="yes"/>
      <point x="111" y="346"/>
      <point x="119" y="349"/>
      <point x="126" y="355" type="curve"/>
    </contour>
  </outline>
</glyph>
<glyph name="cedilla" format="2">
  <advance width="300"/>
  <unicode hex="00B8"/>
  <outline>
    <contour>
      <point x="119" y="-240" type="curve" smooth="yes"/>
      <point x="156" y="-240"/>
      <point x="179" y="-203"/>
      <point x="179" y="-146" type="curve" smooth="yes"/>
      <point x="179" y="-99"/>
      <point x="164" y="-69"/>
      <point x="134" y="-64" type="curve"/>
      <point x="148" y="0" type="line"/>
      <point x="130" y="0" type="line"/>
      <point x="112" y="-83" type="line"/>
      <point x="142" y="-84"/>
      <point x="159" y="-101"/>
      <point x="159" y="-146" type="curve" smooth="yes"/>
      <point x="159" y="-192"/>
      <point x="143" y="-217"/>
      <point x="117" y="-217" type="curve" smooth="yes"/>
      <point x="110" y="-217"/>
      <point x="100" y="-215"/>
      <point x="92" y="-210" type="curve"/>
      <point x="92" y="-234" type="line"/>
      <point x="100" y="-238"/>
      <point x="110" y="-240"/>
    </contour>
  </outline>
</glyph>
<glyph name="onesuperior" format="2">
  <advance width="300"/>
  <unicode hex="00B9"/>
  <outline>
    <contour>
      <point x="132" y="416" type="line"/>
      <point x="151" y="416" type="line"/>
      <point x="151" y="843" type="line"/>
      <point x="136" y="843" type="line"/>
      <point x="70" y="768" type="line"/>
      <point x="80" y="748" type="line"/>
      <point x="109" y="783" type="line" smooth="yes"/>
      <point x="119" y="795"/>
      <point x="125" y="802"/>
      <point x="133" y="814" type="curve"/>
      <point x="132" y="784"/>
      <point x="132" y="742"/>
      <point x="132" y="708" type="curve" smooth="yes"/>
    </contour>
    <contour>
      <point x="79" y="416" type="line"/>
      <point x="203" y="416" type="line"/>
      <point x="203" y="435" type="line"/>
      <point x="148" y="440" type="line"/>
      <point x="134" y="440" type="line"/>
      <point x="79" y="435" type="line"/>
    </contour>
  </outline>
</glyph>
<glyph name="ordmasculine" format="2">
  <advance width="300"/>
  <unicode hex="00BA"/>
  <outline>
    <contour>
      <point x="135" y="396" type="curve" smooth="yes"/>
      <point x="180" y="396"/>
      <point x="203" y="467"/>
      <point x="203" y="562" type="curve" smooth="yes"/>
      <point x="203" y="654"/>
      <point x="181" y="725"/>
      <point x="137" y="725" type="curve" smooth="yes"/>
      <point x="93" y="725"/>
      <point x="68" y="661"/>
      <point x="68" y="559" type="curve" smooth="yes"/>
      <point x="68" y="464"/>
      <point x="92" y="396"/>
    </contour>
    <contour>
      <point x="135" y="417" type="curve" smooth="yes"/>
      <point x="103" y="417"/>
      <point x="87" y="475"/>
      <point x="87" y="559" type="curve" smooth="yes"/>
      <point x="87" y="650"/>
      <point x="106" y="704"/>
      <point x="136" y="704" type="curve" smooth="yes"/>
      <point x="168" y="704"/>
      <point x="184" y="640"/>
      <point x="184" y="560" type="curve" smooth="yes"/>
      <point x="184" y="477"/>
      <point x="168" y="417"/>
    </contour>
  </outline>
</glyph>
<glyph name="AE" format="2">
  <advance width="300"/>
  <unicode hex="00C6"/>
  <anchor x="135" y="0" name="bottom"/>
  <anchor x="159" y="714" name="top"/>
  <outline>
    <contour>
      <point x="15" y="0" type="line"/>
      <point x="37" y="0" type="line"/>
      <point x="121" y="689" type="line"/>
      <point x="137" y="689" type="line"/>
      <point x="137" y="0" type="line"/>
      <point x="251" y="0" type="line"/>
      <point x="251" y="25" type="line"/>
      <point x="158" y="25" type="line"/>
      <point x="158" y="364" type="line"/>
      <point x="243" y="364" type="line"/>
      <point x="243" y="389" type="line"/>
      <point x="158" y="389" type="line"/>
      <point x="158" y="689" type="line"/>
      <point x="251" y="689" type="line"/>
      <point x="251" y="714" type="line"/>
      <point x="104" y="714" type="line"/>
    </contour>
    <contour>
      <point x="62" y="275" type="line"/>
      <point x="144" y="275" type="line"/>
      <point x="143" y="300" type="line"/>
      <point x="66" y="300" type="line"/>
    </contour>
  </outline>
</glyph>
<glyph name="Eth" format="2">
  <advance width="300"/>
  <unicode hex="00D0"/>
  <anchor x="135" y="0" name="bottom"/>
  <anchor x="135" y="714" name="top"/>
  <anchor x="275" y="714" name="topright"/>
  <anchor x="146" y="357" name="center"/>
  <outline>
    <contour>
      <point x="5" y="353" type="line"/>
      <point x="141" y="353" type="line"/>
      <point x="141" y="378" type="line"/>
      <point x="5" y="378" type="line"/>
    </contour>
    <component base="D" xOffset="10"/>
  </outline>
</glyph>
<glyph name="multiply" format="2">
  <advance width="300"/>
  <unicode hex="00D7"/>
  <outline>
    <contour>
      <point x="46" y="166" type="line"/>
      <point x="130" y="337" type="line"/>
      <point x="212" y="167" type="line"/>
      <point x="227" y="183" type="line"/>
      <point x="144" y="354" type="line"/>
      <point x="228" y="525" type="line"/>
      <point x="213" y="541" type="line"/>
      <point x="130" y="370" type="line"/>
      <point x="47" y="541" type="line"/>
      <point x="33" y="524" type="line"/>
      <point x="117" y="354" type="line"/>
      <point x="33" y="183" type="line"/>
    </contour>
  </outline>
</glyph>
<glyph name="Oslash" format="2">
  <advance width="300"/>
  <unicode hex="00D8"/>
  <anchor x="135" y="0" name="bottom"/>
  <anchor x="135" y="714" name="top"/>
  <anchor x="21" y="714" name="topleft"/>
  <anchor x="140" y="10" name="ogonek"/>
  <anchor x="140" y="357" name="center"/>
  <anchor x="269" y="714" name="topright"/>
  <outline>
    <contour>
      <point x="29" y="-28" type="line"/>
      <point x="252" y="724" type="line"/>
      <point x="236" y="737" type="line"/>
      <point x="12" y="-15" type="line"/>
    </contour>
    <component base="O" xOffset="5"/>
  </outline>
</glyph>
<glyph name="Thorn" format="2">
  <advance width="300"/>
  <unicode hex="00DE"/>
  <anchor x="135" y="0" name="bottom"/>
  <anchor x="135" y="714" name="top"/>
  <outline>
    <contour>
      <point x="51" y="0" type="line"/>
      <point x="74" y="0" type="line"/>
      <point x="74" y="176" type="line"/>
      <point x="134" y="176" type="line" smooth="yes"/>
      <point x="207" y="176"/>
      <point x="243" y="242"/>
      <point x="243" y="385" type="curve" smooth="yes"/>
      <point x="243" y="533"/>
      <point x="204" y="584"/>
      <point x="133" y="584" type="curve" smooth="yes"/>
      <point x="74" y="584" type="line"/>
      <point x="74" y="714" type="line"/>
      <point x="51" y="714" type="line"/>
    </contour>
    <contour>
      <point x="74" y="201" type="line"/>
      <point x="74" y="559" type="line"/>
      <point x="129" y="559" type="line" smooth="yes"/>
      <point x="190" y="559"/>
      <point x="219" y="515"/>
      <point x="219" y="386" type="curve" smooth="yes"/>
      <point x="219" y="255"/>
      <point x="190" y="201"/>
      <point x="130" y="201" type="curve" smooth="yes"/>
    </contour>
  </outline>
</glyph>
<glyph name="germandbls" format="2">
  <advance width="300"/>
  <unicode hex="00DF"/>
  <anchor x="135" y="0" name="bottom"/>
  <anchor x="135" y="765" name="top"/>
  <outline>
    <contour>
      <point x="165" y="-10" type="curve" smooth="yes"/>
      <point x="216" y="-10"/>
      <point x="241" y="58"/>
      <point x="241" y="135" type="curve" smooth="yes"/>
      <point x="241" y="213"/>
      <point x="223" y="252"/>
      <point x="197" y="298" type="curve" smooth="yes"/>
      <point x="174" y="339"/>
      <point x="159" y="368"/>
      <point x="159" y="424" type="curve" smooth="yes"/>
      <point x="159" y="520"/>
      <point x="215" y="523"/>
      <point x="215" y="643" type="curve" smooth="yes"/>
      <point x="215" y="713"/>
      <point x="188" y="765"/>
      <point x="141" y="765" type="curve" smooth="yes"/>
      <point x="86" y="765"/>
      <point x="57" y="695"/>
      <point x="57" y="572" type="curve" smooth="yes"/>
      <point x="57" y="0" type="line"/>
      <point x="80" y="0" type="line"/>
      <point x="80" y="571" type="line" smooth="yes"/>
      <point x="80" y="676"/>
      <point x="98" y="740"/>
      <point x="140" y="740" type="curve" smooth="yes"/>
      <point x="174" y="740"/>
      <point x="191" y="700"/>
      <point x="191" y="643" type="curve" smooth="yes"/>
      <point x="191" y="535"/>
      <point x="136" y="532"/>
      <point x="136" y="424" type="curve" smooth="yes"/>
      <point x="136" y="360"/>
      <point x="155" y="325"/>
      <point x="179" y="281" type="curve" smooth="yes"/>
      <point x="201" y="240"/>
      <point x="218" y="204"/>
      <point x="218" y="135" type="curve" smooth="yes"/>
      <point x="218" y="65"/>
      <point x="198" y="15"/>
      <point x="163" y="15" type="curve" smooth="yes"/>
      <point x="144" y="15"/>
      <point x="127" y="24"/>
      <point x="110" y="43" type="curve"/>
      <point x="110" y="15" type="line"/>
      <point x="125" y="0"/>
      <point x="142" y="-10"/>
    </contour>
  </outline>
</glyph>
<glyph name="ae" format="2">
  <advance width="300"/>
  <unicode hex="00E6"/>
  <anchor x="135" y="0" name="bottom"/>
  <anchor x="135" y="528" name="top"/>
  <outline>
    <contour>
      <point x="75" y="-10" type="curve" smooth="yes"/>
      <point x="111" y="-10"/>
      <point x="127" y="49"/>
      <point x="134" y="135" type="curve"/>
      <point x="144" y="49"/>
      <point x="164" y="-10"/>
      <point x="197" y="-10" type="curve" smooth="yes"/>
      <point x="213" y="-10"/>
      <point x="228" y="0"/>
      <point x="244" y="22" type="curve"/>
      <point x="244" y="50" type="line"/>
      <point x="224" y="21"/>
      <point x="211" y="15"/>
      <point x="200" y="15" type="curve" smooth="yes"/>
      <point x="162" y="15"/>
      <point x="145" y="126"/>
      <point x="145" y="270" type="curve"/>
      <point x="254" y="270" type="line"/>
      <point x="254" y="297" type="line" smooth="yes"/>
      <point x="254" y="434"/>
      <point x="235" y="538"/>
      <point x="194" y="538" type="curve" smooth="yes"/>
      <point x="164" y="538"/>
      <point x="145" y="474"/>
      <point x="137" y="395" type="curve"/>
      <point x="131" y="490"/>
      <point x="113" y="537"/>
      <point x="82" y="537" type="curve" smooth="yes"/>
      <point x="60" y="537"/>
      <point x="42" y="523"/>
      <point x="26" y="502" type="curve"/>
      <point x="34" y="479" type="line"/>
      <point x="51" y="504"/>
      <point x="65" y="512"/>
      <point x="79" y="512" type="curve" smooth="yes"/>
      <point x="108" y="512"/>
      <point x="121" y="465"/>
      <point x="121" y="354" type="curve" smooth="yes"/>
      <point x="121" y="296" type="line"/>
      <point x="101" y="294" type="line" smooth="yes"/>
      <point x="48" y="289"/>
      <point x="17" y="237"/>
      <point x="17" y="128" type="curve" smooth="yes"/>
      <point x="17" y="48"/>
      <point x="36" y="-10"/>
    </contour>
    <contour>
      <point x="76" y="15" type="curve" smooth="yes"/>
      <point x="52" y="15"/>
      <point x="39" y="61"/>
      <point x="39" y="127" type="curve" smooth="yes"/>
      <point x="39" y="216"/>
      <point x="60" y="264"/>
      <point x="102" y="269" type="curve" smooth="yes"/>
      <point x="121" y="271" type="line"/>
      <point x="121" y="200" type="line" smooth="yes"/>
      <point x="121" y="107"/>
      <point x="109" y="15"/>
    </contour>
    <contour>
      <point x="145" y="295" type="line"/>
      <point x="147" y="430"/>
      <point x="167" y="513"/>
      <point x="193" y="513" type="curve" smooth="yes"/>
      <point x="220" y="513"/>
      <point x="232" y="418"/>
      <point x="232" y="295" type="curve"/>
    </contour>
  </outline>
</glyph>
<glyph name="eth" format="2">
  <advance width="300"/>
  <unicode hex="00F0"/>
  <anchor x="135" y="0" name="bottom"/>
  <anchor x="135" y="264" name="center"/>
  <anchor x="135" y="757" name="top"/>
  <anchor x="255" y="760" name="topright"/>
  <outline>
    <contour>
      <point x="134" y="-10" type="curve" smooth="yes"/>
      <point x="200" y="-10"/>
      <point x="238" y="89"/>
      <point x="238" y="272" type="curve" smooth="yes"/>
      <point x="238" y="460"/>
      <point x="196" y="669"/>
      <point x="98" y="757" type="curve"/>
      <point x="87" y="740" type="line"/>
      <point x="148" y="676"/>
      <point x="194" y="543"/>
      <point x="208" y="390" type="curve"/>
      <point x="206" y="390" type="line"/>
      <point x="194" y="433"/>
      <point x="169" y="464"/>
      <point x="136" y="464" type="curve" smooth="yes"/>
      <point x="75" y="464"/>
      <point x="34" y="373"/>
      <point x="34" y="224" type="curve" smooth="yes"/>
      <point x="34" y="95"/>
      <point x="67" y="-10"/>
    </contour>
    <contour>
      <point x="134" y="15" type="curve" smooth="yes"/>
      <point x="85" y="15"/>
      <point x="56" y="97"/>
      <point x="56" y="225" type="curve" smooth="yes"/>
      <point x="56" y="357"/>
      <point x="87" y="439"/>
      <point x="140" y="439" type="curve" smooth="yes"/>
      <point x="191" y="439"/>
      <point x="213" y="358"/>
      <point x="213" y="243" type="curve" smooth="yes"/>
      <point x="213" y="112"/>
      <point x="185" y="15"/>
    </contour>
    <contour>
      <point x="89" y="602" type="line"/>
      <point x="207" y="734" type="line"/>
      <point x="196" y="755" type="line"/>
      <point x="79" y="622" type="line"/>
    </contour>
  </outline>
</glyph>
<glyph name="divide" format="2">
  <advance width="300"/>
  <unicode hex="00F7"/>
  <outline>
    <contour>
      <point x="32" y="341" type="line"/>
      <point x="237" y="341" type="line"/>
      <point x="237" y="365" type="line"/>
      <point x="32" y="365" type="line"/>
    </contour>
    <contour>
      <point x="135" y="142" type="curve" smooth="yes"/>
      <point x="148" y="142"/>
      <point x="152" y="157"/>
      <point x="152" y="176" type="curve" smooth="yes"/>
      <point x="152" y="193"/>
      <point x="148" y="209"/>
      <point x="135" y="209" type="curve" smooth="yes"/>
      <point x="122" y="209"/>
      <point x="118" y="194"/>
      <point x="118" y="175" type="curve" smooth="yes"/>
      <point x="118" y="158"/>
      <point x="122" y="142"/>
    </contour>
    <contour>
      <point x="135" y="497" type="curve" smooth="yes"/>
      <point x="148" y="497"/>
      <point x="152" y="512"/>
      <point x="152" y="530" type="curve" smooth="yes"/>
      <point x="152" y="548"/>
      <point x="148" y="564"/>
      <point x="135" y="564" type="curve" smooth="yes"/>
      <point x="122" y="564"/>
      <point x="118" y="548"/>
      <point x="118" y="531" type="curve" smooth="yes"/>
      <point x="118" y="512"/>
      <point x="122" y="497"/>
    </contour>
  </outline>
</glyph>
<glyph name="oslash" format="2">
  <advance width="300"/>
  <unicode hex="00F8"/>
  <anchor x="135" y="0" name="bottom"/>
  <anchor x="135" y="528" name="top"/>
  <anchor x="140" y="15" name="ogonek"/>
  <anchor x="260" y="528" name="topright"/>
  <anchor x="140" y="264" name="center"/>
  <outline>
    <contour>
      <point x="42" y="-54" type="line"/>
      <point x="243" y="557" type="line"/>
      <point x="228" y="570" type="line"/>
      <point x="27" y="-40" type="line"/>
    </contour>
    <component base="o" xOffset="5"/>
  </outline>
</glyph>
<glyph name="thorn" format="2">
  <advance width="300"/>
  <unicode hex="00FE"/>
  <anchor x="143" y="-240" name="bottom"/>
  <anchor x="143" y="714" name="top"/>
  <outline>
    <contour>
      <point x="45" y="-240" type="line"/>
      <point x="68" y="-240" type="line"/>
      <point x="68" y="11" type="line" smooth="yes"/>
      <point x="68" y="48"/>
      <point x="68" y="83"/>
      <point x="67" y="112" type="curve"/>
      <point x="68" y="112" type="line"/>
      <point x="79" y="50"/>
      <point x="101" y="-10"/>
      <point x="143" y="-10" type="curve" smooth="yes"/>
      <point x="200" y="-10"/>
      <point x="237" y="83"/>
      <point x="237" y="270" type="curve" smooth="yes"/>
      <point x="237" y="448"/>
      <point x="205" y="537"/>
      <point x="145" y="537" type="curve" smooth="yes"/>
      <point x="102" y="537"/>
      <point x="79" y="472"/>
      <point x="67" y="403" type="curve"/>
      <point x="66" y="403" type="line"/>
      <point x="68" y="444"/>
      <point x="68" y="486"/>
      <point x="68" y="527" type="curve" smooth="yes"/>
      <point x="68" y="714" type="line"/>
      <point x="45" y="714" type="line"/>
    </contour>
    <contour>
      <point x="139" y="15" type="curve" smooth="yes"/>
      <point x="96" y="15"/>
      <point x="68" y="95"/>
      <point x="68" y="241" type="curve" smooth="yes"/>
      <point x="68" y="279" type="line" smooth="yes"/>
      <point x="68" y="419"/>
      <point x="94" y="512"/>
      <point x="141" y="512" type="curve" smooth="yes"/>
      <point x="189" y="512"/>
      <point x="213" y="429"/>
      <point x="213" y="270" type="curve" smooth="yes"/>
      <point x="213" y="90"/>
      <point x="184" y="15"/>
    </contour>
  </outline>
</glyph>
<glyph name="dcaron" format="2">
  <advance width="300"/>
  <unicode hex="010F"/>
  <anchor x="114" y="0" name="bottom"/>
  <anchor x="114" y="264" name="center"/>
  <anchor x="140" y="760" name="top"/>
  <anchor x="234" y="760" name="topright"/>
  <outline>
    <contour>
      <point x="112" y="-10" type="curve" smooth="yes"/>
      <point x="151" y="-10"/>
      <point x="171" y="43"/>
      <point x="182" y="110" type="curve"/>
      <point x="183" y="110" type="line"/>
      <point x="186" y="0" type="line"/>
      <point x="205" y="0" type="line"/>
      <point x="205" y="760" type="line"/>
      <point x="182" y="760" type="line"/>
      <point x="182" y="520" type="line" smooth="yes"/>
      <point x="182" y="488"/>
      <point x="182" y="457"/>
      <point x="183" y="422" type="curve"/>
      <point x="182" y="422" type="line"/>
      <point x="172" y="482"/>
      <point x="152" y="538"/>
      <point x="114" y="538" type="curve" smooth="yes"/>
      <point x="60" y="538"/>
      <point x="28" y="439"/>
      <point x="28" y="255" type="curve" smooth="yes"/>
      <point x="28" y="83"/>
      <point x="57" y="-10"/>
    </contour>
    <contour>
      <point x="116" y="15" type="curve" smooth="yes"/>
      <point x="71" y="15"/>
      <point x="51" y="99"/>
      <point x="51" y="255" type="curve" smooth="yes"/>
      <point x="51" y="427"/>
      <point x="75" y="513"/>
      <point x="119" y="513" type="curve" smooth="yes"/>
      <point x="162" y="513"/>
      <point x="182" y="428"/>
      <point x="182" y="291" type="curve" smooth="yes"/>
      <point x="182" y="242" type="line" smooth="yes"/>
      <point x="182" y="102"/>
      <point x="163" y="15"/>
    </contour>
    <component base="caroncommaaccent" xOffset="124"/>
  </outline>
</glyph>
<glyph name="dcroat" format="2">
  <advance width="300"/>
  <unicode hex="0111"/>
  <anchor x="135" y="0" name="bottom"/>
  <anchor x="135" y="264" name="center"/>
  <anchor x="135" y="760" name="top"/>
  <anchor x="255" y="760" name="topright"/>
  <outline>
    <contour>
      <point x="124" y="-10" type="curve" smooth="yes"/>
      <point x="169" y="-10"/>
      <point x="192" y="49"/>
      <point x="203" y="110" type="curve"/>
      <point x="204" y="110" type="line"/>
      <point x="207" y="0" type="line"/>
      <point x="225" y="0" type="line"/>
      <point x="225" y="760" type="line"/>
      <point x="203" y="760" type="line"/>
      <point x="203" y="520" type="line" smooth="yes"/>
      <point x="203" y="488"/>
      <point x="204" y="457"/>
      <point x="204" y="422" type="curve"/>
      <point x="203" y="422" type="line"/>
      <point x="193" y="482"/>
      <point x="169" y="538"/>
      <point x="127" y="538" type="curve" smooth="yes"/>
      <point x="68" y="538"/>
      <point x="34" y="439"/>
      <point x="34" y="255" type="curve" smooth="yes"/>
      <point x="34" y="83"/>
      <point x="64" y="-10"/>
    </contour>
    <contour>
      <point x="128" y="15" type="curve" smooth="yes"/>
      <point x="79" y="15"/>
      <point x="57" y="99"/>
      <point x="57" y="255" type="curve" smooth="yes"/>
      <point x="57" y="426"/>
      <point x="83" y="513"/>
      <point x="131" y="513" type="curve" smooth="yes"/>
      <point x="180" y="513"/>
      <point x="203" y="429"/>
      <point x="203" y="291" type="curve" smooth="yes"/>
      <point x="203" y="242" type="line" smooth="yes"/>
      <point x="203" y="102"/>
      <point x="181" y="15"/>
    </contour>
    <contour>
      <point x="110" y="632" type="line"/>
      <point x="265" y="632" type="line"/>
      <point x="265" y="657" type="line"/>
      <point x="110" y="657" type="line"/>
    </contour>
  </outline>
</glyph>
<glyph name="eogonek" format="2">
  <advance width="300"/>
  <unicode hex="0119"/>
  <anchor x="135" y="-217" name="bottom"/>
  <anchor x="130" y="528" name="top"/>
  <anchor x="145" y="10" name="ogonek"/>
  <anchor x="257" y="528" name="topright"/>
  <outline>
    <contour>
      <point x="189" y="-217" type="curve" smooth="yes"/>
      <point x="200" y="-217"/>
      <point x="210" y="-213"/>
      <point x="216" y="-209" type="curve"/>
      <point x="216" y="-185" type="line"/>
      <point x="210" y="-189"/>
      <point x="201" y="-192"/>
      <point x="193" y="-192" type="curve" smooth="yes"/>
      <point x="174" y="-192"/>
      <point x="165" y="-170"/>
      <point x="165" y="-132" type="curve" smooth="yes"/>
      <point x="165" y="-66"/>
      <point x="191" y="-16"/>
      <point x="220" y="23" type="curve"/>
      <point x="207" y="34" type="line"/>
      <point x="174" y="-13"/>
      <point x="144" y="-65"/>
      <point x="144" y="-132" type="curve" smooth="yes"/>
      <point x="144" y="-191"/>
      <point x="162" y="-217"/>
    </contour>
    <component base="e" xOffset="1"/>
  </outline>
</glyph>
<glyph name="Hbar" format="2">
  <advance width="300"/>
  <unicode hex="0126"/>
  <anchor x="135" y="0" name="bottom"/>
  <anchor x="135" y="357" name="center"/>
  <anchor x="135" y="714" name="top"/>
  <anchor x="16" y="714" name="topleft"/>
  <outline>
    <contour>
      <point x="5" y="548" type="line"/>
      <point x="264" y="548" type="line"/>
      <point x="264" y="573" type="line"/>
      <point x="5" y="573" type="line"/>
    </contour>
    <contour>
      <point x="36" y="0" type="line"/>
      <point x="59" y="0" type="line"/>
      <point x="59" y="363" type="line"/>
      <point x="211" y="363" type="line"/>
      <point x="211" y="0" type="line"/>
      <point x="233" y="0" type="line"/>
      <point x="233" y="714" type="line"/>
      <point x="211" y="714" type="line"/>
      <point x="211" y="388" type="line"/>
      <point x="59" y="388" type="line"/>
      <point x="59" y="714" type="line"/>
      <point x="36" y="714" type="line"/>
    </contour>
  </outline>
</glyph>
<glyph name="hbar" format="2">
  <advance width="300"/>
  <unicode hex="0127"/>
  <anchor x="135" y="0" name="bottom"/>
  <anchor x="135" y="264" name="center"/>
  <anchor x="56" y="760" name="top"/>
  <outline>
    <contour>
      <point x="5" y="632" type="line"/>
      <point x="160" y="632" type="line"/>
      <point x="160" y="657" type="line"/>
      <point x="5" y="657" type="line"/>
    </contour>
    <contour>
      <point x="45" y="0" type="line"/>
      <point x="69" y="0" type="line"/>
      <point x="69" y="300" type="line" smooth="yes"/>
      <point x="69" y="447"/>
      <point x="100" y="513"/>
      <point x="143" y="513" type="curve" smooth="yes"/>
      <point x="182" y="513"/>
      <point x="204" y="467"/>
      <point x="204" y="353" type="curve" smooth="yes"/>
      <point x="204" y="0" type="line"/>
      <point x="227" y="0" type="line"/>
      <point x="227" y="356" type="line" smooth="yes"/>
      <point x="227" y="479"/>
      <point x="197" y="538"/>
      <point x="148" y="538" type="curve" smooth="yes"/>
      <point x="102" y="538"/>
      <point x="78" y="478"/>
      <point x="69" y="421" type="curve"/>
      <point x="67" y="421" type="line"/>
      <point x="68" y="446"/>
      <point x="69" y="464"/>
      <point x="69" y="494" type="curve" smooth="yes"/>
      <point x="69" y="760" type="line"/>
      <point x="45" y="760" type="line"/>
    </contour>
  </outline>
</glyph>
<glyph name="idotless" format="2">
  <advance width="269"/>
  <unicode hex="0131"/>
  <anchor x="135" y="0" name="bottom"/>
  <anchor x="239" y="10" name="ogonek"/>
  <anchor x="135" y="528" name="top"/>
  <outline>
    <contour>
      <point x="46" y="0" type="line"/>
      <point x="229" y="0" type="line"/>
      <point x="229" y="21" type="line"/>
      <point x="152" y="25" type="line"/>
      <point x="152" y="528" type="line"/>
      <point x="55" y="528" type="line"/>
      <point x="55" y="507" type="line"/>
      <point x="129" y="503" type="line"/>
      <point x="129" y="25" type="line"/>
      <point x="46" y="21" type="line"/>
    </contour>
  </outline>
</glyph>
<glyph name="IJ" format="2">
  <advance width="300"/>
  <unicode hex="0132"/>
  <anchor x="135" y="0" name="bottom"/>
  <anchor x="6" y="0" name="caret_1"/>
  <anchor x="135" y="714" name="top"/>
  <anchor x="17" y="714" name="topleft"/>
  <outline>
    <contour>
      <point x="126" y="-15" type="curve" smooth="yes"/>
      <point x="186" y="-15"/>
      <point x="208" y="57"/>
      <point x="208" y="176" type="curve" smooth="yes"/>
      <point x="208" y="714" type="line"/>
      <point x="186" y="714" type="line"/>
      <point x="186" y="184" type="line" smooth="yes"/>
      <point x="186" y="67"/>
      <point x="168" y="9"/>
      <point x="125" y="9" type="curve" smooth="yes"/>
      <point x="98" y="9"/>
      <point x="71" y="36"/>
      <point x="60" y="55" type="curve"/>
      <point x="60" y="27" type="line"/>
      <point x="75" y="5"/>
      <point x="100" y="-15"/>
    </contour>
    <contour>
      <point x="60" y="147" type="line"/>
      <point x="83" y="147" type="line"/>
      <point x="83" y="714" type="line"/>
      <point x="60" y="714" type="line"/>
    </contour>
  </outline>
</glyph>
<glyph name="ij" format="2">
  <advance width="300"/>
  <unicode hex="0133"/>
  <anchor x="143" y="-248" name="bottom"/>
  <anchor x="5" y="0" name="caret_1"/>
  <anchor x="139" y="724" name="top"/>
  <outline>
    <contour>
      <point x="127" y="-248" type="curve" smooth="yes"/>
      <point x="176" y="-248"/>
      <point x="206" y="-196"/>
      <point x="206" y="-88" type="curve" smooth="yes"/>
      <point x="206" y="528" type="line"/>
      <point x="184" y="528" type="line"/>
      <point x="184" y="-81" type="line" smooth="yes"/>
      <point x="184" y="-168"/>
      <point x="164" y="-222"/>
      <point x="126" y="-222" type="curve" smooth="yes"/>
      <point x="107" y="-222"/>
      <point x="78" y="-210"/>
      <point x="66" y="-201" type="curve"/>
      <point x="66" y="-228" type="line"/>
      <point x="78" y="-234"/>
      <point x="104" y="-248"/>
    </contour>
    <contour>
      <point x="64" y="0" type="line"/>
      <point x="88" y="0" type="line"/>
      <point x="88" y="528" type="line"/>
      <point x="64" y="528" type="line"/>
    </contour>
    <contour>
      <point x="77" y="650" type="curve" smooth="yes"/>
      <point x="92" y="650"/>
      <point x="96" y="669"/>
      <point x="96" y="687" type="curve" smooth="yes"/>
      <point x="96" y="706"/>
      <point x="90" y="724"/>
      <point x="77" y="724" type="curve" smooth="yes"/>
      <point x="61" y="724"/>
      <point x="56" y="706"/>
      <point x="56" y="687" type="curve" smooth="yes"/>
      <point x="56" y="667"/>
      <point x="62" y="650"/>
    </contour>
    <contour>
      <point x="194" y="650" type="curve" smooth="yes"/>
      <point x="209" y="650"/>
      <point x="215" y="669"/>
      <point x="215" y="687" type="curve" smooth="yes"/>
      <point x="215" y="706"/>
      <point x="209" y="724"/>
      <point x="194" y="724" type="curve" smooth="yes"/>
      <point x="179" y="724"/>
      <point x="173" y="706"/>
      <point x="173" y="687" type="curve" smooth="yes"/>
      <point x="173" y="667"/>
      <point x="180" y="650"/>
    </contour>
  </outline>
</glyph>
<glyph name="kgreenlandic" format="2">
  <advance width="300"/>
  <unicode hex="0138"/>
  <anchor x="135" y="0" name="bottom"/>
  <anchor x="135" y="528" name="top"/>
  <outline>
    <contour>
      <point x="60" y="0" type="line"/>
      <point x="83" y="0" type="line"/>
      <point x="83" y="185" type="line"/>
      <point x="124" y="286" type="line"/>
      <point x="220" y="0" type="line"/>
      <point x="246" y="0" type="line"/>
      <point x="139" y="307" type="line"/>
      <point x="239" y="528" type="line"/>
      <point x="210" y="528" type="line"/>
      <point x="106" y="277" type="line" smooth="yes"/>
      <point x="98" y="258"/>
      <point x="91" y="239"/>
      <point x="82" y="217" type="curve"/>
      <point x="82" y="217" type="line"/>
      <point x="83" y="272"/>
      <point x="83" y="318"/>
      <point x="83" y="373" type="curve" smooth="yes"/>
      <point x="83" y="528" type="line"/>
      <point x="60" y="528" type="line"/>
    </contour>
  </outline>
</glyph>
<glyph name="Lslash" format="2">
  <advance width="300"/>
  <unicode hex="0141"/>
  <anchor x="163" y="0" name="bottom"/>
  <anchor x="85" y="714" name="top"/>
  <anchor x="194" y="714" name="topright"/>
  <anchor x="134" y="357" name="center"/>
  <outline>
    <contour>
      <point x="13" y="320" type="line"/>
      <point x="163" y="471" type="line"/>
      <point x="163" y="496" type="line"/>
      <point x="13" y="346" type="line"/>
    </contour>
    <component base="L"/>
  </outline>
</glyph>
<glyph name="lslash" format="2">
  <advance width="300"/>
  <unicode hex="0142"/>
  <anchor x="134" y="0" name="bottom"/>
  <anchor x="134" y="760" name="top"/>
  <anchor x="217" y="760" name="topright"/>
  <anchor x="142" y="376" name="center"/>
  <outline>
    <contour>
      <point x="72" y="320" type="line"/>
      <point x="222" y="471" type="line"/>
      <point x="222" y="496" type="line"/>
      <point x="72" y="346" type="line"/>
    </contour>
    <component base="l" xOffset="5"/>
  </outline>
</glyph>
<glyph name="napostrophe" format="2">
  <advance width="300"/>
  <unicode hex="0149"/>
  <anchor x="141" y="0" name="bottom"/>
  <anchor x="139" y="528" name="top"/>
  <outline>
    <contour>
      <point x="51" y="0" type="line"/>
      <point x="75" y="0" type="line"/>
      <point x="75" y="307" type="line" smooth="yes"/>
      <point x="75" y="447"/>
      <point x="104" y="512"/>
      <point x="148" y="512" type="curve" smooth="yes"/>
      <point x="183" y="512"/>
      <point x="205" y="466"/>
      <point x="205" y="355" type="curve" smooth="yes"/>
      <point x="205" y="0" type="line"/>
      <point x="229" y="0" type="line"/>
      <point x="229" y="361" type="line" smooth="yes"/>
      <point x="229" y="483"/>
      <point x="200" y="537"/>
      <point x="153" y="537" type="curve" smooth="yes"/>
      <point x="108" y="537"/>
      <point x="85" y="478"/>
      <point x="75" y="416" type="curve"/>
      <point x="73" y="416" type="line"/>
      <point x="70" y="528" type="line"/>
      <point x="51" y="528" type="line"/>
    </contour>
    <component base="quoteright" xOffset="-116"/>
  </outline>
</glyph>
<glyph name="Eng" format="2">
  <advance width="300"/>
  <unicode hex="014A"/>
  <anchor x="144" y="-175" name="bottom"/>
  <anchor x="132" y="714" name="top"/>
  <anchor x="265" y="714" name="topright"/>
  <outline>
    <contour>
      <point x="164" y="-175" type="curve" smooth="yes"/>
      <point x="210" y="-175"/>
      <point x="233" y="-125"/>
      <point x="233" y="-2" type="curve" smooth="yes"/>
      <point x="233" y="42" type="line"/>
      <point x="214" y="42" type="line"/>
      <point x="214" y="0" type="line" smooth="yes"/>
      <point x="214" y="-106"/>
      <point x="195" y="-150"/>
      <point x="161" y="-150" type="curve" smooth="yes"/>
      <point x="150" y="-150"/>
      <point x="137" y="-144"/>
      <point x="128" y="-137" type="curve"/>
      <point x="128" y="-162" type="line"/>
      <point x="136" y="-169"/>
      <point x="151" y="-175"/>
    </contour>
    <component base="N"/>
  </outline>
</glyph>
<glyph name="eng" format="2">
  <advance width="300"/>
  <unicode hex="014B"/>
  <anchor x="135" y="-241" name="bottom"/>
  <anchor x="133" y="528" name="top"/>
  <anchor x="255" y="528" name="topright"/>
  <outline>
    <contour>
      <point x="166" y="-241" type="curve" smooth="yes"/>
      <point x="201" y="-241"/>
      <point x="222" y="-202"/>
      <point x="221" y="-116" type="curve" smooth="yes"/>
      <point x="211" y="270" type="line" smooth="yes"/>
      <point x="211" y="267" type="line"/>
      <point x="200" y="-114" type="line" smooth="yes"/>
      <point x="198" y="-178"/>
      <point x="187" y="-216"/>
      <point x="164" y="-216" type="curve" smooth="yes"/>
      <point x="156" y="-216"/>
      <point x="144" y="-214"/>
      <point x="136" y="-207" type="curve"/>
      <point x="136" y="-233" type="line"/>
      <point x="143" y="-238"/>
      <point x="154" y="-241"/>
    </contour>
    <component base="n"/>
  </outline>
</glyph>
<glyph name="OE" format="2">
  <advance width="300"/>
  <unicode hex="0152"/>
  <anchor x="135" y="0" name="bottom"/>
  <anchor x="135" y="714" name="top"/>
  <outline>
    <contour>
      <point x="133" y="-2" type="curve" smooth="yes"/>
      <point x="145" y="-2"/>
      <point x="155" y="0"/>
      <point x="164" y="0" type="curve" smooth="yes"/>
      <point x="252" y="0" type="line"/>
      <point x="252" y="25" type="line"/>
      <point x="163" y="25" type="line"/>
      <point x="163" y="363" type="line"/>
      <point x="245" y="363" type="line"/>
      <point x="245" y="388" type="line"/>
      <point x="163" y="388" type="line"/>
      <point x="163" y="690" type="line"/>
      <point x="252" y="690" type="line"/>
      <point x="252" y="714" type="line"/>
      <point x="166" y="714" type="line"/>
      <point x="155" y="714"/>
      <point x="145" y="714"/>
      <point x="135" y="714" type="curve" smooth="yes"/>
      <point x="54" y="714"/>
      <point x="28" y="571"/>
      <point x="28" y="359" type="curve" smooth="yes"/>
      <point x="28" y="121"/>
      <point x="60" y="-2"/>
    </contour>
    <contour>
      <point x="132" y="23" type="curve" smooth="yes"/>
      <point x="75" y="23"/>
      <point x="50" y="153"/>
      <point x="50" y="359" type="curve" smooth="yes"/>
      <point x="50" y="545"/>
      <point x="69" y="690"/>
      <point x="132" y="690" type="curve" smooth="yes"/>
      <point x="135" y="690"/>
      <point x="138" y="690"/>
      <point x="140" y="690" type="curve"/>
      <point x="140" y="23" type="line"/>
      <point x="138" y="23"/>
      <point x="136" y="23"/>
    </contour>
  </outline>
</glyph>
<glyph name="oe" format="2">
  <advance width="300"/>
  <unicode hex="0153"/>
  <anchor x="135" y="0" name="bottom"/>
  <anchor x="135" y="528" name="top"/>
  <outline>
    <contour>
      <point x="82" y="-10" type="curve" smooth="yes"/>
      <point x="113" y="-10"/>
      <point x="132" y="50"/>
      <point x="140" y="145" type="curve"/>
      <point x="150" y="43"/>
      <point x="169" y="-10"/>
      <point x="205" y="-10" type="curve" smooth="yes"/>
      <point x="222" y="-10"/>
      <point x="236" y="-2"/>
      <point x="249" y="17" type="curve"/>
      <point x="249" y="43" type="line"/>
      <point x="233" y="20"/>
      <point x="222" y="13"/>
      <point x="207" y="13" type="curve" smooth="yes"/>
      <point x="168" y="13"/>
      <point x="152" y="103"/>
      <point x="152" y="268" type="curve"/>
      <point x="254" y="268" type="line"/>
      <point x="254" y="296" type="line" smooth="yes"/>
      <point x="254" y="426"/>
      <point x="238" y="537"/>
      <point x="196" y="537" type="curve" smooth="yes"/>
      <point x="166" y="537"/>
      <point x="149" y="464"/>
      <point x="141" y="373" type="curve"/>
      <point x="134" y="469"/>
      <point x="115" y="537"/>
      <point x="83" y="537" type="curve" smooth="yes"/>
      <point x="40" y="537"/>
      <point x="16" y="446"/>
      <point x="16" y="256" type="curve" smooth="yes"/>
      <point x="16" y="95"/>
      <point x="34" y="-10"/>
    </contour>
    <contour>
      <point x="82" y="14" type="curve" smooth="yes"/>
      <point x="51" y="14"/>
      <point x="37" y="113"/>
      <point x="37" y="264" type="curve" smooth="yes"/>
      <point x="37" y="421"/>
      <point x="52" y="513"/>
      <point x="82" y="513" type="curve" smooth="yes"/>
      <point x="116" y="513"/>
      <point x="129" y="400"/>
      <point x="129" y="265" type="curve" smooth="yes"/>
      <point x="129" y="124"/>
      <point x="115" y="14"/>
    </contour>
    <contour>
      <point x="152" y="294" type="line"/>
      <point x="152" y="385"/>
      <point x="166" y="513"/>
      <point x="195" y="513" type="curve" smooth="yes"/>
      <point x="220" y="513"/>
      <point x="231" y="423"/>
      <point x="231" y="294" type="curve"/>
    </contour>
  </outline>
</glyph>
<glyph name="Tbar" format="2">
  <advance width="300"/>
  <unicode hex="0166"/>
  <anchor x="130" y="0" name="bottom"/>
  <anchor x="130" y="714" name="top"/>
  <anchor x="255" y="714" name="topright"/>
  <anchor x="135" y="357" name="center"/>
  <outline>
    <contour>
      <point x="48" y="359" type="line"/>
      <point x="223" y="359" type="line"/>
      <point x="223" y="384" type="line"/>
      <point x="48" y="384" type="line"/>
    </contour>
    <component base="T"/>
  </outline>
</glyph>
<glyph name="tbar" format="2">
  <advance width="300"/>
  <unicode hex="0167"/>
  <anchor x="158" y="0" name="bottom"/>
  <anchor x="125" y="659" name="top"/>
  <anchor x="254" y="659" name="topright"/>
  <anchor x="124" y="290" name="center"/>
  <outline>
    <contour>
      <point x="43" y="285" type="line"/>
      <point x="232" y="285" type="line"/>
      <point x="232" y="310" type="line"/>
      <point x="43" y="310" type="line"/>
    </contour>
    <component base="t"/>
  </outline>
</glyph>
<glyph name="Uogonek" format="2">
  <advance width="300"/>
  <unicode hex="0172"/>
  <anchor x="145" y="-217" name="bottom"/>
  <anchor x="130" y="714" name="top"/>
  <anchor x="239" y="10" name="ogonek"/>
  <anchor x="255" y="714" name="topright"/>
  <outline>
    <contour>
      <point x="144" y="-217" type="curve" smooth="yes"/>
      <point x="152" y="-217"/>
      <point x="161" y="-214"/>
      <point x="166" y="-210" type="curve"/>
      <point x="166" y="-187" type="line"/>
      <point x="162" y="-190"/>
      <point x="154" y="-193"/>
      <point x="148" y="-193" type="curve" smooth="yes"/>
      <point x="129" y="-193"/>
      <point x="121" y="-172"/>
      <point x="121" y="-135" type="curve" smooth="yes"/>
      <point x="121" y="-79"/>
      <point x="144" y="-32"/>
      <point x="179" y="13" type="curve"/>
      <point x="161" y="20" type="line"/>
      <point x="120" y="-31"/>
      <point x="100" y="-84"/>
      <point x="100" y="-138" type="curve" smooth="yes"/>
      <point x="100" y="-190"/>
      <point x="117" y="-217"/>
    </contour>
    <component base="U"/>
  </outline>
</glyph>
<glyph name="longs" format="2">
  <advance width="300"/>
  <unicode hex="017F"/>
  <anchor x="135" y="0" name="bottom"/>
  <anchor x="187" y="765" name="top"/>
  <outline>
    <contour>
      <point x="119" y="0" type="line"/>
      <point x="142" y="0" type="line"/>
      <point x="142" y="582" type="line" smooth="yes"/>
      <point x="142" y="696"/>
      <point x="163" y="741"/>
      <point x="201" y="741" type="curve" smooth="yes"/>
      <point x="212" y="741"/>
      <point x="223" y="738"/>
      <point x="232" y="732" type="curve"/>
      <point x="237" y="757" type="line"/>
      <point x="225" y="762"/>
      <point x="212" y="765"/>
      <point x="200" y="765" type="curve" smooth="yes"/>
      <point x="143" y="765"/>
      <point x="119" y="698"/>
      <point x="119" y="585" type="curve" smooth="yes"/>
    </contour>
  </outline>
</glyph>
<glyph name="uni0180" format="2">
  <advance width="300"/>
  <unicode hex="0180"/>
  <anchor x="134" y="0" name="bottom"/>
  <anchor x="119" y="760" name="top"/>
  <anchor x="259" y="760" name="topright"/>
  <outline>
    <contour>
      <point x="7" y="630" type="line"/>
      <point x="138" y="630" type="line"/>
      <point x="138" y="655" type="line"/>
      <point x="7" y="655" type="line"/>
    </contour>
    <component base="b" xOffset="5"/>
  </outline>
</glyph>
<glyph name="uni0181" format="2">
  <advance width="300"/>
  <unicode hex="0181"/>
  <anchor x="134" y="0" name="bottom"/>
  <anchor x="134" y="714" name="top"/>
  <outline>
    <contour>
      <point x="63" y="0" type="line"/>
      <point x="138" y="0" type="line" smooth="yes"/>
      <point x="203" y="0"/>
      <point x="245" y="66"/>
      <point x="245" y="200" type="curve" smooth="yes"/>
      <point x="245" y="293"/>
      <point x="225" y="357"/>
      <point x="176" y="376" type="curve"/>
      <point x="176" y="377" type="line"/>
      <point x="215" y="392"/>
      <point x="237" y="460"/>
      <point x="237" y="546" type="curve" smooth="yes"/>
      <point x="237" y="658"/>
      <point x="204" y="714"/>
      <point x="131" y="714" type="curve" smooth="yes"/>
      <point x="63" y="714" type="line"/>
    </contour>
    <contour>
      <point x="86" y="25" type="line"/>
      <point x="86" y="363" type="line"/>
      <point x="132" y="363" type="line" smooth="yes"/>
      <point x="188" y="363"/>
      <point x="223" y="324"/>
      <point x="223" y="200" type="curve" smooth="yes"/>
      <point x="223" y="80"/>
      <point x="191" y="25"/>
      <point x="136" y="25" type="curve" smooth="yes"/>
    </contour>
    <contour>
      <point x="14" y="544" type="curve"/>
      <point x="34" y="544" type="line"/>
      <point x="33" y="556"/>
      <point x="31" y="577"/>
      <point x="31" y="596" type="curve" smooth="yes"/>
      <point x="31" y="654"/>
      <point x="43" y="689"/>
      <point x="64" y="689" type="curve" smooth="yes"/>
      <point x="70" y="689" type="line"/>
      <point x="70" y="714" type="line"/>
      <point x="65" y="714" type="line" smooth="yes"/>
      <point x="28" y="714"/>
      <point x="11" y="665"/>
      <point x="11" y="595" type="curve" smooth="yes"/>
      <point x="11" y="579"/>
      <point x="12" y="559"/>
    </contour>
    <contour>
      <point x="86" y="388" type="line"/>
      <point x="86" y="689" type="line"/>
      <point x="127" y="689" type="line" smooth="yes"/>
      <point x="189" y="689"/>
      <point x="214" y="645"/>
      <point x="214" y="546" type="curve" smooth="yes"/>
      <point x="214" y="441"/>
      <point x="187" y="388"/>
      <point x="131" y="388" type="curve" smooth="yes"/>
    </contour>
  </outline>
</glyph>
<glyph name="uni0184" format="2">
  <advance width="300"/>
  <unicode hex="0184"/>
  <anchor x="135" y="0" name="bottom"/>
  <anchor x="135" y="760" name="top"/>
  <outline>
    <contour>
      <point x="145" y="0" type="curve" smooth="yes"/>
      <point x="207" y="0"/>
      <point x="243" y="79"/>
      <point x="243" y="202" type="curve" smooth="yes"/>
      <point x="243" y="337"/>
      <point x="205" y="393"/>
      <point x="127" y="393" type="curve" smooth="yes"/>
      <point x="74" y="393" type="line"/>
      <point x="74" y="714" type="line"/>
      <point x="51" y="714" type="line"/>
      <point x="51" y="203" type="line" smooth="yes"/>
      <point x="51" y="54"/>
      <point x="89" y="0"/>
    </contour>
    <contour>
      <point x="145" y="25" type="curve" smooth="yes"/>
      <point x="105" y="25"/>
      <point x="74" y="66"/>
      <point x="74" y="210" type="curve" smooth="yes"/>
      <point x="74" y="368" type="line"/>
      <point x="124" y="368" type="line" smooth="yes"/>
      <point x="186" y="368"/>
      <point x="219" y="323"/>
      <point x="219" y="201" type="curve" smooth="yes"/>
      <point x="219" y="87"/>
      <point x="191" y="25"/>
    </contour>
  </outline>
</glyph>
<glyph name="uni0185" format="2">
  <advance width="300"/>
  <unicode hex="0185"/>
  <anchor x="135" y="0" name="bottom"/>
  <anchor x="135" y="760" name="top"/>
  <outline>
    <contour>
      <point x="137" y="-10" type="curve" smooth="yes"/>
      <point x="203" y="-10"/>
      <point x="237" y="99"/>
      <point x="237" y="268" type="curve" smooth="yes"/>
      <point x="237" y="445"/>
      <point x="205" y="538"/>
      <point x="145" y="538" type="curve" smooth="yes"/>
      <point x="105" y="538"/>
      <point x="78" y="486"/>
      <point x="68" y="412" type="curve"/>
      <point x="67" y="412" type="line"/>
      <point x="68" y="437"/>
      <point x="68" y="476"/>
      <point x="68" y="503" type="curve" smooth="yes"/>
      <point x="68" y="760" type="line"/>
      <point x="45" y="760" type="line"/>
      <point x="45" y="233" type="line" smooth="yes"/>
      <point x="45" y="73"/>
      <point x="76" y="-10"/>
    </contour>
    <contour>
      <point x="137" y="15" type="curve" smooth="yes"/>
      <point x="91" y="15"/>
      <point x="68" y="85"/>
      <point x="68" y="251" type="curve" smooth="yes"/>
      <point x="68" y="263" type="line" smooth="yes"/>
      <point x="68" y="426"/>
      <point x="91" y="513"/>
      <point x="141" y="513" type="curve" smooth="yes"/>
      <point x="190" y="513"/>
      <point x="213" y="430"/>
      <point x="213" y="268" type="curve" smooth="yes"/>
      <point x="213" y="101"/>
      <point x="185" y="15"/>
    </contour>
  </outline>
</glyph>
<glyph name="uni0187" format="2">
  <advance width="300"/>
  <unicode hex="0187"/>
  <anchor x="168" y="0" name="bottom"/>
  <anchor x="168" y="854" name="top"/>
  <anchor x="261" y="714" name="topright"/>
  <outline>
    <contour>
      <point x="228" y="692" type="line"/>
      <point x="249" y="692" type="line"/>
      <point x="249" y="772" type="line" smooth="yes"/>
      <point x="249" y="818"/>
      <point x="256" y="830"/>
      <point x="268" y="830" type="curve" smooth="yes"/>
      <point x="276" y="830"/>
      <point x="282" y="823"/>
      <point x="286" y="819" type="curve"/>
      <point x="286" y="845" type="line"/>
      <point x="281" y="851"/>
      <point x="273" y="854"/>
      <point x="265" y="854" type="curve" smooth="yes"/>
      <point x="243" y="854"/>
      <point x="228" y="833"/>
      <point x="228" y="770" type="curve" smooth="yes"/>
    </contour>
    <component base="C" xOffset="6"/>
  </outline>
</glyph>
<glyph name="uni0188" format="2">
  <advance width="300"/>
  <unicode hex="0188"/>
  <anchor x="135" y="0" name="bottom"/>
  <anchor x="135" y="769" name="top"/>
  <anchor x="260" y="528" name="topright"/>
  <outline>
    <contour>
      <point x="205" y="517" type="line"/>
      <point x="226" y="517" type="line"/>
      <point x="226" y="685" type="line" smooth="yes"/>
      <point x="226" y="734"/>
      <point x="233" y="746"/>
      <point x="246" y="746" type="curve" smooth="yes"/>
      <point x="252" y="746"/>
      <point x="257" y="744"/>
      <point x="263" y="737" type="curve"/>
      <point x="263" y="761" type="line"/>
      <point x="259" y="766"/>
      <point x="252" y="769"/>
      <point x="243" y="769" type="curve" smooth="yes"/>
      <point x="218" y="769"/>
      <point x="205" y="742"/>
      <point x="205" y="680" type="curve" smooth="yes"/>
    </contour>
    <component base="c" xOffset="5"/>
  </outline>
</glyph>
<glyph name="uni018A" format="2">
  <advance width="300"/>
  <unicode hex="018A"/>
  <anchor x="135" y="0" name="bottom"/>
  <anchor x="135" y="714" name="top"/>
  <outline>
    <contour>
      <point x="65" y="0" type="line"/>
      <point x="115" y="0" type="line" smooth="yes"/>
      <point x="208" y="0"/>
      <point x="245" y="123"/>
      <point x="245" y="362" type="curve" smooth="yes"/>
      <point x="245" y="595"/>
      <point x="208" y="714"/>
      <point x="117" y="714" type="curve" smooth="yes"/>
      <point x="65" y="714" type="line"/>
    </contour>
    <contour>
      <point x="87" y="25" type="line"/>
      <point x="87" y="689" type="line"/>
      <point x="114" y="689" type="line" smooth="yes"/>
      <point x="196" y="689"/>
      <point x="222" y="569"/>
      <point x="222" y="360" type="curve" smooth="yes"/>
      <point x="222" y="140"/>
      <point x="191" y="25"/>
      <point x="114" y="25" type="curve" smooth="yes"/>
    </contour>
    <contour>
      <point x="14" y="544" type="curve"/>
      <point x="34" y="544" type="line"/>
      <point x="33" y="556"/>
      <point x="31" y="577"/>
      <point x="31" y="596" type="curve" smooth="yes"/>
      <point x="31" y="654"/>
      <point x="43" y="689"/>
      <point x="64" y="689" type="curve" smooth="yes"/>
      <point x="70" y="689" type="line"/>
      <point x="70" y="714" type="line"/>
      <point x="65" y="714" type="line" smooth="yes"/>
      <point x="28" y="714"/>
      <point x="11" y="665"/>
      <point x="11" y="595" type="curve" smooth="yes"/>
      <point x="11" y="579"/>
      <point x="12" y="559"/>
    </contour>
  </outline>
</glyph>
<glyph name="uni0191" format="2">
  <advance width="300"/>
  <unicode hex="0191"/>
  <anchor x="141" y="-148" name="bottom"/>
  <anchor x="139" y="714" name="top"/>
  <outline>
    <contour>
      <point x="18" y="-153" type="curve" smooth="yes"/>
      <point x="54" y="-153"/>
      <point x="73" y="-106"/>
      <point x="73" y="-9" type="curve" smooth="yes"/>
      <point x="73" y="329" type="line"/>
      <point x="213" y="329" type="line"/>
      <point x="213" y="354" type="line"/>
      <point x="73" y="354" type="line"/>
      <point x="73" y="689" type="line"/>
      <point x="220" y="689" type="line"/>
      <point x="220" y="714" type="line"/>
      <point x="49" y="714" type="line"/>
      <point x="49" y="-3" type="line" smooth="yes"/>
      <point x="49" y="-86"/>
      <point x="40" y="-128"/>
      <point x="17" y="-128" type="curve" smooth="yes"/>
      <point x="5" y="-128"/>
      <point x="-3" y="-120"/>
      <point x="-11" y="-114" type="curve"/>
      <point x="-11" y="-140" type="line"/>
      <point x="-3" y="-148"/>
      <point x="8" y="-153"/>
    </contour>
  </outline>
</glyph>
<glyph name="florin" format="2">
  <advance width="300"/>
  <unicode hex="0192"/>
  <anchor x="125" y="-240" name="bottom"/>
  <anchor x="174" y="724" name="top"/>
  <outline>
    <contour>
      <point x="74" y="-240" type="curve" smooth="yes"/>
      <point x="120" y="-240"/>
      <point x="137" y="-176"/>
      <point x="137" y="-83" type="curve" smooth="yes"/>
      <point x="137" y="422" type="line"/>
      <point x="198" y="422" type="line"/>
      <point x="198" y="447" type="line"/>
      <point x="137" y="447" type="line"/>
      <point x="137" y="543" type="line" smooth="yes"/>
      <point x="137" y="652"/>
      <point x="151" y="700"/>
      <point x="185" y="700" type="curve" smooth="yes"/>
      <point x="198" y="700"/>
      <point x="209" y="696"/>
      <point x="219" y="687" type="curve"/>
      <point x="224" y="711" type="line"/>
      <point x="211" y="721"/>
      <point x="199" y="724"/>
      <point x="184" y="724" type="curve" smooth="yes"/>
      <point x="135" y="724"/>
      <point x="114" y="660"/>
      <point x="114" y="547" type="curve" smooth="yes"/>
      <point x="114" y="447" type="line"/>
      <point x="55" y="443" type="line"/>
      <point x="55" y="422" type="line"/>
      <point x="114" y="422" type="line"/>
      <point x="114" y="-86" type="line" smooth="yes"/>
      <point x="114" y="-170"/>
      <point x="102" y="-215"/>
      <point x="71" y="-215" type="curve" smooth="yes"/>
      <point x="61" y="-215"/>
      <point x="51" y="-211"/>
      <point x="40" y="-205" type="curve"/>
      <point x="40" y="-232" type="line"/>
      <point x="48" y="-236"/>
      <point x="60" y="-240"/>
    </contour>
  </outline>
</glyph>
<glyph name="uni0193" format="2">
  <advance width="300"/>
  <unicode hex="0193"/>
  <anchor x="134" y="0" name="bottom"/>
  <anchor x="134" y="853" name="top"/>
  <anchor x="259" y="714" name="topright"/>
  <outline>
    <contour>
      <point x="206" y="681" type="line"/>
      <point x="227" y="681" type="line"/>
      <point x="227" y="771" type="line" smooth="yes"/>
      <point x="227" y="817"/>
      <point x="234" y="829"/>
      <point x="246" y="829" type="curve" smooth="yes"/>
      <point x="255" y="829"/>
      <point x="261" y="822"/>
      <point x="264" y="818" type="curve"/>
      <point x="264" y="844" type="line"/>
      <point x="260" y="850"/>
      <point x="252" y="853"/>
      <point x="243" y="853" type="curve" smooth="yes"/>
      <point x="221" y="853"/>
      <point x="206" y="832"/>
      <point x="206" y="769" type="curve" smooth="yes"/>
    </contour>
    <component base="G" xOffset="5"/>
  </outline>
</glyph>
<glyph name="uni0194" format="2">
  <advance width="300"/>
  <unicode hex="0194"/>
  <anchor x="135" y="-242" name="bottom"/>
  <anchor x="135" y="714" name="top"/>
  <outline>
    <contour>
      <point x="135" y="-242" type="curve" smooth="yes"/>
      <point x="169" y="-242"/>
      <point x="183" y="-193"/>
      <point x="183" y="-132" type="curve" smooth="yes"/>
      <point x="183" y="-63"/>
      <point x="168" y="15"/>
      <point x="147" y="119" type="curve"/>
      <point x="249" y="714" type="line"/>
      <point x="225" y="714" type="line"/>
      <point x="147" y="223" type="line" smooth="yes"/>
      <point x="144" y="204"/>
      <point x="138" y="179"/>
      <point x="134" y="158" type="curve"/>
      <point x="130" y="180"/>
      <point x="125" y="201"/>
      <point x="122" y="223" type="curve" smooth="yes"/>
      <point x="44" y="714" type="line"/>
      <point x="21" y="714" type="line"/>
      <point x="122" y="120" type="line"/>
      <point x="107" y="53"/>
      <point x="88" y="-48"/>
      <point x="88" y="-131" type="curve" smooth="yes"/>
      <point x="88" y="-190"/>
      <point x="101" y="-242"/>
    </contour>
    <contour>
      <point x="135" y="-221" type="curve" smooth="yes"/>
      <point x="115" y="-221"/>
      <point x="109" y="-175"/>
      <point x="109" y="-127" type="curve" smooth="yes"/>
      <point x="109" y="-59"/>
      <point x="120" y="11"/>
      <point x="135" y="84" type="curve"/>
      <point x="152" y="-2"/>
      <point x="161" y="-66"/>
      <point x="161" y="-130" type="curve" smooth="yes"/>
      <point x="161" y="-175"/>
      <point x="156" y="-221"/>
    </contour>
  </outline>
</glyph>
<glyph name="uni0195" format="2">
  <advance width="300"/>
  <unicode hex="0195"/>
  <anchor x="136" y="0" name="bottom"/>
  <anchor x="41" y="759" name="top"/>
  <outline>
    <contour>
      <point x="184" y="-9" type="curve" smooth="yes"/>
      <point x="219" y="-9"/>
      <point x="242" y="32"/>
      <point x="242" y="116" type="curve" smooth="yes"/>
      <point x="242" y="528" type="line"/>
      <point x="220" y="528" type="line"/>
      <point x="220" y="119" type="line" smooth="yes"/>
      <point x="220" y="48"/>
      <point x="207" y="16"/>
      <point x="184" y="16" type="curve" smooth="yes"/>
      <point x="161" y="16"/>
      <point x="148" y="48"/>
      <point x="148" y="120" type="curve" smooth="yes"/>
      <point x="148" y="416" type="line" smooth="yes"/>
      <point x="148" y="499"/>
      <point x="129" y="537"/>
      <point x="98" y="537" type="curve" smooth="yes"/>
      <point x="73" y="537"/>
      <point x="57" y="503"/>
      <point x="52" y="462" type="curve"/>
      <point x="50" y="462" type="line"/>
      <point x="51" y="484"/>
      <point x="52" y="499"/>
      <point x="52" y="530" type="curve" smooth="yes"/>
      <point x="52" y="760" type="line"/>
      <point x="31" y="760" type="line"/>
      <point x="31" y="0" type="line"/>
      <point x="52" y="0" type="line"/>
      <point x="52" y="336" type="line" smooth="yes"/>
      <point x="52" y="485"/>
      <point x="73" y="512"/>
      <point x="95" y="512" type="curve" smooth="yes"/>
      <point x="114" y="512"/>
      <point x="126" y="484"/>
      <point x="126" y="410" type="curve" smooth="yes"/>
      <point x="126" y="116" type="line" smooth="yes"/>
      <point x="126" y="36"/>
      <point x="145" y="-9"/>
    </contour>
  </outline>
</glyph>
<glyph name="uni0196" format="2">
  <advance width="300"/>
  <unicode hex="0196"/>
  <anchor x="156" y="0" name="bottom"/>
  <anchor x="109" y="714" name="top"/>
  <outline>
    <contour>
      <point x="167" y="-10" type="curve" smooth="yes"/>
      <point x="183" y="-10"/>
      <point x="201" y="-5"/>
      <point x="217" y="4" type="curve"/>
      <point x="217" y="29" type="line"/>
      <point x="200" y="20"/>
      <point x="187" y="15"/>
      <point x="173" y="15" type="curve" smooth="yes"/>
      <point x="140" y="15"/>
      <point x="120" y="50"/>
      <point x="120" y="175" type="curve" smooth="yes"/>
      <point x="120" y="714" type="line"/>
      <point x="97" y="714" type="line"/>
      <point x="97" y="166" type="line" smooth="yes"/>
      <point x="97" y="37"/>
      <point x="124" y="-10"/>
    </contour>
  </outline>
</glyph>
<glyph name="uni0198" format="2">
  <advance width="300"/>
  <unicode hex="0198"/>
  <anchor x="135" y="0" name="bottom"/>
  <anchor x="135" y="714" name="top"/>
  <outline>
    <contour>
      <point x="36" y="0" type="line"/>
      <point x="59" y="0" type="line"/>
      <point x="59" y="283" type="line"/>
      <point x="104" y="391" type="line"/>
      <point x="213" y="0" type="line"/>
      <point x="239" y="0" type="line"/>
      <point x="119" y="411" type="line"/>
      <point x="204" y="634" type="line" smooth="yes"/>
      <point x="222" y="680"/>
      <point x="232" y="693"/>
      <point x="242" y="693" type="curve" smooth="yes"/>
      <point x="246" y="693"/>
      <point x="252" y="691"/>
      <point x="254" y="688" type="curve"/>
      <point x="254" y="714" type="line"/>
      <point x="251" y="717"/>
      <point x="245" y="718"/>
      <point x="238" y="718" type="curve" smooth="yes"/>
      <point x="222" y="718"/>
      <point x="209" y="708"/>
      <point x="186" y="648" type="curve" smooth="yes"/>
      <point x="92" y="395" type="line" smooth="yes"/>
      <point x="80" y="362"/>
      <point x="71" y="346"/>
      <point x="59" y="321" type="curve"/>
      <point x="59" y="714" type="line"/>
      <point x="36" y="714" type="line"/>
    </contour>
  </outline>
</glyph>
<glyph name="uni0199" format="2">
  <advance width="300"/>
  <unicode hex="0199"/>
  <anchor x="135" y="0" name="bottom"/>
  <anchor x="135" y="765" name="top"/>
  <outline>
    <contour>
      <point x="60" y="0" type="line"/>
      <point x="83" y="0" type="line"/>
      <point x="83" y="185" type="line"/>
      <point x="124" y="286" type="line"/>
      <point x="220" y="0" type="line"/>
      <point x="246" y="0" type="line"/>
      <point x="139" y="307" type="line"/>
      <point x="239" y="528" type="line"/>
      <point x="210" y="528" type="line"/>
      <point x="106" y="277" type="line" smooth="yes"/>
      <point x="98" y="258"/>
      <point x="91" y="239"/>
      <point x="82" y="217" type="curve"/>
      <point x="82" y="217" type="line"/>
      <point x="83" y="272"/>
      <point x="83" y="318"/>
      <point x="83" y="373" type="curve" smooth="yes"/>
      <point x="83" y="665" type="line" smooth="yes"/>
      <point x="83" y="716"/>
      <point x="91" y="740"/>
      <point x="111" y="740" type="curve" smooth="yes"/>
      <point x="119" y="740"/>
      <point x="124" y="738"/>
      <point x="131" y="733" type="curve"/>
      <point x="131" y="759" type="line"/>
      <point x="126" y="762"/>
      <point x="119" y="765"/>
      <point x="108" y="765" type="curve" smooth="yes"/>
      <point x="79" y="765"/>
      <point x="60" y="740"/>
      <point x="60" y="668" type="curve" smooth="yes"/>
    </contour>
  </outline>
</glyph>
<glyph name="uni019A" format="2">
  <advance width="300"/>
  <unicode hex="019A"/>
  <anchor x="135" y="0" name="bottom"/>
  <anchor x="135" y="760" name="top"/>
  <anchor x="217" y="760" name="topright"/>
  <anchor x="142" y="376" name="center"/>
  <outline>
    <contour>
      <point x="56" y="369" type="line"/>
      <point x="218" y="369" type="line"/>
      <point x="218" y="394" type="line"/>
      <point x="56" y="394" type="line"/>
    </contour>
    <component base="l" xOffset="5"/>
  </outline>
</glyph>
<glyph name="uni019B" format="2">
  <advance width="300"/>
  <unicode hex="019B"/>
  <anchor x="141" y="0" name="bottom"/>
  <anchor x="144" y="766" name="top"/>
  <outline>
    <contour>
      <point x="75" y="561" type="line"/>
      <point x="189" y="635" type="line"/>
      <point x="182" y="659" type="line"/>
      <point x="69" y="585" type="line"/>
    </contour>
    <component base="lambda" xOffset="-5"/>
  </outline>
</glyph>
<glyph name="uni019C" format="2">
  <advance width="300"/>
  <unicode hex="019C"/>
  <anchor x="135" y="0" name="bottom"/>
  <anchor x="135" y="357" name="center"/>
  <anchor x="135" y="714" name="top"/>
  <anchor x="16" y="714" name="topleft"/>
  <outline>
    <contour>
      <point x="74" y="-9" type="curve" smooth="yes"/>
      <point x="103" y="-9"/>
      <point x="120" y="27"/>
      <point x="127" y="68" type="curve"/>
      <point x="129" y="68" type="line"/>
      <point x="134" y="32"/>
      <point x="146" y="-9"/>
      <point x="177" y="-9" type="curve" smooth="yes"/>
      <point x="206" y="-9"/>
      <point x="220" y="36"/>
      <point x="225" y="71" type="curve"/>
      <point x="226" y="71" type="line"/>
      <point x="230" y="0" type="line"/>
      <point x="246" y="0" type="line"/>
      <point x="246" y="714" type="line"/>
      <point x="225" y="714" type="line"/>
      <point x="225" y="162" type="line" smooth="yes"/>
      <point x="225" y="88"/>
      <point x="210" y="15"/>
      <point x="181" y="15" type="curve" smooth="yes"/>
      <point x="160" y="15"/>
      <point x="146" y="31"/>
      <point x="146" y="144" type="curve" smooth="yes"/>
      <point x="146" y="714" type="line"/>
      <point x="125" y="714" type="line"/>
      <point x="125" y="162" type="line" smooth="yes"/>
      <point x="125" y="70"/>
      <point x="108" y="15"/>
      <point x="80" y="15" type="curve" smooth="yes"/>
      <point x="60" y="15"/>
      <point x="47" y="35"/>
      <point x="47" y="127" type="curve" smooth="yes"/>
      <point x="47" y="714" type="line"/>
      <point x="25" y="714" type="line"/>
      <point x="25" y="125" type="line" smooth="yes"/>
      <point x="25" y="23"/>
      <point x="43" y="-9"/>
    </contour>
  </outline>
</glyph>
<glyph name="uni019D" format="2">
  <advance width="300"/>
  <unicode hex="019D"/>
  <anchor x="135" y="-144" name="bottom"/>
  <anchor x="135" y="714" name="top"/>
  <anchor x="271" y="714" name="topright"/>
  <outline>
    <contour>
      <point x="15" y="-144" type="curve" smooth="yes"/>
      <point x="44" y="-144"/>
      <point x="58" y="-111"/>
      <point x="58" y="-34" type="curve" smooth="yes"/>
      <point x="58" y="68" type="line"/>
      <point x="36" y="68" type="line"/>
      <point x="36" y="-30" type="line" smooth="yes"/>
      <point x="36" y="-92"/>
      <point x="29" y="-119"/>
      <point x="14" y="-119" type="curve" smooth="yes"/>
      <point x="7" y="-119"/>
      <point x="-2" y="-116"/>
      <point x="-8" y="-110" type="curve"/>
      <point x="-8" y="-136" type="line"/>
      <point x="-1" y="-141"/>
      <point x="7" y="-144"/>
    </contour>
    <component base="N" xOffset="6"/>
  </outline>
</glyph>
<glyph name="uni01A2" format="2">
  <advance width="300"/>
  <unicode hex="01A2"/>
  <anchor x="50" y="0" name="bottom"/>
  <anchor x="59" y="10" name="ogonek"/>
  <anchor x="143" y="714" name="top"/>
  <anchor x="-73" y="714" name="topleft"/>
  <anchor x="370" y="714" name="topright"/>
  <outline>
    <contour>
      <point x="48" y="-10" type="curve" smooth="yes"/>
      <point x="137" y="-10"/>
      <point x="174" y="152"/>
      <point x="174" y="361" type="curve" smooth="yes"/>
      <point x="174" y="553"/>
      <point x="144" y="724"/>
      <point x="50" y="724" type="curve" smooth="yes"/>
      <point x="-33" y="724"/>
      <point x="-82" y="586"/>
      <point x="-82" y="360" type="curve" smooth="yes"/>
      <point x="-82" y="160"/>
      <point x="-45" y="-10"/>
    </contour>
    <contour>
      <point x="48" y="15" type="curve" smooth="yes"/>
      <point x="-21" y="15"/>
      <point x="-59" y="150"/>
      <point x="-59" y="356" type="curve" smooth="yes"/>
      <point x="-59" y="564"/>
      <point x="-20" y="700"/>
      <point x="49" y="700" type="curve" smooth="yes"/>
      <point x="115" y="700"/>
      <point x="150" y="578"/>
      <point x="150" y="358" type="curve" smooth="yes"/>
      <point x="150" y="146"/>
      <point x="116" y="15"/>
    </contour>
    <contour>
      <point x="329" y="0" type="line"/>
      <point x="353" y="0" type="line"/>
      <point x="353" y="518" type="line" smooth="yes"/>
      <point x="353" y="655"/>
      <point x="314" y="724"/>
      <point x="250" y="724" type="curve" smooth="yes"/>
      <point x="199" y="724"/>
      <point x="164" y="678"/>
      <point x="139" y="620" type="curve"/>
      <point x="148" y="597" type="line"/>
      <point x="170" y="660"/>
      <point x="204" y="699"/>
      <point x="246" y="699" type="curve" smooth="yes"/>
      <point x="298" y="699"/>
      <point x="329" y="641"/>
      <point x="329" y="513" type="curve" smooth="yes"/>
    </contour>
  </outline>
</glyph>
<glyph name="uni01A3" format="2">
  <advance width="300"/>
  <unicode hex="01A3"/>
  <anchor x="88" y="0" name="bottom"/>
  <anchor x="88" y="277" name="center"/>
  <anchor x="90" y="10" name="ogonek"/>
  <anchor x="133" y="528" name="top"/>
  <outline>
    <contour>
      <point x="216" y="-232" type="line"/>
      <point x="239" y="-232" type="line"/>
      <point x="239" y="419" type="line" smooth="yes"/>
      <point x="239" y="499"/>
      <point x="219" y="538"/>
      <point x="189" y="538" type="curve" smooth="yes"/>
      <point x="159" y="538"/>
      <point x="146" y="500"/>
      <point x="138" y="475" type="curve"/>
      <point x="128" y="515"/>
      <point x="112" y="538"/>
      <point x="90" y="538" type="curve" smooth="yes"/>
      <point x="43" y="538"/>
      <point x="22" y="461"/>
      <point x="22" y="266" type="curve" smooth="yes"/>
      <point x="22" y="70"/>
      <point x="40" y="-10"/>
      <point x="89" y="-10" type="curve" smooth="yes"/>
      <point x="134" y="-10"/>
      <point x="155" y="67"/>
      <point x="155" y="264" type="curve" smooth="yes"/>
      <point x="155" y="334"/>
      <point x="152" y="407"/>
      <point x="144" y="451" type="curve"/>
      <point x="151" y="477"/>
      <point x="163" y="513"/>
      <point x="184" y="513" type="curve" smooth="yes"/>
      <point x="204" y="513"/>
      <point x="216" y="484"/>
      <point x="216" y="410" type="curve" smooth="yes"/>
    </contour>
    <contour>
      <point x="88" y="15" type="curve" smooth="yes"/>
      <point x="59" y="15"/>
      <point x="45" y="83"/>
      <point x="45" y="266" type="curve" smooth="yes"/>
      <point x="45" y="451"/>
      <point x="62" y="513"/>
      <point x="89" y="513" type="curve" smooth="yes"/>
      <point x="121" y="513"/>
      <point x="131" y="422"/>
      <point x="131" y="265" type="curve" smooth="yes"/>
      <point x="131" y="75"/>
      <point x="114" y="15"/>
    </contour>
  </outline>
</glyph>
<glyph name="uni01A4" format="2">
  <advance width="300"/>
  <unicode hex="01A4"/>
  <anchor x="154" y="0" name="bottom"/>
  <anchor x="154" y="714" name="top"/>
  <outline>
    <contour>
      <point x="77" y="0" type="line"/>
      <point x="100" y="0" type="line"/>
      <point x="100" y="306" type="line"/>
      <point x="137" y="306" type="line" smooth="yes"/>
      <point x="208" y="306"/>
      <point x="242" y="372"/>
      <point x="242" y="514" type="curve" smooth="yes"/>
      <point x="242" y="663"/>
      <point x="205" y="714"/>
      <point x="135" y="714" type="curve" smooth="yes"/>
      <point x="78" y="714" type="line" smooth="yes"/>
      <point x="36" y="714"/>
      <point x="16" y="664"/>
      <point x="16" y="595" type="curve" smooth="yes"/>
      <point x="16" y="579"/>
      <point x="17" y="559"/>
      <point x="20" y="544" type="curve"/>
      <point x="39" y="544" type="line"/>
      <point x="39" y="556"/>
      <point x="36" y="577"/>
      <point x="36" y="596" type="curve" smooth="yes"/>
      <point x="36" y="652"/>
      <point x="51" y="687"/>
      <point x="77" y="689" type="curve"/>
    </contour>
    <contour>
      <point x="100" y="331" type="line"/>
      <point x="100" y="689" type="line"/>
      <point x="131" y="689" type="line" smooth="yes"/>
      <point x="192" y="689"/>
      <point x="219" y="645"/>
      <point x="219" y="516" type="curve" smooth="yes"/>
      <point x="219" y="385"/>
      <point x="191" y="331"/>
      <point x="133" y="331" type="curve" smooth="yes"/>
    </contour>
  </outline>
</glyph>
<glyph name="uni01A5" format="2">
  <advance width="300"/>
  <unicode hex="01A5"/>
  <anchor x="146" y="-240" name="bottom"/>
  <anchor x="146" y="766" name="top"/>
  <outline>
    <contour>
      <point x="45" y="-240" type="line"/>
      <point x="68" y="-240" type="line"/>
      <point x="68" y="11" type="line" smooth="yes"/>
      <point x="68" y="48"/>
      <point x="68" y="83"/>
      <point x="67" y="112" type="curve"/>
      <point x="68" y="112" type="line"/>
      <point x="79" y="50"/>
      <point x="101" y="-10"/>
      <point x="143" y="-10" type="curve" smooth="yes"/>
      <point x="200" y="-10"/>
      <point x="237" y="83"/>
      <point x="237" y="270" type="curve" smooth="yes"/>
      <point x="237" y="448"/>
      <point x="205" y="537"/>
      <point x="145" y="537" type="curve" smooth="yes"/>
      <point x="102" y="537"/>
      <point x="79" y="472"/>
      <point x="67" y="403" type="curve"/>
      <point x="66" y="403" type="line"/>
      <point x="68" y="444"/>
      <point x="68" y="486"/>
      <point x="68" y="527" type="curve" smooth="yes"/>
      <point x="68" y="666" type="line" smooth="yes"/>
      <point x="68" y="717"/>
      <point x="78" y="741"/>
      <point x="95" y="741" type="curve" smooth="yes"/>
      <point x="102" y="741"/>
      <point x="108" y="738"/>
      <point x="115" y="732" type="curve"/>
      <point x="115" y="758" type="line"/>
      <point x="110" y="762"/>
      <point x="101" y="766"/>
      <point x="92" y="766" type="curve" smooth="yes"/>
      <point x="65" y="766"/>
      <point x="45" y="741"/>
      <point x="45" y="669" type="curve" smooth="yes"/>
    </contour>
    <contour>
      <point x="139" y="15" type="curve" smooth="yes"/>
      <point x="96" y="15"/>
      <point x="68" y="95"/>
      <point x="68" y="241" type="curve" smooth="yes"/>
      <point x="68" y="279" type="line" smooth="yes"/>
      <point x="68" y="419"/>
      <point x="94" y="512"/>
      <point x="141" y="512" type="curve" smooth="yes"/>
      <point x="189" y="512"/>
      <point x="213" y="429"/>
      <point x="213" y="270" type="curve" smooth="yes"/>
      <point x="213" y="90"/>
      <point x="184" y="15"/>
    </contour>
  </outline>
</glyph>
<glyph name="uni01A6" format="2">
  <advance width="300"/>
  <unicode hex="01A6"/>
  <anchor x="143" y="-100" name="bottom"/>
  <anchor x="143" y="714" name="top"/>
  <outline>
    <contour>
      <point x="222" y="-100" type="line"/>
      <point x="247" y="-100" type="line"/>
      <point x="156" y="225" type="line"/>
      <point x="212" y="251"/>
      <point x="235" y="318"/>
      <point x="235" y="422" type="curve" smooth="yes"/>
      <point x="235" y="571"/>
      <point x="190" y="614"/>
      <point x="106" y="614" type="curve" smooth="yes"/>
      <point x="74" y="614" type="line"/>
      <point x="74" y="714" type="line"/>
      <point x="51" y="714" type="line"/>
      <point x="51" y="0" type="line"/>
      <point x="74" y="0" type="line"/>
      <point x="74" y="220" type="line"/>
      <point x="133" y="220" type="line"/>
    </contour>
    <contour>
      <point x="74" y="245" type="line"/>
      <point x="74" y="589" type="line"/>
      <point x="104" y="589" type="line" smooth="yes"/>
      <point x="174" y="589"/>
      <point x="211" y="550"/>
      <point x="211" y="424" type="curve" smooth="yes"/>
      <point x="211" y="301"/>
      <point x="173" y="245"/>
      <point x="116" y="245" type="curve" smooth="yes"/>
    </contour>
  </outline>
</glyph>
<glyph name="uni01AA" format="2">
  <advance width="300"/>
  <unicode hex="01AA"/>
  <anchor x="141" y="-240" name="bottom"/>
  <anchor x="141" y="770" name="top"/>
  <outline>
    <contour>
      <point x="195" y="-237" type="curve" smooth="yes"/>
      <point x="209" y="-237"/>
      <point x="222" y="-233"/>
      <point x="231" y="-227" type="curve"/>
      <point x="231" y="-202" type="line"/>
      <point x="222" y="-208"/>
      <point x="211" y="-212"/>
      <point x="198" y="-212" type="curve" smooth="yes"/>
      <point x="171" y="-212"/>
      <point x="152" y="-179"/>
      <point x="152" y="-91" type="curve" smooth="yes"/>
      <point x="152" y="634" type="line" smooth="yes"/>
      <point x="152" y="714"/>
      <point x="128" y="765"/>
      <point x="91" y="765" type="curve" smooth="yes"/>
      <point x="52" y="765"/>
      <point x="29" y="717"/>
      <point x="29" y="652" type="curve" smooth="yes"/>
      <point x="29" y="577"/>
      <point x="54" y="539"/>
      <point x="93" y="539" type="curve" smooth="yes"/>
      <point x="128" y="539" type="line"/>
      <point x="128" y="-98" type="line" smooth="yes"/>
      <point x="128" y="-190"/>
      <point x="155" y="-237"/>
    </contour>
    <contour>
      <point x="97" y="564" type="line" smooth="yes"/>
      <point x="62" y="564"/>
      <point x="51" y="597"/>
      <point x="51" y="653" type="curve" smooth="yes"/>
      <point x="51" y="703"/>
      <point x="66" y="740"/>
      <point x="89" y="740" type="curve" smooth="yes"/>
      <point x="112" y="740"/>
      <point x="128" y="705"/>
      <point x="128" y="623" type="curve" smooth="yes"/>
      <point x="128" y="564" type="line"/>
    </contour>
  </outline>
</glyph>
<glyph name="uni01AB" format="2">
  <advance width="300"/>
  <unicode hex="01AB"/>
  <anchor x="179" y="-240" name="bottom"/>
  <anchor x="135" y="659" name="top"/>
  <anchor x="259" y="659" name="topright"/>
  <anchor x="129" y="290" name="center"/>
  <outline>
    <contour>
      <point x="182" y="-242" type="curve" smooth="yes"/>
      <point x="214" y="-242"/>
      <point x="232" y="-206"/>
      <point x="232" y="-146" type="curve" smooth="yes"/>
      <point x="232" y="16" type="line"/>
      <point x="210" y="8" type="line"/>
      <point x="210" y="-144" type="line" smooth="yes"/>
      <point x="210" y="-182"/>
      <point x="201" y="-217"/>
      <point x="180" y="-217" type="curve" smooth="yes"/>
      <point x="170" y="-217"/>
      <point x="163" y="-212"/>
      <point x="156" y="-206" type="curve"/>
      <point x="156" y="-233" type="line"/>
      <point x="161" y="-238"/>
      <point x="171" y="-242"/>
    </contour>
    <component base="t" xOffset="5"/>
  </outline>
</glyph>
<glyph name="uni01AC" format="2">
  <advance width="300"/>
  <unicode hex="01AC"/>
  <anchor x="136" y="0" name="bottom"/>
  <anchor x="136" y="714" name="top"/>
  <outline>
    <contour>
      <point x="124" y="0" type="line"/>
      <point x="147" y="0" type="line"/>
      <point x="147" y="689" type="line"/>
      <point x="244" y="689" type="line"/>
      <point x="244" y="714" type="line"/>
      <point x="74" y="714" type="line" smooth="yes"/>
      <point x="36" y="714"/>
      <point x="19" y="665"/>
      <point x="19" y="596" type="curve" smooth="yes"/>
      <point x="19" y="579"/>
      <point x="21" y="559"/>
      <point x="22" y="544" type="curve"/>
      <point x="44" y="544" type="line"/>
      <point x="42" y="556"/>
      <point x="40" y="577"/>
      <point x="40" y="596" type="curve" smooth="yes"/>
      <point x="40" y="654"/>
      <point x="53" y="689"/>
      <point x="76" y="689" type="curve" smooth="yes"/>
      <point x="124" y="689" type="line"/>
    </contour>
  </outline>
</glyph>
